<?xml version="1.0" standalone="no"?>
<!DOCTYPE svg PUBLIC "-//W3C//DTD SVG 20010904//EN"
 "http://www.w3.org/TR/2001/REC-SVG-20010904/DTD/svg10.dtd">
<svg version="1.0" xmlns="http://www.w3.org/2000/svg"
 width="194.000000pt" height="164.000000pt" viewBox="0 0 194.000000 164.000000"
 preserveAspectRatio="xMidYMid meet">

<g transform="translate(0.000000,164.000000) scale(0.100000,-0.100000)"
fill="#000000" stroke="none">
<path d="M0 820 l0 -820 201 0 c186 0 200 1 195 18 -3 9 -12 57 -21 107 -14
79 -34 164 -41 173 -1 2 -40 -17 -87 -43 -83 -45 -85 -45 -107 -27 -34 27 -21
48 80 127 88 69 90 71 90 113 0 31 6 47 23 62 12 12 31 30 42 40 12 11 26 20
32 20 6 0 16 7 23 15 7 8 21 15 32 15 10 0 21 7 24 15 8 20 41 19 52 -2 8 -14
20 -7 86 46 42 34 76 68 76 76 0 7 39 49 87 92 48 43 144 135 213 204 237 238
383 366 431 379 174 47 364 -117 376 -324 4 -63 1 -77 -24 -126 -17 -34 -43
-65 -68 -82 -22 -16 -150 -73 -285 -129 -192 -78 -252 -99 -276 -94 -17 3 -33
3 -36 0 -3 -3 5 -40 17 -83 13 -42 37 -178 54 -302 17 -124 33 -240 36 -257
l6 -33 354 0 355 0 0 820 0 820 -970 0 -970 0 0 -820z"/>
<path d="M1427 1410 c-44 -13 -95 -57 -119 -103 -35 -65 -32 -183 5 -257 60
-116 153 -181 262 -181 76 0 110 15 159 72 47 56 64 130 47 214 -16 77 -48
131 -111 188 -74 67 -163 91 -243 67z m170 -130 c138 -62 95 -270 -56 -270
-83 0 -141 58 -141 140 0 67 38 122 96 140 43 12 55 11 101 -10z"/>
<path d="M1513 1236 c-61 -53 -21 -156 61 -156 47 0 86 38 86 84 0 48 -8 65
-41 81 -40 21 -74 18 -106 -9z m87 -7 c0 -5 -7 -9 -15 -9 -15 0 -20 12 -9 23
8 8 24 -1 24 -14z"/>
<path d="M1125 1149 c-144 -134 -150 -141 -147 -176 8 -90 76 -207 153 -263
l40 -29 67 29 c37 15 125 52 196 80 l128 53 -60 19 c-73 22 -161 97 -197 168
-31 61 -46 153 -35 210 4 25 7 46 6 47 -1 1 -69 -61 -151 -138z"/>
<path d="M832 859 c-101 -90 -112 -103 -112 -134 0 -18 5 -46 11 -62 13 -36
59 -103 71 -103 5 0 7 24 6 53 -3 47 -1 52 18 55 18 3 25 -6 39 -42 10 -25 19
-46 22 -46 2 0 52 25 112 54 l109 55 -45 47 c-43 44 -103 152 -103 184 -1 44
-19 35 -128 -61z"/>
<path d="M617 656 l-78 -61 5 -63 c2 -35 8 -68 14 -74 11 -11 202 89 202 105
0 5 -10 22 -21 39 -12 16 -27 49 -33 72 l-11 43 -78 -61z"/>
<path d="M688 498 l-78 -43 3 -55 c2 -30 21 -133 42 -227 l39 -173 123 0 123
0 -6 73 c-3 39 -9 123 -13 185 -8 107 -9 114 -39 145 -16 18 -41 55 -54 82
-15 33 -30 51 -43 52 -11 2 -55 -16 -97 -39z"/>
<path d="M218 337 c-74 -60 -94 -92 -64 -103 8 -3 45 11 83 32 96 53 92 48 81
94 -6 22 -13 40 -17 39 -3 0 -41 -28 -83 -62z"/>
</g>
</svg>
