<svg width="197" height="128" viewBox="0 0 197 128" fill="none" xmlns="http://www.w3.org/2000/svg">
<g clip-path="url(#clip0_419_1776)">
<path d="M162.061 85.6819C161.844 85.6821 161.634 85.6077 161.466 85.4714C161.299 85.3351 161.183 85.1451 161.139 84.9337C161.096 84.7223 161.127 84.5023 161.227 84.311C161.327 84.1196 161.49 83.9686 161.689 83.8835L168.481 80.976C168.594 80.9275 168.716 80.9017 168.839 80.9001C168.963 80.8985 169.085 80.9212 169.2 80.9669C169.315 81.0125 169.419 81.0802 169.508 81.1662C169.596 81.2521 169.667 81.3545 169.715 81.4676C169.764 81.5807 169.79 81.7023 169.791 81.8254C169.793 81.9485 169.77 82.0706 169.724 82.185C169.679 82.2993 169.611 82.4035 169.525 82.4916C169.438 82.5798 169.336 82.6501 169.222 82.6987L162.431 85.6066C162.314 85.6566 162.188 85.6822 162.061 85.6819Z" fill="black"/>
<path d="M174.378 85.084C171.056 85.084 168.787 84.0628 167.988 82.2068C167.187 80.3445 168.015 77.9918 170.32 75.582C172.435 73.3718 175.598 71.2994 179.225 69.7467C182.852 68.194 186.537 67.3357 189.6 67.3293H189.633C192.955 67.3293 195.224 68.3505 196.023 70.2064C196.825 72.0687 195.996 74.4215 193.691 76.8311C191.576 79.0414 188.414 81.1137 184.786 82.6664C181.158 84.2191 177.474 85.0776 174.41 85.0838L174.378 85.084ZM189.619 69.2036C187.046 69.2036 183.651 69.8909 179.966 71.4684C176.567 72.9237 173.624 74.8439 171.68 76.8753C169.952 78.6807 169.236 80.3543 169.715 81.4674C170.193 82.5804 171.901 83.2092 174.406 83.2098C177.222 83.204 180.645 82.3997 184.044 80.945C187.444 79.4904 190.387 77.5697 192.331 75.5382C194.058 73.7327 194.774 72.0591 194.295 70.9461C193.822 69.8453 192.103 69.2036 189.619 69.2036ZM138.225 96.3563C137.901 96.3564 137.586 96.2447 137.334 96.0402C137.083 95.8356 136.91 95.5507 136.844 95.2336C136.779 94.9165 136.825 94.5866 136.976 94.2997C137.126 94.0128 137.371 93.7864 137.669 93.6587L163.053 82.79C163.223 82.7144 163.407 82.6734 163.594 82.6692C163.78 82.6651 163.966 82.6979 164.14 82.7659C164.314 82.8338 164.472 82.9354 164.606 83.0649C164.74 83.1944 164.847 83.3491 164.921 83.5201C164.994 83.6911 165.033 83.875 165.035 84.0611C165.037 84.2471 165.001 84.4317 164.931 84.6041C164.861 84.7765 164.757 84.9333 164.625 85.0653C164.494 85.1973 164.337 85.302 164.165 85.3732L138.782 96.242C138.606 96.3175 138.417 96.3564 138.225 96.3563Z" fill="black"/>
</g>
<g clip-path="url(#clip1_419_1776)">
<path d="M103.757 70.6261C103.654 63.1934 99.3162 54.3499 89.057 38.8824C89.057 38.8824 81.3281 39.4846 75.8542 34.5467C64.8376 24.602 70.3632 15.8101 70.3632 15.8101C70.3632 15.8101 67.3508 15.9994 65.4745 16.2919C61.1884 16.9457 56.7129 18.6318 52.1858 22.3997C44.5258 28.7829 45.593 45.5236 46.1955 52.0272C47.6586 67.512 48.8119 74.3941 48.8119 74.3941C44.1815 76.4415 38.0363 80.4331 33.3887 83.7021C25.7803 89.053 15.4695 99.1352 15.4695 99.1352L20.0655 108.719C43.2176 98.8428 56.558 90.9455 61.1023 87.7282C66.8688 83.6333 70.7935 73.6026 74.1157 60.0277L86.4577 73.6026C86.4577 73.6026 84.9085 76.734 84.0995 86.0592C83.6003 91.823 84.0651 108.959 84.0651 108.959H94.5481C103.43 83.4268 103.809 74.9963 103.757 70.6261Z" fill="#65B8A2"/>
<path d="M94.5482 109.992H84.0997C83.5316 109.992 83.0841 109.544 83.0669 108.994C83.0497 108.288 82.6021 91.737 83.1013 85.9732C83.721 78.7986 84.7882 75.2027 85.2874 73.8263L74.6839 62.1611C70.9658 76.6996 66.9379 84.8721 61.7222 88.5884C56.0073 92.6489 41.789 100.615 20.496 109.699C19.9796 109.923 19.3943 109.699 19.1533 109.2L14.5574 99.617C14.368 99.2213 14.4541 98.7395 14.7639 98.4298C14.8672 98.3266 25.2125 88.2271 32.8036 82.8763C36.2119 80.4675 42.5464 76.2006 47.676 73.7919C47.3318 71.5724 46.3506 64.6043 45.1629 52.1305C44.1473 41.4632 44.4227 27.5097 51.5146 21.6083C55.7147 18.1156 60.2246 16.0338 65.3026 15.2768C67.1789 14.9843 70.1396 14.795 70.2773 14.795C70.8453 14.7606 71.3445 15.1907 71.3789 15.7585C71.3961 15.9822 71.3445 16.1886 71.224 16.3779C71.2068 16.3951 69.9674 18.4425 70.0019 21.5911C70.0363 25.8064 72.2224 29.9185 76.5258 33.8068C81.5865 38.3834 88.885 37.8845 88.9539 37.8845C89.3326 37.8501 89.694 38.0393 89.9006 38.349C100.642 54.522 104.67 63.2795 104.773 70.6433C104.825 74.1016 104.945 82.2225 95.5122 109.321C95.3745 109.716 94.9786 109.992 94.5482 109.992ZM85.0981 107.927H93.8081C102.88 81.7235 102.759 73.964 102.707 70.6433C102.604 63.7956 98.7483 55.4339 88.4891 39.9319C86.4751 39.9663 80.0201 39.7083 75.1315 35.3037C71.8437 32.3272 67.919 27.5097 67.919 21.4363C67.919 19.905 68.1772 18.3909 68.6764 16.9629C67.7125 17.0489 66.5075 17.1693 65.6124 17.2898C60.9132 17.9952 56.7303 19.9222 52.8228 23.174C49.7416 25.7376 47.8137 30.4862 47.0908 37.2651C46.6432 41.4804 46.6776 46.4011 47.2113 51.924C48.6572 67.1851 49.8105 74.1532 49.8277 74.222C49.9138 74.6866 49.6556 75.1511 49.2252 75.3404C44.1301 77.5943 37.4857 82.0848 33.9741 84.5452C27.5191 89.1046 18.9468 97.2427 16.7435 99.3589L20.5821 107.377C47.7621 95.7114 59.2779 87.7626 60.5173 86.8851C65.4575 83.3752 69.4682 74.7726 73.1347 59.7868C73.2724 59.2362 73.8232 58.8921 74.3913 59.0298C74.5979 59.0814 74.77 59.1846 74.9077 59.3395L87.2497 72.9144C87.5424 73.2241 87.594 73.6887 87.4047 74.0672C87.3874 74.0844 85.9243 77.2329 85.1497 86.1625C84.7366 90.98 85.012 104.176 85.0981 107.927Z" fill="#65B8A2"/>
<path d="M18.0516 105.501C17.4836 105.501 17.0188 105.037 17.0188 104.469C17.0188 104.073 17.2426 103.712 17.6041 103.54C17.9311 103.385 50.6711 87.3841 56.7819 78.8847C59.9491 74.4801 59.3983 66.841 58.813 58.7545C58.2966 51.4595 57.7458 43.9235 59.8803 37.8845C61.4467 33.4627 64.3558 27.6646 69.3649 25.1698C69.8641 24.9117 70.501 25.101 70.7592 25.6171C71.0174 26.1161 70.828 26.7527 70.3116 27.0108C70.2944 27.0108 70.2944 27.028 70.2772 27.028C67.8501 28.2323 64.4246 31.2261 61.8254 38.5899C59.8459 44.216 60.3623 51.5455 60.8787 58.6168C61.4811 67.0818 62.0664 75.0823 58.4688 80.089C52.0654 89.0186 19.8934 104.744 18.5164 105.398C18.3614 105.467 18.2065 105.501 18.0516 105.501Z" fill="black"/>
<path d="M50.6711 77.7663C50.3785 77.7663 50.1031 77.6459 49.9138 77.4222L47.7104 75.0135C47.3317 74.5833 47.3489 73.9467 47.7793 73.551C48.0031 73.3446 48.2957 73.2585 48.5883 73.2929L54.7852 73.9984C55.3532 74.0672 55.7663 74.5661 55.6975 75.1339C55.6286 75.7017 55.1294 76.1146 54.5614 76.0458H54.5442L51.0843 75.6501L51.4285 76.0286C51.8072 76.4415 51.79 77.0953 51.3597 77.491C51.1875 77.6803 50.9293 77.7663 50.6711 77.7663ZM93.2916 76.0286C93.2228 76.0286 93.1711 76.0286 93.1195 76.0114L85.9587 74.7554C85.3907 74.6522 85.0292 74.1188 85.1153 73.5682C85.1841 73.1725 85.4939 72.8456 85.8899 72.7424L91.9834 71.2283C92.5342 71.0907 93.1023 71.4348 93.24 71.9853C93.3777 72.5359 93.0334 73.1037 92.4826 73.2413L91.1055 73.5854L93.4638 73.9984C94.0318 74.1016 94.3933 74.6349 94.3072 75.1855C94.2212 75.6673 93.808 76.0286 93.2916 76.0286ZM46.1956 36.6801C45.6276 36.6801 45.1628 36.2156 45.1628 35.6478C45.1628 35.2005 45.4383 34.822 45.8514 34.6671L49.9138 33.2563L53.8384 27.5613C52.4097 25.9612 51.704 23.8622 51.8933 21.7287C51.9622 21.161 52.4786 20.7652 53.0466 20.8341C53.6146 20.9029 54.0106 21.419 53.9417 21.9868V22.0212C53.8212 23.7934 54.527 25.5139 55.8524 26.6839C56.2483 27.028 56.3172 27.6129 56.0245 28.0431L51.4113 34.7187C51.2908 34.8908 51.1015 35.0284 50.8949 35.1144L46.5227 36.6285C46.4366 36.6629 46.3161 36.6801 46.1956 36.6801Z" fill="black"/>
<path d="M20.2205 108.977L15.4008 98.9116C15.4008 98.9116 8.87688 102.112 4.96943 104.176C4.7973 104.262 1.44067 106.017 1.44067 106.017L10.2023 126.216H24.0247C24.0936 125.373 24.0936 124.53 24.0247 123.704C23.887 121.967 23.887 119.954 19.8935 117.872C13.2491 114.448 20.2205 108.977 20.2205 108.977Z" fill="white"/>
<path d="M24.0075 127.249H10.1851C9.77194 127.249 9.41046 127.008 9.23832 126.629L0.476681 106.43C0.252906 105.931 0.459467 105.346 0.941444 105.105C2.11196 104.503 4.33249 103.333 4.4702 103.264C8.34323 101.217 14.8671 98.0168 14.936 97.9824C15.4524 97.7244 16.0721 97.948 16.3131 98.447V98.4642L21.1328 108.529C21.3394 108.959 21.2189 109.493 20.8402 109.785C19.9967 110.439 17.8623 112.555 18.0344 114.396C18.1205 115.36 18.8951 116.22 20.3238 116.96C24.6616 119.214 24.8509 121.622 24.9886 123.395L25.0058 123.618C25.0747 124.513 25.0747 125.425 25.0058 126.32C24.9714 126.853 24.5411 127.249 24.0075 127.249ZM10.8564 125.184H23.0091C23.0091 124.788 23.0091 124.289 22.9747 123.79L22.9574 123.549C22.8369 121.984 22.7165 120.521 19.3943 118.784C17.3114 117.7 16.1581 116.289 16.0032 114.568C15.7622 112.039 17.8623 109.734 18.9467 108.701L14.9188 100.288C12.9736 101.251 8.41208 103.505 5.45137 105.071C5.33087 105.14 3.78166 105.948 2.76607 106.465L10.8564 125.184Z" fill="black"/>
<path d="M23.8353 123.584H12.7843C12.3711 123.584 11.9925 123.343 11.8375 122.965L4.00541 104.589C3.79885 104.056 4.03984 103.454 4.57346 103.247C5.08986 103.041 5.67512 103.282 5.89889 103.781L13.4728 121.519H23.8353C24.4033 121.519 24.8681 121.984 24.8681 122.552C24.8681 123.119 24.4033 123.584 23.8353 123.584Z" fill="black"/>
<path d="M7.91293 111.884C7.34489 111.884 6.88013 111.42 6.88013 110.852C6.88013 110.508 7.05226 110.181 7.34489 109.992C11.6655 107.136 9.65149 101.94 9.56542 101.716C9.35886 101.183 9.59985 100.58 10.1335 100.374C10.6671 100.168 11.2696 100.408 11.4761 100.942C12.4573 103.333 13.077 108.667 8.48098 111.712C8.30884 111.833 8.1195 111.884 7.91293 111.884ZM17.3631 123.601C16.7951 123.601 16.3303 123.137 16.3303 122.569C16.3303 122.362 16.3819 122.173 16.5024 122.001L19.3943 117.528C19.7041 117.046 20.341 116.891 20.823 117.201C21.305 117.51 21.4599 118.147 21.1501 118.629L21.1329 118.646L18.241 123.119C18.0344 123.429 17.7074 123.601 17.3631 123.601ZM18.5508 111.678C18.2926 111.678 18.0517 111.592 17.8795 111.42L15.4868 109.321C15.0565 108.942 15.0221 108.288 15.4008 107.858C15.7795 107.445 16.4164 107.394 16.8467 107.755L19.2394 109.854C19.6697 110.233 19.7041 110.886 19.3427 111.317C19.1361 111.54 18.8607 111.678 18.5508 111.678ZM17.191 114.069C17.1221 114.069 17.0361 114.069 16.9672 114.052L13.9376 113.398C13.3868 113.278 13.0253 112.727 13.1458 112.177C13.2663 111.626 13.8171 111.265 14.368 111.385L17.3975 112.039C17.9484 112.16 18.3099 112.71 18.1894 113.261C18.1033 113.725 17.673 114.069 17.191 114.069ZM14.8155 118.233C14.2475 118.233 13.7827 117.769 13.7827 117.201C13.7827 116.805 14.0065 116.444 14.3508 116.272L17.0361 114.947C17.5525 114.706 18.1721 114.93 18.4131 115.446C18.6541 115.945 18.4476 116.547 17.9484 116.805L15.2631 118.13C15.1254 118.199 14.9704 118.233 14.8155 118.233Z" fill="black"/>
<path d="M83.6693 108.959C83.6693 108.959 82.6537 117.7 83.1356 122.586V126.234H109.971C109.971 126.234 110.144 123.739 110.023 122.397C109.851 120.607 108.99 119.283 104.463 118.302C94.8064 116.203 95.1678 108.959 95.1678 108.959H83.6693Z" fill="white"/>
<path d="M109.971 127.249H83.1357C82.5677 127.249 82.1029 126.784 82.1029 126.216V122.62C81.6209 117.665 82.6021 109.183 82.6365 108.839C82.7054 108.323 83.1357 107.927 83.6693 107.927H95.1679C95.7359 107.927 96.2007 108.392 96.2007 108.959V109.011C96.1835 109.269 96.063 115.429 104.687 117.304C109.025 118.25 110.798 119.644 111.056 122.311C111.194 123.722 111.021 126.199 111.004 126.32C110.97 126.836 110.522 127.249 109.971 127.249ZM84.1685 125.184H109.008C109.059 124.289 109.059 123.377 109.008 122.483C108.921 121.502 108.801 120.298 104.257 119.3C101.296 118.646 97.3368 117.098 95.2884 113.312C94.7203 112.28 94.3589 111.145 94.2039 109.975H84.5988C84.3579 112.332 83.7898 118.646 84.1685 122.466V122.569V125.184Z" fill="black"/>
<path d="M110.04 123.601H83.1356C82.5675 123.601 82.1028 123.137 82.1028 122.569C82.1028 122.001 82.5675 121.536 83.1356 121.536H110.04C110.608 121.536 111.073 122.001 111.073 122.569C111.073 123.137 110.608 123.601 110.04 123.601Z" fill="black"/>
<path d="M83.1013 115.962C83.1013 115.962 89.7457 116.874 90.9162 122.569Z" fill="white"/>
<path d="M90.9162 123.601C90.4343 123.601 90.0039 123.257 89.9006 122.775C89.4875 120.745 88.2309 119.162 86.1481 118.061C85.1497 117.545 84.0653 117.166 82.9636 116.977C82.3956 116.908 81.9997 116.375 82.0857 115.807C82.1546 115.239 82.6882 114.844 83.2562 114.93C84.5817 115.153 85.8727 115.584 87.0604 116.203C89.7113 117.579 91.3982 119.713 91.9318 122.362C92.0523 122.93 91.6908 123.464 91.1228 123.584C91.0539 123.601 90.9851 123.618 90.9162 123.601ZM104.429 123.601C103.861 123.601 103.396 123.137 103.396 122.569V118.302C103.396 117.734 103.861 117.27 104.429 117.27C104.997 117.27 105.462 117.734 105.462 118.302V122.569C105.462 123.154 104.997 123.601 104.429 123.601Z" fill="black"/>
<path d="M92.672 114.242C92.1039 114.242 91.6392 113.777 91.6392 113.209C91.6392 112.796 91.8974 112.418 92.2761 112.246L95.3745 110.973C95.9081 110.749 96.5106 111.007 96.7171 111.54C96.9237 112.074 96.6827 112.676 96.1491 112.882L93.0507 114.156C92.9474 114.224 92.8097 114.242 92.672 114.242Z" fill="black"/>
<path d="M95.1852 117.579C94.6171 117.579 94.1523 117.115 94.1523 116.547C94.1523 116.272 94.2556 116.014 94.445 115.824L96.5278 113.674C96.9237 113.261 97.5778 113.261 97.9909 113.656C98.4041 114.052 98.4041 114.706 98.0081 115.119L95.9253 117.27C95.7188 117.476 95.4606 117.579 95.1852 117.579Z" fill="black"/>
<path d="M98.6793 119.73C98.1112 119.73 97.6465 119.265 97.6465 118.698C97.6465 118.526 97.6809 118.371 97.767 118.216L98.9031 116.048C99.1613 115.549 99.7982 115.343 100.297 115.618C100.797 115.893 101.003 116.513 100.728 117.012L99.5916 119.179C99.4195 119.524 99.058 119.73 98.6793 119.73Z" fill="black"/>
<path d="M157.567 79.5728C153.143 78.6093 152.385 78.248 149.166 77.6803L129.715 65.6882C129.715 65.6882 126.307 55.5371 124.551 51.6659C124.551 51.6659 120.42 45.2483 124.172 42.1686C124.586 42.7191 125.033 43.2353 125.549 43.7171C125.722 43.8891 125.911 44.044 126.118 44.1988C127.908 45.5752 130.18 46.1258 132.4 45.7129C132.4 45.7129 138.752 46.3495 139.131 33.2735C139.372 25.3246 138.133 22.4513 138.133 22.4513C138.133 22.4513 135.878 17.2209 130.473 16.4295L127.116 12.0077C120.472 5.76223 113.862 -4.61255 99.9187 5.31489C92.121 10.8722 87.8521 11.3367 87.8521 11.3367C87.1119 11.2851 86.3717 11.1475 85.6487 10.941C86.6988 5.38371 81.3798 3.80082 79.383 5.88266C76.7322 8.65271 76.0953 12.369 76.9904 14.1412L76.7322 13.9863C75.3723 13.7111 73.9608 13.8315 72.6698 14.3132C72.36 14.4337 72.0501 14.5713 71.7575 14.7434C69.623 15.2767 67.4541 15.6897 65.268 15.9822C61.5327 16.4811 60.6032 26.3569 62.1007 33.5143C64.9582 47.1409 70.346 49.4808 73.5993 50.4099C74.3223 50.5992 75.0797 50.6852 75.8199 50.6852C76.9904 51.5627 78.3158 52.2337 79.7273 52.6466C89.6078 55.6575 105.892 55.6575 105.892 55.6575C108.508 60.7503 111.297 65.4129 112.347 67.3743C114.774 71.8821 117.235 74.0155 120.558 75.8565C123.518 77.491 145.448 86.1108 145.448 86.1108C145.448 86.1108 147.256 87.3324 151.094 89.8272C158.668 94.7479 164.624 83.7709 164.624 83.7709C164.624 83.7709 159.391 79.9686 157.567 79.5728Z" fill="white"/>
<path d="M145.448 87.126C145.311 87.126 145.19 87.1088 145.07 87.0571C144.175 86.713 123.037 78.4029 120.059 76.7512C116.771 74.9274 114.051 72.7079 111.435 67.8561C111.108 67.2367 110.608 66.3764 109.989 65.2753C103.757 54.3327 98.1975 43.5622 99.6434 38.848C99.8156 38.2974 100.384 38.0049 100.934 38.1598C101.485 38.3318 101.778 38.8996 101.623 39.4502C101.227 40.7405 101.451 43.7687 104.721 50.8745C106.976 55.7952 109.885 60.8879 111.796 64.243C112.433 65.3613 112.932 66.2388 113.276 66.8754C115.652 71.2971 118.027 73.2413 121.074 74.9446C123.587 76.3383 140.715 83.1171 144.915 84.7688L147.858 78.076L129.182 66.5485C128.975 66.428 128.82 66.2216 128.751 65.9979C128.717 65.8947 125.343 55.864 123.622 52.0788C123.381 51.5627 123.622 50.9433 124.138 50.7196C124.655 50.4959 125.257 50.7196 125.498 51.2358C127.099 54.7456 129.956 63.1418 130.576 65L149.7 76.8028C150.13 77.0781 150.303 77.6287 150.096 78.0932L146.395 86.5066C146.24 86.8851 145.862 87.126 145.448 87.126ZM130.955 46.8656C128.683 46.8828 126.496 46.0226 124.844 44.4569C119.835 39.8115 120.489 32.5336 120.506 32.2239C120.558 31.6562 121.074 31.2432 121.642 31.3121C122.21 31.3637 122.623 31.8626 122.572 32.4304C122.572 32.4992 122.004 39.0028 126.255 42.96C127.839 44.4397 130.025 45.0935 132.16 44.6978C132.71 44.5773 133.279 44.9214 133.399 45.472C133.519 46.0226 133.192 46.5559 132.659 46.7108C132.091 46.814 131.523 46.8828 130.955 46.8656Z" fill="black"/>
<path d="M105.892 56.6727C105.221 56.6727 89.3325 56.6382 79.4348 53.6273C76.5601 52.7499 74.2019 51.0809 72.2051 48.5174C69.6576 45.2312 67.7985 40.4825 66.6796 34.3746C65.6468 28.7657 65.7329 23.7934 66.9034 20.0082C67.9706 16.5844 69.8985 14.2101 72.3256 13.3326C73.7888 12.782 75.3896 12.6444 76.9216 12.9541C77.4897 13.0573 77.8511 13.5907 77.7479 14.1584C77.6446 14.7262 77.111 15.0875 76.5429 14.9843C75.3724 14.7434 74.1503 14.8466 73.0314 15.2768C71.224 15.9306 69.7436 17.8232 68.8829 20.6104C67.8157 24.0859 67.7469 28.7141 68.7108 33.9961C69.7608 39.7771 71.4994 44.2333 73.8404 47.2442C75.5618 49.4637 77.5929 50.8917 80.0373 51.6487C83.9964 52.8531 89.7284 53.7478 96.5794 54.2295C101.795 54.5908 105.857 54.608 105.892 54.608C106.46 54.608 106.925 55.0726 106.925 55.6403C106.925 56.2081 106.477 56.6727 105.892 56.6727ZM117.821 34.7876C117.287 34.7876 116.84 34.3746 116.788 33.8413C116.099 25.1526 118.836 20.6448 121.229 18.3737C123.725 16.0338 127.15 14.9327 130.542 15.38C136.497 16.2231 138.959 21.7804 139.062 22.0212C139.286 22.5546 139.028 23.1568 138.511 23.3633C137.995 23.5697 137.392 23.3461 137.169 22.8299C137.134 22.7611 135.034 18.0812 130.249 17.4102C127.478 17.0489 124.672 17.9436 122.641 19.8534C119.663 22.6578 118.354 27.4237 118.836 33.652C118.888 34.2198 118.458 34.7187 117.89 34.7704C117.872 34.7876 117.855 34.7876 117.821 34.7876Z" fill="black"/>
<path d="M83.1356 17.4446C81.0528 17.4446 78.6257 17.0661 76.8871 15.6037C76.1297 15.0015 75.6994 14.0036 75.5961 12.696C75.424 10.2012 76.6289 7.24191 78.6429 5.12566C79.9167 3.80085 82.12 3.54278 83.9791 4.48907C85.9758 5.52138 86.9914 7.58601 86.8021 10.1152C87.1635 10.184 87.5422 10.2356 87.9037 10.2528C88.4718 10.2872 88.9193 10.769 88.8849 11.3368C88.8849 11.3712 88.8849 11.4056 88.8677 11.44L88.1619 16.0854C88.0931 16.4983 87.8004 16.8252 87.3873 16.9285C85.993 17.2898 84.5643 17.4446 83.1356 17.4446ZM81.638 6.00313C81.0872 5.98592 80.5364 6.17518 80.1233 6.5709C78.1265 8.65274 77.5412 11.0959 77.6445 12.5755C77.6962 13.2465 77.8855 13.7799 78.1609 14.0036L78.1781 14.0208C79.6068 15.2252 81.879 15.4316 83.5143 15.38C84.4266 15.3456 85.3217 15.2596 86.2168 15.0875L86.6471 12.197C85.2356 11.9562 82.9807 11.3024 82.2577 9.51301C82.0512 8.97964 82.3094 8.37746 82.843 8.17099C83.3594 7.96453 83.9618 8.22261 84.1684 8.73877C84.2889 8.99685 84.4783 9.22052 84.7192 9.35816C84.6848 7.94733 84.0823 6.8806 82.9979 6.31282C82.602 6.12357 82.12 6.00313 81.638 6.00313Z" fill="black"/>
<path d="M87.1463 16.9973C86.5783 16.9973 86.1135 16.5327 86.1135 15.965C86.1135 15.9133 86.1135 15.8617 86.1307 15.8101L86.8365 11.1647C86.9053 10.7001 87.284 10.3388 87.7488 10.2872C87.7832 10.2872 91.9145 9.73665 99.3162 4.45463C112.157 -4.68137 119.404 2.7169 125.24 8.66992C126.135 9.5818 126.978 10.4421 127.822 11.2335C128.235 11.6292 128.252 12.283 127.873 12.696C127.477 13.1089 126.823 13.1261 126.41 12.7476C125.532 11.9217 124.672 11.0443 123.777 10.1152C117.958 4.16214 111.934 -1.98014 100.538 6.12354C94.4448 10.4593 90.4169 11.7841 88.7816 12.1798L88.1964 16.1198C88.0931 16.6188 87.6627 16.9973 87.1463 16.9973Z" fill="black"/>
<path d="M87.1465 16.9973C86.5784 16.9973 86.1137 16.5328 86.1137 15.965C86.1137 15.5349 86.3719 15.1563 86.7678 15.0015C87.3358 14.7778 101.003 9.46139 115.463 12.0422C116.013 12.1626 116.392 12.696 116.272 13.2638C116.168 13.8143 115.652 14.1756 115.101 14.0724C101.21 11.5948 87.6629 16.8597 87.5252 16.9285C87.4047 16.9629 87.2842 16.9973 87.1465 16.9973ZM155.071 92.1155C153.539 92.1155 152.007 91.6338 150.544 90.6703C146.739 88.1927 144.898 86.9539 144.88 86.9539C144.467 86.6787 144.312 86.1453 144.519 85.6807L148.22 77.2674C148.409 76.8372 148.874 76.5792 149.339 76.6652C151.215 76.9921 152.282 77.2674 153.659 77.5943C154.709 77.8523 155.897 78.1448 157.79 78.5578C159.718 78.9879 164.314 82.2397 165.244 82.9107C165.261 82.9279 165.296 82.9451 165.313 82.9623C165.468 83.1 165.588 83.2892 165.64 83.4957C165.657 83.5473 165.657 83.5989 165.674 83.6505C165.691 83.857 165.657 84.0807 165.554 84.2699C165.33 84.6656 162.008 90.6015 156.981 91.8746C156.362 92.0295 155.725 92.1155 155.071 92.1155ZM146.757 85.7152C147.617 86.2829 149.235 87.3497 151.68 88.9497C153.281 89.9821 154.847 90.2918 156.465 89.8788C158.961 89.2422 161.061 87.0572 162.335 85.3538L160.028 85.8872C159.839 85.9388 159.632 85.9216 159.443 85.8528L156.362 84.7517C155.828 84.5624 155.553 83.9602 155.742 83.4269C155.931 82.8935 156.517 82.6182 157.05 82.8075L159.839 83.8054L162.111 83.272C160.269 82.0332 158.169 80.76 157.308 80.5708C155.398 80.1579 154.124 79.831 153.108 79.5901C151.955 79.2976 151.06 79.0739 149.735 78.833L146.757 85.7152ZM75.82 51.7003C74.9766 51.7003 74.1331 51.5799 73.3241 51.3734C71.5339 50.8573 69.1928 49.9454 66.9207 47.3818C64.3387 44.4397 62.3763 39.8287 61.0853 33.7036C59.8976 28.0087 60.1041 20.077 62.5312 16.6704C63.2542 15.6553 64.1149 15.0703 65.1305 14.9327C67.2649 14.6574 69.3994 14.2445 71.4822 13.7283C72.0331 13.5735 72.6011 13.9004 72.756 14.4509C72.911 15.0015 72.5839 15.5693 72.0331 15.7241C69.847 16.2747 67.6436 16.6876 65.4059 16.9801C64.9928 17.0317 64.5969 17.3242 64.2182 17.8576C62.4107 20.4212 61.8943 27.4925 63.1165 33.2907C65.6985 45.5925 70.2257 48.3625 73.8921 49.3948C74.529 49.5497 75.1831 49.6357 75.8372 49.6357C76.4053 49.6357 76.87 50.1002 76.87 50.668C76.87 51.2358 76.4053 51.7003 75.82 51.7003Z" fill="black"/>
<path d="M159.477 28.0775C159.477 28.0775 154.812 21.1954 146.619 25.3935C146.619 25.3935 148.134 23.0019 147.479 21.4363C146.791 19.7846 144.777 19.1136 143.159 20.2835C140.715 22.0557 140.973 24.9117 140.973 24.9117C140.973 24.9117 135.86 28.3872 133.898 25.9785C133.898 25.9785 130.111 25.8408 127.804 22.9847C127.804 22.9847 125.188 25.1526 126.479 31.725C127.047 34.6155 129.543 39.7943 132.848 40.8782C133.864 41.2051 134.965 41.1191 135.912 40.6374L139.647 39.433C140.628 40.2244 141.765 40.8094 142.97 41.1879C147.445 42.5815 150.647 40.2416 150.647 40.2416C151.421 40.9126 152.781 41.3256 153.315 40.4481C153.952 39.4158 153.401 37.678 155.157 35.1145C156.568 34.1682 160.166 31.9315 159.477 28.0775Z" fill="white"/>
<path d="M141.007 24.9289C141.007 24.9289 140.749 22.0728 143.193 20.3007C144.811 19.1307 146.825 19.8017 147.514 21.4535C148.168 23.0191 146.653 25.4107 146.653 25.4107C154.847 21.2126 159.512 28.0947 159.512 28.0947C159.563 28.3872 159.598 28.6969 159.598 28.9894C160.527 29.2302 162.18 29.4711 163.161 29.4539C163.161 29.4539 167.895 30.2281 170.442 24.516C170.442 24.516 166.397 26.3742 161.698 22.7955L161.681 22.7611C161.681 22.7611 162.507 14.6918 155.535 10.27C150.595 7.13867 143.142 5.38373 137.461 11.7153C130.937 18.9759 133.967 26.0129 133.967 26.0129C135.895 28.4044 141.007 24.9289 141.007 24.9289Z" fill="#7396BA"/>
<path d="M163.764 30.5379C163.523 30.5379 163.299 30.5206 163.058 30.4862H163.023C161.767 30.4518 160.527 30.2798 159.322 29.9873C158.858 29.8841 158.531 29.4711 158.531 28.9894C158.531 28.8173 158.513 28.6625 158.496 28.4904C157.739 27.4925 153.728 22.9159 147.101 26.3226C146.602 26.5806 145.965 26.3914 145.707 25.8752C145.535 25.5483 145.552 25.1526 145.758 24.8429C146.154 24.2063 146.877 22.6406 146.533 21.832C146.326 21.3158 145.896 20.9373 145.38 20.7825C144.829 20.6448 144.243 20.7653 143.796 21.1094C141.851 22.5202 142.04 24.7913 142.04 24.8085C142.075 25.187 141.902 25.5483 141.593 25.7548C140.646 26.3742 139.63 26.8903 138.58 27.3033C135.499 28.456 133.915 27.5613 133.158 26.6151C133.106 26.5462 133.055 26.4602 133.003 26.3742C132.865 26.0645 129.784 18.649 136.67 10.9927C139.424 7.93013 142.763 6.38165 146.602 6.38165H146.774C149.803 6.41606 153.091 7.48279 156.069 9.37537C162.473 13.4358 162.782 20.2491 162.731 22.2621C166.655 24.9806 169.874 23.6213 170.012 23.5525C170.528 23.3116 171.148 23.5525 171.372 24.0687C171.492 24.3268 171.492 24.6364 171.372 24.9117C169.358 29.4023 165.881 30.5379 163.764 30.5379ZM163.144 28.4216C163.195 28.4216 163.247 28.4216 163.316 28.4388C163.454 28.456 166.191 28.8173 168.36 26.0129C166.535 26.1333 163.901 25.772 161.044 23.6213C160.854 23.4837 160.734 23.2772 160.665 23.0536L160.648 23.0191C160.613 22.8987 160.613 22.7783 160.613 22.6578C160.648 22.3481 161.268 15.1563 154.933 11.1475C152.592 9.66786 144.502 5.38375 138.167 12.4035C132.676 18.5286 134.483 24.4644 134.828 25.4451C135.826 26.4086 138.46 25.273 139.975 24.3612C140.026 23.26 140.439 21.0233 142.574 19.4577C143.538 18.735 144.777 18.4942 145.93 18.8039C147.067 19.1308 147.996 19.9394 148.444 21.0405C148.771 21.832 148.736 22.7095 148.547 23.5009C152.041 22.4514 154.813 23.26 156.62 24.2579C158.083 25.0494 159.357 26.1677 160.338 27.5097C160.424 27.6302 160.476 27.7678 160.493 27.9054C160.51 27.9915 160.527 28.0603 160.527 28.1463C161.371 28.3184 162.249 28.4044 163.109 28.4216H163.144Z" fill="#7396BA"/>
<path d="M152.415 33.7079C153.538 33.3191 154.218 32.3416 153.935 31.5245C153.652 30.7075 152.512 30.3603 151.389 30.749C150.266 31.1378 149.586 32.1153 149.869 32.9324C150.152 33.7494 151.292 34.0966 152.415 33.7079Z" fill="black"/>
<path d="M159.477 29.1098C159.133 29.1098 158.823 28.9378 158.617 28.6625C158.444 28.4044 154.33 22.6062 147.084 26.3053C146.584 26.5634 145.947 26.3742 145.689 25.858C145.517 25.5311 145.534 25.1354 145.741 24.8257C146.137 24.1891 146.86 22.6234 146.515 21.8148C146.309 21.2986 145.879 20.9201 145.362 20.7653C144.811 20.6276 144.226 20.748 143.779 21.0921C141.868 22.4858 142.006 24.7053 142.023 24.8085C142.057 25.187 141.885 25.5311 141.575 25.7548C140.628 26.3742 139.613 26.8903 138.563 27.3033C135.482 28.456 133.898 27.5613 133.141 26.615C132.779 26.1677 132.848 25.5139 133.296 25.1698C133.743 24.8257 134.397 24.8773 134.741 25.3246C135.671 26.4602 138.408 25.2902 139.974 24.3439C140.026 23.2428 140.439 21.0061 142.574 19.4404C143.538 18.7178 144.777 18.4769 145.93 18.7866C147.066 19.1135 147.996 19.9222 148.443 21.0233C148.77 21.8148 148.736 22.6922 148.547 23.4837C152.041 22.4342 154.812 23.2428 156.62 24.2407C158.083 25.0322 159.357 26.1505 160.338 27.4925C160.665 27.9571 160.527 28.6109 160.062 28.9205C159.89 29.0582 159.684 29.1098 159.477 29.1098Z" fill="black"/>
<path d="M145.861 42.6847C144.794 42.6847 143.71 42.5127 142.694 42.1858C136.05 40.1211 134.673 33.3767 134.621 33.1014C134.518 32.5336 134.879 32.0003 135.43 31.897C135.981 31.7938 136.532 32.1551 136.635 32.7057C136.687 32.9465 137.857 38.5211 143.297 40.2244C147.239 41.446 150.027 39.4501 150.044 39.4329C150.44 39.1404 150.974 39.1749 151.335 39.4846C151.766 39.8459 152.299 39.9835 152.454 39.9319C152.575 39.7254 152.644 39.3297 152.712 38.8824C152.867 37.8156 153.091 36.3704 154.33 34.5638C154.399 34.4606 154.485 34.3746 154.589 34.3058L154.795 34.1681C156.258 33.1702 158.995 31.2948 158.462 28.3011C158.358 27.7334 158.737 27.2 159.305 27.0968C159.873 26.9935 160.407 27.372 160.51 27.9398C161.268 32.2583 157.567 34.7875 155.966 35.8714L155.931 35.9059C155.053 37.2479 154.899 38.2802 154.761 39.2093C154.658 39.8631 154.571 40.4825 154.227 41.033C153.917 41.5492 153.384 41.9105 152.764 41.9965C152.007 42.117 151.249 41.8589 150.647 41.5148C149.166 42.2718 147.531 42.6847 145.861 42.6847ZM163.712 30.5206C163.471 30.5206 163.213 30.5034 162.972 30.469C162.404 30.383 162.025 29.8496 162.111 29.2818C162.197 28.7141 162.731 28.3355 163.299 28.4216C163.454 28.4388 166.191 28.8001 168.359 25.9956C167.636 26.0472 166.914 26.0128 166.208 25.8924C163.798 25.5139 160.217 23.9998 156.826 18.9931C156.499 18.5285 156.637 17.8747 157.102 17.565C157.567 17.2553 158.221 17.3758 158.531 17.8403C164.091 26.0644 169.754 23.6729 169.995 23.5697C170.511 23.3288 171.131 23.5697 171.355 24.0858C171.475 24.3611 171.475 24.6536 171.355 24.9289C169.891 28.2151 167.723 29.5571 166.156 30.0905C165.382 30.3658 164.555 30.5206 163.712 30.5206ZM134.122 42.1342C133.313 42.1342 132.521 41.9277 131.798 41.5664C129.87 40.6029 128.424 38.6587 127.564 37.179C126.582 35.4929 125.808 33.5487 125.498 31.9486C124.345 26.0472 126.187 23.3116 126.909 22.4857C127.305 22.0384 127.994 22.0556 128.373 22.5029L128.39 22.5202C128.579 22.7438 128.648 22.9675 128.648 23.174C128.665 23.4492 128.562 23.7245 128.39 23.931C127.977 24.4471 126.565 26.615 127.529 31.5529C128.028 34.1509 130.128 38.435 132.728 39.7254C133.588 40.19 134.638 40.19 135.499 39.7426C136.015 39.5018 136.635 39.7082 136.876 40.2244C137.117 40.7405 136.91 41.3427 136.411 41.6008C135.688 41.9449 134.914 42.1342 134.122 42.1342Z" fill="black"/>
</g>
<defs>
<clipPath id="clip0_419_1776">
<rect width="59.5047" height="29.0267" fill="white" transform="translate(136.816 67.3293)"/>
</clipPath>
<clipPath id="clip1_419_1776">
<rect width="171.05" height="127.095" fill="white" transform="translate(0.390625 0.15332)"/>
</clipPath>
</defs>
</svg>
