<?xml version="1.0" standalone="no"?>
<!DOCTYPE svg PUBLIC "-//W3C//DTD SVG 20010904//EN"
 "http://www.w3.org/TR/2001/REC-SVG-20010904/DTD/svg10.dtd">
<svg version="1.0" xmlns="http://www.w3.org/2000/svg"
 width="21.000000pt" height="27.000000pt" viewBox="0 0 21.000000 27.000000"
 preserveAspectRatio="xMidYMid meet">

<g transform="translate(0.000000,27.000000) scale(0.100000,-0.100000)"
fill="#000000" stroke="none">
<path d="M10 135 l0 -125 95 0 95 0 0 30 0 30 -60 0 c-47 0 -60 3 -60 15 0 10
10 15 30 15 28 0 30 3 30 35 0 32 -2 35 -30 35 -55 0 -31 19 28 22 56 3 57 3
60 36 l3 32 -95 0 -96 0 0 -125z"/>
</g>
</svg>
