<?xml version="1.0" standalone="no"?>
<!DOCTYPE svg PUBLIC "-//W3C//DTD SVG 20010904//EN"
 "http://www.w3.org/TR/2001/REC-SVG-20010904/DTD/svg10.dtd">
<svg version="1.0" xmlns="http://www.w3.org/2000/svg"
 width="248.000000pt" height="52.000000pt" viewBox="0 0 248.000000 52.000000"
 preserveAspectRatio="xMidYMid meet">

<g transform="translate(0.000000,52.000000) scale(0.100000,-0.100000)"
fill="#000000" stroke="none">
<path d="M0 260 l0 -260 1240 0 1240 0 0 260 0 260 -1240 0 -1240 0 0 -260z
m289 195 c30 -15 51 -59 51 -105 0 -38 -9 -42 -38 -20 -19 15 -40 20 -88 20
-67 0 -87 -16 -31 -24 17 -3 48 -8 68 -11 20 -3 45 -16 57 -28 27 -29 38 -99
23 -155 -17 -60 -50 -75 -158 -70 -78 3 -87 5 -109 31 -18 22 -24 40 -24 78
l0 49 42 -30 c42 -31 98 -40 128 -20 22 14 -1 27 -64 36 -35 4 -58 15 -78 34
-25 26 -28 35 -28 100 0 66 2 74 29 101 28 27 34 29 111 29 52 0 91 -5 109
-15z m139 -5 c46 -28 62 -73 62 -174 0 -103 4 -116 40 -116 35 0 40 13 40 104
0 92 22 169 55 190 22 15 105 23 105 11 0 -3 -8 -17 -17 -32 -13 -20 -18 -58
-23 -167 -6 -143 -15 -177 -50 -196 -24 -13 -180 -13 -214 0 -41 15 -49 46
-56 196 -5 109 -10 147 -23 167 -9 15 -17 29 -17 32 0 13 68 3 98 -15z m580
-63 c-8 -124 -43 -177 -118 -177 -54 0 -64 -12 -70 -82 l-5 -63 -49 -3 -48 -3
4 168 c4 177 12 212 52 231 11 6 70 11 130 11 l109 1 -5 -83z m293 47 c55 -55
49 -142 -13 -210 -19 -22 -19 -22 16 -93 l36 -71 -60 0 -60 0 -30 47 c-16 26
-33 56 -37 67 -6 15 -10 1 -13 -44 l-5 -65 -57 -3 -58 -3 0 206 0 207 125 -4
c125 -3 125 -3 156 -34z m373 -6 c-4 -24 -13 -48 -20 -54 -8 -6 -44 -14 -81
-17 -38 -3 -77 -9 -87 -13 -19 -7 -19 -8 0 -15 10 -4 33 -8 50 -8 27 -1 32 -5
35 -28 9 -64 1 -80 -42 -86 -47 -6 -54 -11 -46 -32 5 -12 25 -15 102 -15 l95
0 0 -50 0 -50 -160 0 -160 0 0 205 0 205 160 0 160 0 -6 -42z m138 25 c9 -10
31 -49 50 -87 l35 -69 26 57 c47 102 61 116 118 116 l49 0 0 -206 0 -205 -52
3 -53 3 -10 57 -10 58 -34 -66 -34 -67 -41 79 -41 79 -3 -72 -3 -73 -59 0 -60
0 0 205 0 205 53 0 c39 0 58 -5 69 -17z m628 -22 c0 -53 -20 -71 -78 -71 -26
0 -65 -5 -87 -11 -34 -10 -37 -13 -20 -20 11 -4 35 -8 53 -8 l32 -1 0 -55 c0
-52 -2 -55 -24 -55 -14 0 -37 -5 -51 -10 -23 -9 -25 -13 -15 -25 9 -11 35 -15
101 -15 l89 0 0 -50 0 -50 -155 0 -155 0 0 205 0 205 155 0 155 0 0 -39z"/>
<path d="M835 351 c-18 -7 -18 -8 -1 -18 20 -11 56 -6 56 7 0 6 -27 22 -33 19
-1 0 -11 -4 -22 -8z"/>
<path d="M1158 353 c-24 -6 -23 -19 2 -26 41 -11 80 13 44 27 -17 6 -19 6 -46
-1z"/>
</g>
</svg>
