<?xml version="1.0" standalone="no"?>
<!DOCTYPE svg PUBLIC "-//W3C//DTD SVG 20010904//EN"
 "http://www.w3.org/TR/2001/REC-SVG-20010904/DTD/svg10.dtd">
<svg version="1.0" xmlns="http://www.w3.org/2000/svg"
 width="660.000000pt" height="360.000000pt" viewBox="0 0 660.000000 360.000000"
 preserveAspectRatio="xMidYMid meet">

<g transform="translate(0.000000,360.000000) scale(0.100000,-0.100000)"
fill="#000000" stroke="none">
<path d="M0 2924 l0 -676 23 7 c12 4 50 9 83 12 59 5 63 4 98 -28 23 -22 42
-51 51 -82 14 -46 14 -48 -8 -56 -12 -4 -73 -26 -134 -47 -99 -34 -113 -42
-113 -61 0 -28 33 -63 59 -63 38 0 72 20 92 54 16 28 27 35 65 41 25 3 48 4
51 1 12 -11 -22 -69 -63 -111 -44 -43 -96 -68 -166 -80 -37 -6 -38 -7 -38 -49
0 -40 3 -45 33 -57 82 -35 200 -7 280 66 36 33 41 35 71 24 26 -9 43 -8 89 5
49 14 60 22 76 54 18 37 19 50 6 87 -4 11 7 -1 25 -28 34 -50 42 -54 133 -60
33 -2 62 -9 66 -15 3 -6 15 -10 26 -9 11 1 20 -2 21 -8 3 -34 54 -106 54 -77
0 5 7 13 16 16 15 6 15 4 3 -11 -8 -9 -22 -25 -31 -35 -19 -19 -24 -38 -10
-38 4 0 20 14 36 30 30 31 59 42 36 15 -7 -8 -8 -15 -3 -15 6 0 14 10 20 22
l10 22 5 -22 c4 -12 2 -22 -4 -22 -6 0 -5 -6 2 -15 7 -8 18 -15 26 -15 7 0 15
-9 19 -19 3 -11 12 -22 20 -25 8 -3 15 -11 15 -18 0 -9 -3 -9 -11 2 -9 12 -10
12 -5 -3 3 -10 6 -21 6 -23 0 -3 5 -2 10 1 5 3 10 20 10 37 0 40 5 34 14 -15
6 -31 4 -38 -6 -32 -7 3 -5 0 5 -8 9 -8 17 -26 17 -40 0 -14 11 -37 24 -50
l23 -23 -3 45 -3 46 8 -40 c5 -22 11 -59 14 -82 l5 -41 -48 -21 c-27 -12 -53
-21 -59 -21 -5 0 -13 21 -16 48 -4 26 -13 88 -22 137 -8 50 -15 98 -16 107 -1
9 -4 15 -8 13 -3 -3 -21 0 -39 5 -18 5 -30 7 -27 4 3 -3 -3 -14 -14 -25 -24
-24 -25 -95 -4 -224 8 -49 15 -95 15 -101 0 -5 -23 -19 -52 -30 -29 -10 -56
-20 -59 -22 -4 -2 -10 5 -12 15 -3 10 -4 7 -3 -7 3 -33 28 -80 60 -109 26 -24
29 -25 93 -14 81 14 106 36 106 90 0 21 -3 47 -7 58 -4 11 2 3 14 -18 30 -54
91 -90 146 -85 24 2 44 0 44 -4 0 -5 9 -8 20 -8 15 0 20 -7 20 -25 0 -14 5
-25 10 -25 6 0 10 -6 10 -14 0 -8 6 -16 13 -19 6 -2 1 -2 -13 0 l-25 4 25 -21
25 -20 -35 -1 -35 -1 30 -8 c30 -8 30 -8 -8 -9 -55 -2 -101 -24 -146 -71 -38
-41 -41 -42 -75 -30 -23 7 -45 8 -68 1 -33 -9 -33 -9 15 -10 26 -1 56 -7 67
-13 17 -11 22 -9 37 12 24 32 24 32 58 56 45 32 107 40 140 18 33 -22 49 -50
33 -60 -6 -4 -8 -3 -5 3 4 6 1 16 -6 22 -11 9 -14 3 -15 -30 -1 -23 1 -45 4
-51 4 -5 7 -42 9 -82 1 -40 6 -88 9 -107 6 -30 5 -32 -7 -16 -19 23 -23 22
-22 -10 0 -14 -5 -28 -11 -30 -7 -2 -18 37 -29 104 -9 59 -24 120 -31 136 -19
35 -55 36 -83 1 -26 -33 -27 -85 -5 -224 9 -55 14 -107 11 -114 -7 -16 -98
-49 -108 -39 -3 5 -16 68 -28 142 -12 73 -26 142 -32 152 -22 42 -94 11 -104
-44 -6 -28 12 -189 31 -278 5 -24 0 -28 -51 -49 -32 -13 -60 -19 -64 -14 -5 5
-16 63 -26 128 -15 101 -22 126 -48 163 -34 48 -97 84 -143 82 -24 -1 -22 -3
13 -9 78 -16 112 -50 135 -134 15 -57 23 -51 -137 -106 -66 -23 -124 -46 -129
-51 -16 -15 20 -78 48 -85 45 -11 96 21 116 72 7 16 21 23 60 28 29 4 55 5 58
2 3 -3 -3 -24 -13 -46 -40 -89 -144 -160 -235 -160 -76 0 -128 33 -157 100
-23 53 -20 166 6 225 12 27 18 46 15 42 -4 -4 -18 3 -31 15 l-23 21 0 -66 c0
-65 -1 -67 -26 -67 -39 0 -82 -36 -95 -80 -9 -30 -9 -64 0 -147 7 -59 15 -116
17 -126 4 -13 -5 -22 -38 -36 -90 -39 -82 -48 -102 103 -16 119 -21 137 -44
158 l-25 23 7 -25 c26 -87 29 -130 13 -190 -11 -38 -17 -97 -17 -165 0 -102 1
-105 23 -105 14 0 30 13 47 38 13 20 23 40 22 45 -1 4 3 7 9 7 5 0 7 5 3 11
-4 7 -1 10 7 7 8 -3 13 -10 12 -17 -2 -6 8 -18 22 -27 35 -23 101 -10 138 27
26 27 28 34 23 77 -12 90 -18 213 -12 237 8 33 30 32 45 -1 17 -39 100 -144
113 -144 6 0 9 -3 5 -6 -11 -12 48 -51 93 -62 30 -7 61 -8 94 -1 51 9 136 53
136 69 0 6 7 10 16 10 9 0 18 9 21 21 4 15 10 18 22 12 24 -12 139 -7 166 7
13 7 26 23 30 37 3 13 10 21 15 18 6 -4 7 2 1 17 -6 15 -5 31 1 42 8 15 8 17
-2 11 -10 -6 -12 -4 -7 8 3 9 -1 23 -10 32 -8 9 -13 18 -10 21 6 6 47 -50 47
-65 0 -6 3 -11 8 -11 4 0 12 -10 17 -22 7 -17 25 -27 64 -36 30 -8 60 -21 66
-29 8 -10 21 -14 38 -11 18 4 24 1 20 -9 -3 -7 -9 -13 -14 -13 -11 0 -11 -51
0 -69 5 -8 16 -11 30 -6 12 4 21 2 21 -4 0 -6 -24 -12 -57 -12 -54 -2 -55 -2
-18 -8 l40 -6 -42 -8 c-24 -4 -43 -11 -43 -16 0 -5 -13 -14 -30 -21 -16 -7
-30 -16 -30 -21 0 -5 -10 -9 -22 -9 -13 -1 -36 -7 -53 -15 l-30 -15 37 3 c21
2 38 -1 38 -5 0 -4 -5 -8 -11 -8 -8 0 -8 -5 1 -15 10 -12 10 -18 0 -30 -7 -8
-18 -15 -24 -14 -23 3 -36 -1 -36 -11 0 -5 21 -10 46 -10 33 0 43 3 38 13 -6
9 -4 9 7 0 7 -7 38 -13 70 -13 37 0 59 5 62 13 4 9 6 9 6 0 1 -10 137 -13 646
-13 592 0 649 1 678 17 45 24 163 24 200 0 25 -16 51 -17 275 -14 241 3 249 3
315 30 37 15 67 22 67 16 0 -6 18 5 40 24 54 46 113 62 168 48 48 -13 96 -51
118 -93 23 -45 27 -27 9 36 -9 30 -15 70 -13 87 3 29 8 33 68 55 38 13 67 19
70 14 4 -6 19 3 35 20 30 32 87 55 110 46 11 -4 15 -21 15 -56 0 -53 13 -61
23 -13 3 16 20 47 37 71 71 98 229 123 308 49 l24 -22 -7 37 c-13 67 -2 84 66
107 34 11 66 18 71 15 5 -4 22 5 36 19 15 13 37 30 49 36 27 14 98 14 123 1
15 -8 22 -4 38 25 25 42 88 75 141 75 50 0 92 -34 114 -92 24 -63 89 -319 83
-325 -2 -3 -34 -16 -69 -28 l-65 -24 -20 62 c-11 34 -30 103 -42 154 -25 105
-44 131 -77 108 -36 -25 -36 -58 2 -205 19 -76 35 -142 35 -147 0 -9 -129 -67
-135 -61 -8 8 -45 134 -60 204 -30 137 -58 164 -98 97 -18 -32 -18 -32 18
-183 21 -83 34 -154 30 -158 -3 -4 -21 -12 -38 -19 -25 -9 188 -12 956 -12
l987 -1 0 1800 0 1800 -1235 0 -1236 0 34 -30 c37 -32 73 -101 64 -124 -3 -8
-24 -20 -46 -26 -22 -6 -49 -22 -59 -35 -11 -14 -27 -25 -37 -25 -9 0 -14 -4
-11 -9 4 -5 -3 -7 -14 -4 -11 3 -17 9 -14 15 5 8 -45 1 -55 -9 -10 -8 38 -58
58 -61 30 -5 69 23 77 53 4 16 15 26 35 29 16 3 43 9 60 12 31 6 31 6 24 -27
-16 -73 -51 -112 -142 -158 -28 -14 -40 -26 -38 -38 1 -10 -2 -24 -8 -30 -19
-25 -55 -13 -110 38 -71 64 -101 130 -102 219 0 84 25 134 89 178 l48 32 -436
0 c-422 0 -436 -1 -436 -19 0 -12 -11 -23 -31 -30 -38 -13 -49 -7 -49 25 0 33
-33 32 -49 -2 -9 -21 -14 -24 -26 -14 -8 6 -23 9 -35 5 -17 -5 -19 -9 -9 -21
10 -12 9 -13 -6 -7 -14 5 -17 3 -13 -9 4 -9 1 -21 -5 -28 -10 -10 -7 -10 12 0
18 9 22 9 16 0 -14 -23 -90 -50 -141 -50 -68 0 -111 29 -144 97 l-25 53 -52 0
c-61 0 -60 1 -39 -96 12 -57 12 -62 -6 -73 -14 -9 -18 -21 -16 -43 3 -27 -1
-32 -35 -45 -21 -9 -40 -13 -43 -11 -2 3 -13 56 -24 119 -26 142 -41 181 -33
83 8 -99 -3 -155 -38 -204 -17 -23 -34 -39 -37 -35 -4 4 2 13 12 21 11 8 15
14 10 14 -6 0 -21 -12 -35 -27 -13 -14 -18 -23 -10 -18 9 5 12 4 7 -3 -3 -6
-22 -16 -41 -22 -31 -10 -39 -9 -67 11 -18 13 -36 28 -40 33 -15 22 -14 -3 2
-89 10 -50 19 -110 21 -133 l4 -44 -57 -23 c-52 -21 -58 -22 -62 -7 -3 10 -26
127 -51 262 -52 279 -61 319 -69 327 -18 19 -16 -23 9 -162 24 -137 26 -161
15 -198 -16 -54 -66 -100 -135 -126 -109 -41 -169 -23 -205 61 -25 58 -81 319
-71 330 4 4 32 16 63 27 l57 19 15 -66 c8 -37 19 -93 25 -125 13 -73 16 -77
50 -77 63 0 73 50 42 208 -16 85 -17 94 -2 102 10 6 -39 9 -141 10 -158 0
-158 0 -158 -23 0 -12 -8 -33 -17 -46 -10 -15 -11 -21 -3 -16 8 5 5 -5 -6 -24
-13 -22 -23 -29 -34 -24 -8 4 -40 8 -70 8 -30 1 -49 0 -42 -2 10 -4 10 -8 2
-19 -14 -15 1 -20 93 -28 106 -9 141 -54 154 -197 8 -93 -1 -127 -47 -181
-106 -121 -303 -115 -341 11 -11 36 -9 42 21 87 18 27 35 51 36 53 2 2 17 -8
34 -23 43 -35 92 -35 126 1 16 17 21 30 15 36 -6 6 -46 13 -91 17 -102 9 -127
26 -157 106 -37 100 -27 179 30 242 l20 22 -596 0 -597 0 0 -676z m3774 547
c10 -9 24 -28 31 -42 13 -25 75 -256 75 -279 0 -6 -13 -16 -30 -21 -18 -7 -30
-18 -31 -30 -1 -10 -2 -24 -3 -31 -1 -11 -47 -41 -52 -35 -1 1 -18 64 -38 141
-39 153 -48 171 -77 156 -39 -21 -41 -44 -14 -149 14 -55 25 -104 25 -109 0
-6 -13 -15 -30 -21 -29 -10 -34 -18 -31 -52 2 -15 -44 -47 -54 -37 -3 3 -20
61 -38 130 -18 69 -39 135 -48 148 l-16 24 -28 -26 -28 -26 23 -94 c12 -51 24
-101 27 -111 3 -13 -4 -20 -26 -28 -20 -7 -31 -18 -31 -30 0 -10 -6 -19 -12
-20 -10 0 -10 -2 0 -6 20 -8 14 -20 -17 -31 l-30 -11 -12 57 c-18 89 -20 91
-38 32 -9 -30 -22 -56 -28 -58 -7 -1 -13 3 -13 9 0 6 -13 0 -29 -13 -15 -12
-37 -29 -47 -36 -10 -7 -20 -24 -20 -38 -3 -35 -7 -38 -77 -42 -52 -3 -67 0
-97 20 -42 28 -77 94 -86 161 -8 56 -20 65 -63 43 -49 -26 -54 -46 -36 -138
10 -45 19 -87 22 -94 2 -7 -8 -19 -24 -28 -15 -8 -22 -15 -15 -16 7 0 10 -5 7
-10 -4 -6 -10 -8 -14 -6 -4 3 -8 -1 -8 -9 0 -8 5 -15 10 -15 16 0 4 -8 -35
-24 l-36 -15 -21 107 c-12 59 -33 155 -47 213 -13 58 -24 112 -24 120 0 9 24
23 65 36 41 13 65 17 65 10 0 -6 12 1 28 15 27 26 71 48 97 48 8 0 15 -18 20
-47 l7 -46 17 39 c37 81 152 144 237 128 43 -8 101 -56 120 -99 18 -42 17 -18
-2 37 -8 26 -14 61 -12 79 3 29 8 34 57 50 29 10 58 16 63 13 5 -3 19 3 31 14
47 42 97 53 151 32 22 -8 28 -6 42 15 43 65 147 90 198 46z m-1261 -415 c75
-32 109 -103 110 -227 0 -72 -4 -95 -24 -135 -13 -26 -31 -50 -39 -52 -11 -3
-12 -1 -2 6 7 5 10 17 6 28 -5 16 -4 16 5 4 7 -9 11 -10 11 -3 0 6 -4 14 -9
17 -12 8 -33 -19 -23 -29 4 -5 2 -5 -5 -1 -11 6 -73 -18 -73 -29 0 -2 5 -7 12
-11 7 -5 8 -3 3 6 -6 9 -4 11 5 5 10 -6 9 -11 -5 -22 -11 -7 -27 -13 -37 -13
-20 0 -59 19 -70 35 -13 17 -9 -26 12 -125 29 -141 29 -145 -26 -170 -26 -11
-52 -20 -59 -20 -7 0 -17 19 -23 43 -12 45 -110 547 -114 586 -3 20 4 26 51
42 30 11 62 17 72 14 9 -3 19 1 22 8 8 22 88 57 130 57 21 0 52 -6 70 -14z
m-824 -76 c32 -16 37 -72 13 -128 -16 -35 -26 -46 -39 -43 -29 6 -124 8 -118
3 3 -3 0 -11 -6 -18 -18 -22 0 -34 54 -34 150 0 207 -67 207 -241 0 -68 -15
-109 -55 -157 -96 -114 -293 -111 -342 5 -13 33 -12 36 22 94 38 61 49 70 59
44 3 -9 22 -23 41 -31 30 -12 39 -12 69 0 36 15 64 52 49 66 -4 4 -48 12 -97
18 -109 12 -133 28 -163 108 -46 124 -14 236 84 294 66 39 170 48 222 20z
m471 -137 c29 -152 36 -250 20 -297 -16 -49 -72 -93 -151 -117 -81 -25 -136
-15 -167 29 -26 36 -57 142 -81 275 l-18 107 61 19 c33 11 64 16 67 13 3 -4
16 -59 29 -122 12 -63 26 -123 31 -132 23 -42 99 -4 99 49 0 14 -9 75 -21 135
-11 60 -18 113 -14 116 7 8 94 40 111 41 6 1 21 -49 34 -116z m2300 68 c53
-41 103 -151 68 -151 -23 0 -98 -33 -98 -43 0 -16 -33 -36 -60 -37 -20 0 -22
2 -10 11 12 9 12 10 -3 5 -11 -3 -30 -9 -43 -12 -24 -6 -24 -7 -7 -35 10 -17
28 -32 40 -36 31 -7 72 21 85 58 5 16 16 29 23 29 7 0 33 3 59 6 55 8 57 1 21
-72 -29 -58 -89 -106 -153 -124 -24 -6 -46 -18 -49 -26 -10 -26 -52 -15 -97
26 -59 54 -89 126 -90 210 0 95 34 154 109 193 82 42 148 41 205 -2z m-397
-103 c31 -16 48 -56 87 -203 l37 -145 -45 -20 c-24 -11 -48 -20 -53 -20 -4 0
-14 -9 -22 -19 -12 -18 -16 -9 -41 92 -15 62 -35 129 -44 150 l-17 39 -28 -22
c-34 -27 -34 -47 -2 -170 14 -52 25 -100 25 -106 0 -6 -25 -19 -56 -30 -36
-12 -59 -26 -64 -39 -6 -17 -9 -14 -18 20 -6 22 -22 85 -37 140 -32 123 -42
136 -78 99 -15 -15 -27 -30 -27 -34 0 -5 11 -56 25 -114 14 -58 25 -112 25
-119 0 -7 -24 -21 -52 -31 -29 -10 -58 -25 -64 -33 -10 -11 -13 -4 -19 36 -4
28 -11 51 -16 51 -4 0 -13 -18 -19 -40 -6 -22 -15 -40 -21 -40 -6 0 -24 -14
-42 -30 -18 -17 -53 -38 -78 -48 -26 -9 -46 -20 -45 -23 0 -3 -5 -13 -12 -22
-11 -13 -10 -16 5 -20 10 -3 -4 -5 -31 -6 -101 -2 -164 67 -182 197 -6 47 -9
52 -31 52 -28 0 -83 -50 -83 -74 0 -9 9 -57 20 -107 11 -50 18 -94 15 -99 -3
-5 -30 -17 -60 -26 -31 -10 -56 -24 -58 -33 -1 -9 -11 27 -21 79 -10 52 -29
137 -42 188 -14 52 -24 108 -22 125 3 27 9 32 58 49 30 10 60 16 67 14 6 -3
17 2 24 10 16 20 46 36 85 44 35 8 44 -4 44 -64 0 -27 3 -24 28 25 46 92 162
147 251 120 47 -14 105 -76 120 -129 10 -35 10 -35 6 -5 -2 18 -14 53 -25 77
-21 46 -25 83 -12 102 9 15 109 47 121 40 5 -4 21 5 34 18 35 35 98 52 143 38
33 -10 37 -9 67 24 51 56 121 72 180 42z m-3716 -84 c-3 -3 -12 -4 -19 -1 -8
3 -5 6 6 6 11 1 17 -2 13 -5z m2183 -78 c0 -3 -4 -8 -10 -11 -5 -3 -10 -1 -10
4 0 6 5 11 10 11 6 0 10 -2 10 -4z m289 -296 c20 -13 44 -46 58 -77 22 -48 24
-65 21 -148 -3 -90 -5 -96 -32 -122 -17 -16 -23 -19 -16 -8 14 20 14 20 -7 1
-13 -10 -20 -23 -17 -28 3 -4 2 -8 -3 -7 -20 3 -34 -2 -28 -11 4 -6 -1 -7 -11
-3 -11 4 -15 3 -11 -4 5 -7 0 -9 -11 -6 -11 2 -25 -2 -33 -10 -15 -14 -41 -15
-73 -2 -15 7 -17 4 -13 -11 17 -57 38 -190 34 -210 -2 -13 0 -21 4 -18 5 3 9
-5 9 -18 0 -19 -10 -26 -60 -42 -34 -10 -63 -17 -65 -15 -7 8 -135 662 -130
667 12 13 111 41 125 37 10 -3 25 4 36 16 48 54 161 64 223 19z m-2507 -54
c-2 -23 -1 -27 7 -16 8 12 12 12 29 -3 21 -19 52 -14 52 8 0 8 4 17 10 20 7 4
7 -3 0 -20 -14 -37 -12 -95 5 -205 15 -89 15 -95 -2 -108 -22 -16 -91 -37 -98
-30 -7 7 -44 371 -39 380 3 4 12 6 22 5 14 -1 17 -8 14 -31z m199 7 c13 -17
13 -17 -6 -3 -11 8 -22 16 -24 17 -2 2 0 3 6 3 6 0 17 -8 24 -17z m1440 -14
c26 -13 29 -68 6 -126 -21 -55 -26 -59 -56 -44 -39 21 -75 19 -98 -6 -40 -42
-32 -47 80 -57 126 -10 168 -61 175 -207 5 -102 -5 -141 -53 -197 -76 -88
-201 -112 -292 -56 -37 23 -50 38 -57 65 -8 32 -5 41 30 93 36 55 38 57 53 38
40 -50 99 -55 142 -13 53 54 41 66 -83 80 -127 15 -145 30 -174 141 -30 114 3
204 94 265 62 41 179 53 233 24z m-1788 4 c-7 -2 -19 -2 -25 0 -7 3 -2 5 12 5
14 0 19 -2 13 -5z m2272 -183 c45 -237 28 -308 -89 -365 -64 -31 -150 -42
-186 -23 -39 20 -77 110 -105 252 -14 71 -25 138 -23 148 2 14 19 26 53 39 28
10 55 19 61 19 6 0 22 -59 36 -130 14 -72 31 -137 38 -145 15 -18 49 -19 72
-1 29 22 30 64 4 196 -13 69 -23 126 -23 126 14 10 124 40 128 35 4 -3 19 -71
34 -151z m-2176 106 c-3 -3 -11 5 -18 17 -13 21 -12 21 5 5 10 -10 16 -20 13
-22z m702 17 c13 -16 12 -17 -3 -4 -10 7 -18 15 -18 17 0 8 8 3 21 -13z m3799
-1 c38 -20 100 -112 100 -147 0 -17 -10 -25 -42 -36 -24 -7 -56 -25 -73 -40
-33 -29 -72 -42 -81 -28 -5 8 -41 4 -52 -6 -10 -9 32 -66 53 -71 32 -8 74 19
88 57 8 19 20 30 39 34 15 3 42 8 58 11 39 7 40 -13 3 -87 -34 -65 -85 -103
-163 -120 -30 -7 -59 -16 -65 -21 -17 -15 -35 -8 -80 33 -102 94 -117 275 -32
368 33 36 115 71 167 71 25 0 61 -8 80 -18z m-4211 -62 c2 8 10 -1 19 -20 8
-19 15 -41 13 -47 -1 -7 3 -13 9 -13 6 0 9 4 5 9 -12 20 14 20 28 0 14 -20 16
-20 26 -2 9 16 10 15 11 -8 0 -32 -21 -52 -45 -42 -12 4 -16 3 -12 -4 6 -10
-21 -23 -48 -23 -5 0 -11 15 -12 33 -1 17 -4 64 -6 102 -4 47 -3 58 3 35 4
-19 8 -28 9 -20z m3819 -60 c42 -26 62 -71 103 -233 36 -144 38 -134 -41 -164
-25 -9 -48 -22 -52 -27 -8 -13 -10 -9 -43 114 -14 52 -30 111 -35 131 -10 35
-40 74 -40 51 0 -6 -9 -13 -19 -17 -31 -10 -31 -40 0 -166 16 -66 29 -126 29
-132 0 -7 -21 -19 -47 -26 -25 -8 -54 -22 -64 -32 -10 -10 -20 -15 -22 -11 -2
4 -19 66 -37 139 -17 73 -37 139 -44 148 -15 21 -43 10 -61 -24 -12 -25 -11
-39 15 -142 16 -63 30 -121 30 -129 0 -9 -26 -25 -65 -41 l-64 -26 -11 53 c-6
30 -13 54 -15 54 -2 0 -10 -20 -18 -44 -26 -77 -129 -154 -209 -155 -29 -1
-36 -4 -32 -16 4 -9 0 -16 -7 -16 -8 -1 0 -5 16 -10 24 -7 20 -8 -21 -5 -89 5
-148 69 -160 173 -10 88 -12 93 -41 93 -18 0 -37 -11 -56 -32 -32 -37 -32 -48
2 -196 l19 -82 -42 -18 c-93 -42 -91 -43 -110 56 -9 48 -28 125 -41 172 -14
47 -26 102 -27 124 l-3 38 65 24 c41 15 66 19 69 13 2 -6 18 4 36 21 22 21 46
33 74 37 l41 6 0 -47 c0 -51 14 -62 23 -17 19 94 172 174 270 142 35 -12 107
-80 107 -103 0 -6 3 -9 6 -6 3 3 -4 27 -16 53 -12 25 -20 61 -18 78 3 29 8 34
63 53 33 12 63 20 68 17 4 -2 21 7 38 21 49 42 128 54 164 25 7 -5 22 6 39 28
29 36 95 72 131 73 11 0 35 -9 53 -20z m-3561 -6 c-3 -3 -12 -4 -19 -1 -8 3
-5 6 6 6 11 1 17 -2 13 -5z m2053 -138 c0 -2 -8 -10 -17 -17 -16 -13 -17 -12
-4 4 13 16 21 21 21 13z m-1832 -193 c-10 -2 -26 -2 -35 0 -10 3 -2 5 17 5 19
0 27 -2 18 -5z m35 -68 c-3 -9 -8 -14 -10 -11 -3 3 -2 9 2 15 9 16 15 13 8 -4z
m14 -52 c-3 -10 -5 -4 -5 12 0 17 2 24 5 18 2 -7 2 -21 0 -30z m80 -30 c-2
-16 -4 -5 -4 22 0 28 2 40 4 28 2 -13 2 -35 0 -50z m-50 25 c-3 -8 -6 -5 -6 6
-1 11 2 17 5 13 3 -3 4 -12 1 -19z m70 -10 c-3 -8 -6 -5 -6 6 -1 11 2 17 5 13
3 -3 4 -12 1 -19z m1902 8 c39 -21 87 -77 101 -121 8 -23 11 -71 8 -126 l-4
-88 -50 -45 c-57 -53 -119 -80 -168 -74 -20 2 -36 1 -36 -3 0 -4 9 -49 19
-100 37 -181 37 -176 -6 -194 -69 -29 -89 -30 -97 -3 -6 23 -136 653 -136 661
0 9 123 47 132 41 5 -3 19 3 31 14 56 51 148 68 206 38z m-1894 -96 c13 -27
14 -32 2 -20 -8 8 -18 26 -22 40 -9 32 -2 25 20 -20z m1024 19 c27 -10 31 -15
31 -49 0 -21 -9 -59 -20 -85 l-20 -47 -36 21 c-37 22 -70 28 -59 11 3 -5 -2
-10 -12 -10 -22 -1 -57 -46 -50 -64 3 -8 34 -16 84 -20 91 -8 151 -34 175 -74
25 -42 39 -148 29 -212 -11 -65 -20 -90 -32 -90 -5 0 -8 -6 -7 -12 2 -7 -2
-12 -9 -11 -7 2 -10 -3 -7 -11 7 -17 -64 -68 -120 -86 -54 -17 -119 -7 -174
27 -63 39 -73 68 -42 127 44 83 46 84 78 53 16 -15 45 -30 65 -34 31 -5 40 -1
67 25 34 34 40 78 13 86 -10 3 -45 8 -78 11 -137 14 -164 33 -195 133 -41 130
6 242 125 301 45 23 143 28 194 10z m504 -171 c15 -79 27 -166 27 -194 0 -110
-46 -172 -156 -214 -16 -7 -23 -7 -19 0 3 6 14 10 23 11 14 0 13 2 -3 9 -18 8
-18 9 5 9 20 1 22 3 10 11 -9 6 -18 6 -24 0 -6 -6 -21 -10 -36 -11 l-25 -1 25
-8 c23 -7 23 -8 -10 -10 l-35 -2 30 -8 30 -7 -40 -8 c-55 -11 -103 16 -133 76
-25 51 -70 241 -74 313 l-3 49 63 22 62 23 5 -21 c2 -12 14 -71 26 -132 24
-124 38 -155 74 -155 31 0 65 33 65 63 0 13 -12 81 -26 151 -14 70 -23 131
-19 134 9 9 96 40 116 41 12 1 21 -29 42 -141z m2347 122 c20 -5 52 -27 71
-47 36 -38 74 -117 64 -132 -2 -5 -29 -19 -60 -31 -30 -12 -55 -26 -55 -30 0
-12 -58 -33 -76 -26 -12 5 -46 -6 -62 -20 -10 -8 35 -63 55 -69 35 -8 80 19
88 54 7 32 14 36 88 47 42 6 47 4 47 -12 0 -11 -11 -42 -24 -69 -24 -52 -71
-96 -129 -120 -43 -18 -146 -21 -177 -6 -58 28 -116 167 -106 253 11 100 77
179 176 209 35 10 60 10 100 -1z m-3785 -40 c2 -4 -7 -5 -20 -2 -14 2 -27 8
-30 12 -2 4 7 5 20 2 14 -2 27 -8 30 -12z m3411 -96 c21 -10 43 -32 53 -53 18
-35 91 -294 91 -323 0 -9 -22 -24 -52 -36 -29 -11 -60 -23 -69 -27 -12 -4 -18
0 -22 17 -22 98 -71 267 -84 287 l-15 24 -24 -28 c-31 -36 -30 -61 7 -207 16
-67 26 -124 22 -128 -4 -5 -36 -19 -70 -33 l-63 -25 -10 37 c-5 20 -22 83 -36
141 -25 99 -45 150 -62 150 -4 0 -18 -16 -31 -35 l-24 -36 32 -135 c18 -74 31
-141 28 -148 -3 -8 -33 -23 -66 -34 l-60 -20 -11 55 c-13 60 -21 60 -40 -2
-11 -34 -49 -80 -102 -121 -23 -18 -80 -34 -130 -35 -39 -2 -46 -5 -43 -21 5
-22 -7 -23 -45 -3 -60 31 -95 101 -106 211 -8 74 -18 79 -71 38 -53 -41 -55
-57 -23 -196 15 -67 27 -124 27 -125 -7 -6 -131 -52 -134 -49 -2 2 -14 55 -27
117 -13 63 -33 142 -45 176 -12 34 -21 82 -21 106 l0 43 62 22 c41 15 64 19
66 12 2 -6 21 5 42 24 35 31 94 55 107 43 3 -3 8 -30 12 -59 l7 -53 13 43 c23
83 133 162 223 162 40 0 94 -24 123 -56 29 -31 28 -31 15 16 -18 63 -6 85 59
109 32 12 65 19 74 16 8 -4 17 1 20 9 16 41 132 70 180 45 17 -9 22 -9 26 2 8
25 71 78 104 88 46 13 55 13 93 -5z m-1545 -157 c-10 -9 -11 -8 -5 6 3 10 9
15 12 12 3 -3 0 -11 -7 -18z m-1796 -187 c-3 -5 -1 -11 5 -15 5 -3 10 -11 10
-17 0 -6 -9 1 -20 15 -24 30 -25 38 -5 31 8 -4 13 -10 10 -14z m72 -97 c-3
-10 -5 -4 -5 12 0 17 2 24 5 18 2 -7 2 -21 0 -30z m-44 -134 c-4 -4 -9 18 -10
49 l-1 57 9 -49 c6 -27 6 -53 2 -57z m2006 87 c44 -23 89 -81 106 -138 37
-125 -1 -240 -102 -307 -41 -28 -55 -32 -101 -29 -28 2 -52 0 -52 -4 0 -5 11
-61 25 -125 35 -163 35 -158 -30 -182 -31 -12 -60 -21 -65 -21 -14 0 -12 17 3
23 7 4 6 6 -5 6 -12 1 -20 17 -28 58 -30 148 -121 580 -126 599 -6 23 -6 23
84 54 34 13 52 15 52 8 0 -7 12 0 28 15 56 53 152 73 211 43z m-1955 -51 c5
-22 4 -26 -4 -15 -5 8 -10 24 -10 34 0 26 6 18 14 -19z m1075 -34 c27 -15 27
-53 0 -124 l-21 -56 -27 25 c-16 15 -32 22 -41 17 -8 -3 -25 -6 -37 -6 -13 1
-21 -2 -19 -6 5 -8 -20 -31 -28 -25 -3 2 -4 1 -1 -2 2 -4 0 -16 -6 -26 -17
-31 0 -39 96 -49 125 -13 165 -39 190 -123 17 -57 20 -182 4 -191 -6 -4 -8
-13 -5 -21 3 -8 0 -13 -6 -11 -6 1 -13 -4 -16 -12 -3 -8 0 -11 7 -7 17 11 13
-5 -10 -38 -44 -64 -138 -117 -203 -115 -17 1 -23 3 -14 6 40 10 -16 35 -105
47 -25 3 -57 33 -57 53 0 13 51 115 66 132 2 2 19 -10 39 -28 62 -54 142 -32
161 44 10 41 -13 56 -107 66 -107 12 -147 33 -177 91 -94 182 37 388 239 374
31 -2 66 -9 78 -15z m-1121 -68 c-13 -12 -15 -10 -15 17 0 20 3 26 9 18 5 -9
8 -7 9 7 1 16 3 16 6 -4 3 -13 -2 -30 -9 -38z m1627 -100 c16 -82 28 -173 28
-204 0 -65 -19 -123 -39 -115 -17 7 -28 -10 -13 -20 8 -4 9 -3 5 4 -4 7 -5 12
-2 12 16 0 12 -20 -7 -36 -18 -16 -19 -16 -8 -1 11 14 11 17 -2 17 -9 0 -18
-4 -22 -9 -10 -17 -117 -52 -161 -53 -50 -1 -54 -4 -21 -19 18 -8 17 -9 -12
-4 -45 7 -56 17 -85 79 -21 41 -92 344 -83 352 1 1 32 14 68 27 l67 25 27
-139 c36 -182 59 -215 119 -168 33 26 33 53 1 205 -14 65 -25 124 -23 132 2
12 102 59 129 61 3 1 19 -65 34 -146z m2412 116 c42 -16 83 -58 109 -114 28
-60 30 -74 7 -82 -10 -3 -45 -18 -78 -34 -33 -15 -77 -30 -97 -34 -57 -11 -71
-25 -59 -58 24 -63 102 -61 129 3 16 36 21 40 77 52 33 8 62 10 64 5 7 -18
-11 -76 -38 -119 -23 -36 -44 -53 -95 -78 -60 -30 -72 -32 -133 -27 -63 5 -70
8 -100 43 -39 44 -68 119 -78 194 -12 98 43 190 140 236 54 26 107 30 152 13z
m-4018 -57 c-1 -15 -2 -15 -6 1 -2 9 -9 14 -15 11 -7 -4 -8 -2 -4 5 10 15 26
4 25 -17z m-32 -34 c-3 -7 -5 -2 -5 12 0 14 2 19 5 13 2 -7 2 -19 0 -25z m-29
-42 c-15 -18 -27 7 -16 34 l11 25 7 -25 c4 -14 3 -29 -2 -34z m-33 -6 c3 -5 1
-10 -4 -10 -6 0 -11 5 -11 10 0 6 2 10 4 10 3 0 8 -4 11 -10z m12 -426 c-3 -3
-12 -4 -19 -1 -8 3 -5 6 6 6 11 1 17 -2 13 -5z m-173 -119 c-3 -22 -1 -35 6
-35 6 0 8 -5 5 -11 -14 -22 -33 23 -23 53 14 38 19 35 12 -7z m31 -15 c3 -5 1
-10 -4 -10 -6 0 -11 5 -11 10 0 6 2 10 4 10 3 0 8 -4 11 -10z"/>
<path d="M3034 3134 c-18 -14 -18 -15 6 -8 31 8 50 24 29 24 -8 0 -24 -7 -35
-16z"/>
<path d="M3271 3074 c0 -11 3 -14 6 -6 3 7 2 16 -1 19 -3 4 -6 -2 -5 -13z"/>
<path d="M3136 3012 c-3 -5 -26 -8 -51 -7 -50 1 -63 -8 -45 -30 21 -26 92 -10
105 23 6 17 0 28 -9 14z"/>
<path d="M2384 2870 c-30 -12 -57 -58 -50 -85 3 -12 19 -28 35 -35 39 -16 78
2 105 49 l20 34 -28 23 c-28 25 -47 28 -82 14z"/>
<path d="M4290 2808 c-23 -38 -15 -44 35 -28 44 14 52 28 29 45 -29 22 -43 18
-64 -17z"/>
<path d="M3305 2450 c-22 -24 -8 -26 40 -6 42 18 44 26 7 26 -16 0 -37 -9 -47
-20z"/>
<path d="M3558 2405 c-6 -30 -3 -43 8 -33 3 4 4 19 2 35 l-3 28 -7 -30z"/>
<path d="M3302 2333 c29 -61 32 -63 65 -63 36 0 73 29 73 56 0 12 -3 14 -12 6
-7 -6 -31 -11 -53 -12 -58 -3 -67 -1 -60 10 3 6 1 10 -5 10 -7 0 -10 -3 -8 -7z"/>
<path d="M2629 2161 c-17 -17 -29 -40 -29 -55 0 -30 42 -66 77 -66 35 0 83 51
83 88 0 64 -79 84 -131 33z"/>
<path d="M292 2300 c0 -14 2 -19 5 -12 2 6 2 18 0 25 -3 6 -5 1 -5 -13z"/>
<path d="M4608 2115 c-21 -28 -24 -59 -5 -52 6 3 32 13 56 23 l44 17 -23 19
c-30 24 -51 22 -72 -7z"/>
<path d="M630 2059 c0 -5 5 -7 10 -4 6 3 10 8 10 11 0 2 -4 4 -10 4 -5 0 -10
-5 -10 -11z"/>
<path d="M3611 1749 c-19 -20 -27 -39 -18 -39 21 0 97 35 94 44 -7 21 -54 18
-76 -5z"/>
<path d="M3857 1733 c7 -53 -5 -69 -58 -78 -58 -10 -40 -18 20 -10 l51 7 -1
41 c0 23 -4 51 -9 62 -6 14 -7 6 -3 -22z"/>
<path d="M3724 1623 c-28 -18 -120 -30 -110 -14 4 6 2 11 -3 11 -27 0 13 -68
44 -76 41 -10 102 43 93 80 -2 11 -7 11 -24 -1z"/>
<path d="M2914 1446 c-41 -41 -44 -77 -9 -111 34 -35 78 -33 116 4 37 38 39
82 4 116 -34 35 -70 32 -111 -9z"/>
<path d="M4941 1394 c-12 -15 -21 -35 -21 -46 0 -21 10 -20 78 8 37 15 39 24
14 47 -26 24 -47 21 -71 -9z"/>
<path d="M4151 1070 c0 -3 6 -27 14 -54 20 -65 13 -80 -38 -95 -23 -7 -58 -22
-77 -33 -37 -21 -64 -30 -92 -30 -10 1 -18 -5 -18 -11 0 -7 -7 -3 -15 7 -22
29 -18 6 5 -31 16 -27 26 -33 53 -33 36 0 69 28 81 66 5 17 20 24 68 34 l61
12 -6 51 c-4 42 -33 136 -36 117z"/>
<path d="M3920 1015 c-14 -8 -21 -14 -17 -15 4 0 3 -9 -3 -20 -13 -24 -7 -25
53 -4 52 18 67 32 46 45 -20 13 -50 10 -79 -6z"/>
<path d="M3224 711 c-44 -27 -61 -79 -39 -120 38 -74 127 -66 161 15 12 29 12
39 0 68 -24 57 -68 70 -122 37z"/>
<path d="M2395 690 c3 -5 8 -10 11 -10 2 0 4 5 4 10 0 6 -5 10 -11 10 -5 0 -7
-4 -4 -10z"/>
<path d="M5297 648 c-20 -16 -40 -69 -30 -79 11 -10 113 31 113 46 0 16 -33
45 -51 45 -9 0 -23 -6 -32 -12z"/>
<path d="M1447 3569 c4 -13 8 -18 11 -10 2 7 -1 18 -6 23 -8 8 -9 4 -5 -13z"/>
<path d="M2119 3525 c-14 -8 -32 -28 -39 -46 -12 -28 -12 -33 5 -45 31 -23 79
-17 109 12 14 15 26 35 26 44 0 37 -60 58 -101 35z"/>
<path d="M3990 3468 c-13 -12 -19 -23 -13 -25 18 -6 85 26 78 37 -10 17 -40
11 -65 -12z"/>
<path d="M2267 3353 c-10 -9 -9 -23 1 -23 5 0 9 7 9 15 0 17 -1 18 -10 8z"/>
<path d="M44 2184 c-16 -9 -32 -21 -36 -27 -8 -12 -11 -67 -5 -67 4 0 103 33
135 45 20 7 -3 41 -37 53 -22 8 -36 7 -57 -4z"/>
<path d="M838 1753 c7 -3 16 -2 19 1 4 3 -2 6 -13 5 -11 0 -14 -3 -6 -6z"/>
<path d="M730 1711 c-31 -7 -90 -43 -90 -53 0 -4 -7 -5 -15 -2 -10 4 -15 0
-15 -14 0 -31 16 -35 28 -7 13 29 80 65 120 65 16 0 43 -5 61 -11 45 -16 52
-2 8 16 -38 16 -55 17 -97 6z"/>
<path d="M930 1706 c0 -2 7 -7 16 -10 8 -3 12 -2 9 4 -6 10 -25 14 -25 6z"/>
<path d="M575 1640 c-3 -5 -2 -10 4 -10 5 0 13 5 16 10 3 6 2 10 -4 10 -5 0
-13 -4 -16 -10z"/>
<path d="M492 1548 c11 -86 19 -97 11 -18 -3 36 -9 69 -13 73 -4 4 -3 -21 2
-55z"/>
<path d="M656 1568 c-20 -28 -20 -94 -1 -222 12 -80 13 -101 3 -108 -24 -15
-98 -41 -104 -36 -3 3 -13 60 -24 126 -19 127 -21 131 -83 194 -26 26 -46 38
-65 37 -27 -1 -26 -1 4 -10 53 -15 114 -103 114 -164 0 -5 -58 -30 -130 -54
-71 -25 -135 -48 -141 -52 -17 -10 10 -60 42 -78 22 -12 29 -12 54 0 16 8 39
28 50 46 15 24 32 35 67 43 26 7 52 10 57 8 14 -4 -25 -87 -57 -121 -15 -16
-47 -39 -72 -52 -157 -79 -281 -4 -280 169 1 56 19 118 44 145 9 10 16 21 16
26 0 5 -7 0 -15 -11 -14 -19 -14 -19 -30 4 -9 12 -19 22 -23 22 -4 0 -5 -29
-4 -65 3 -53 1 -64 -10 -60 -8 3 -27 1 -41 -4 l-27 -11 0 -240 c0 -254 3 -267
45 -220 15 16 16 30 11 92 -12 134 -10 183 9 212 l18 28 15 -29 c43 -81 129
-175 179 -194 38 -14 104 -14 149 1 46 15 61 25 116 75 34 32 43 36 59 27 10
-7 28 -12 39 -12 39 0 107 24 118 41 12 19 15 90 8 194 -3 49 -2 59 3 35 7
-28 9 -30 9 -10 3 47 -26 221 -38 235 -19 23 -66 19 -84 -7z"/>
<path d="M298 1553 c7 -3 16 -2 19 1 4 3 -2 6 -13 5 -11 0 -14 -3 -6 -6z"/>
<path d="M271 1456 c-36 -20 -70 -96 -43 -96 15 0 137 42 146 51 12 10 -39 59
-61 59 -10 -1 -29 -7 -42 -14z"/>
<path d="M1090 1426 c0 -2 7 -6 15 -10 8 -3 15 -1 15 4 0 6 -7 10 -15 10 -8 0
-15 -2 -15 -4z"/>
<path d="M1282 1010 c7 -10 14 -18 15 -16 6 6 -9 36 -18 36 -5 0 -4 -9 3 -20z"/>
<path d="M1256 935 c-9 -26 -7 -32 5 -12 6 10 9 21 6 23 -2 3 -7 -2 -11 -11z"/>
<path d="M850 900 c-10 -7 -11 -10 -2 -10 6 0 12 -8 12 -17 1 -17 1 -17 11 0
13 23 0 40 -21 27z"/>
<path d="M1258 868 c2 -10 6 -18 7 -18 1 0 5 8 7 18 3 11 0 19 -7 19 -7 0 -10
-8 -7 -19z"/>
<path d="M732 835 c0 -16 2 -22 5 -12 2 9 2 23 0 30 -3 6 -5 -1 -5 -18z"/>
<path d="M511 697 c-25 -12 -65 -87 -53 -99 7 -7 140 37 155 51 11 11 -39 61
-60 60 -10 0 -29 -6 -42 -12z"/>
<path d="M157 653 c-2 -4 -1 -17 3 -27 6 -19 7 -19 14 -1 7 19 -8 44 -17 28z"/>
<path d="M4484 278 c26 -96 27 -100 15 -114 -6 -8 -18 -14 -26 -14 -7 0 -47
-16 -89 -36 -41 -19 -82 -34 -92 -33 -44 4 -53 -1 -46 -23 24 -82 123 -75 148
9 6 18 19 25 67 34 33 6 61 14 63 18 7 11 -12 106 -28 141 -9 19 -14 27 -12
18z"/>
<path d="M4257 248 c-15 -5 -25 -14 -22 -18 3 -5 1 -11 -5 -15 -12 -7 -14 -48
-2 -43 4 2 31 12 60 22 53 20 62 32 40 54 -14 14 -33 14 -71 0z"/>
<path d="M4018 138 c-2 -3 -10 -8 -18 -10 -22 -5 -52 -73 -44 -103 6 -23 10
-25 66 -25 l61 0 -7 52 c-3 29 -6 62 -6 73 0 15 -7 20 -25 20 -14 0 -26 -3
-27 -7z"/>
<path d="M4522 69 c-5 -18 -13 -42 -17 -51 -6 -15 -2 -18 25 -18 32 0 32 0 25
38 -11 61 -22 71 -33 31z"/>
<path d="M981 40 c1 -42 1 -43 10 -18 7 18 7 33 0 45 -8 14 -10 9 -10 -27z"/>
<path d="M1011 14 c0 -11 3 -14 6 -6 3 7 2 16 -1 19 -3 4 -6 -2 -5 -13z"/>
<path d="M781 11 c-14 -4 9 -7 55 -7 49 -1 71 2 59 7 -24 9 -81 10 -114 0z"/>
</g>
</svg>
