<?xml version="1.0" standalone="no"?>
<!DOCTYPE svg PUBLIC "-//W3C//DTD SVG 20010904//EN"
 "http://www.w3.org/TR/2001/REC-SVG-20010904/DTD/svg10.dtd">
<svg version="1.0" xmlns="http://www.w3.org/2000/svg"
 width="300.000000pt" height="203.000000pt" viewBox="0 0 300.000000 203.000000"
 preserveAspectRatio="xMidYMid meet">

<g transform="translate(0.000000,203.000000) scale(0.100000,-0.100000)"
fill="#000000" stroke="none">
<path d="M645 2022 l-640 -2 3 -445 2 -445 23 0 c12 0 132 -7 267 -14 184 -11
320 -12 545 -6 165 5 300 9 301 9 0 1 6 19 13 41 15 52 28 55 316 75 127 9
412 29 635 45 223 17 426 30 452 30 80 0 78 6 78 -300 l0 -270 -25 -16 c-30
-20 -219 -13 -1269 45 -125 7 -162 12 -175 25 -13 13 -16 38 -16 122 l0 106
-45 -6 c-181 -22 -217 -29 -257 -48 -53 -25 -83 -69 -82 -118 l2 -35 6 40 c4
22 13 50 21 62 17 26 89 59 148 69 39 6 42 4 61 -27 48 -78 36 -153 -36 -230
l-45 -48 42 -21 c53 -27 80 -55 80 -81 0 -25 -9 -24 -220 6 -58 8 -148 15
-200 15 -52 0 -212 7 -355 15 -142 8 -260 13 -262 12 -1 -2 -3 -142 -3 -312
l-2 -310 1494 0 1493 0 0 1010 0 1009 -855 1 c-470 0 -1143 -1 -1495 -3z"/>
<path d="M2180 1135 c0 -11 12 -15 50 -15 l50 0 0 -121 c0 -118 0 -120 22
-117 21 3 22 7 23 123 l0 120 43 3 c23 2 42 7 42 13 0 5 -50 9 -115 9 -96 0
-115 -3 -115 -15z"/>
<path d="M1984 1088 c3 -29 6 -90 6 -135 0 -67 3 -83 15 -83 17 0 18 5 15 68
l-2 43 48 -3 48 -3 11 -50 c7 -33 16 -51 27 -53 14 -3 15 4 11 40 -3 24 -12
54 -20 66 -13 21 -13 26 1 41 22 25 20 77 -4 101 -16 16 -33 20 -91 20 l-72 0
7 -52z m134 4 c14 -19 8 -62 -11 -74 -7 -4 -29 -8 -49 -8 l-38 0 0 49 c0 39 4
51 18 54 27 8 66 -2 80 -21z"/>
<path d="M1464 1116 c-73 -32 -51 -119 35 -145 45 -13 63 -36 54 -69 -12 -46
-87 -36 -99 13 -3 14 -13 25 -21 25 -11 0 -14 -7 -9 -27 16 -65 106 -87 146
-36 37 47 11 98 -65 127 -48 19 -62 43 -45 76 21 39 90 13 90 -34 0 -21 24
-16 28 6 4 19 -36 65 -63 72 -11 3 -34 -1 -51 -8z"/>
<path d="M1590 1115 c-11 -13 -7 -15 29 -15 l41 0 0 -82 c0 -108 9 -158 27
-158 12 0 13 19 7 120 l-7 120 37 0 c25 0 36 4 36 15 0 12 -15 15 -79 15 -58
0 -82 -4 -91 -15z"/>
<path d="M1826 1113 c-3 -10 -17 -63 -31 -118 -15 -55 -29 -108 -31 -117 -4
-12 0 -18 10 -18 9 0 19 15 26 39 11 42 24 51 72 51 25 0 32 -6 45 -40 9 -22
23 -40 31 -40 8 0 12 6 9 13 -2 6 -22 65 -43 130 -34 103 -41 117 -61 117 -12
0 -24 -8 -27 -17z m63 -130 c1 -8 -12 -13 -34 -13 -39 0 -39 0 -24 55 18 71
20 72 39 20 10 -27 19 -56 19 -62z"/>
<path d="M900 952 c0 -4 5 -13 10 -18 6 -6 16 -30 24 -55 8 -24 14 -35 15 -24
1 21 -34 105 -44 105 -3 0 -5 -4 -5 -8z"/>
<path d="M864 882 c19 -37 14 -65 -17 -99 -26 -30 -33 -29 -51 5 -20 36 -20
19 0 -19 14 -29 96 -89 118 -89 6 1 -2 8 -18 16 l-28 16 25 26 c28 31 47 65
47 84 0 7 -9 -5 -19 -27 -10 -22 -28 -49 -40 -59 -20 -18 -23 -18 -38 -4 -14
15 -14 18 7 40 43 45 48 101 12 130 -13 11 -12 8 2 -20z"/>
</g>
</svg>
