<svg width="283" height="216" viewBox="0 0 283 216" fill="none" xmlns="http://www.w3.org/2000/svg">
<path d="M260.88 157.401C259.853 149.666 258.005 145.635 256.834 142.423C251.462 127.694 240.314 109.113 240.314 109.113H240.313C239.725 113.205 230.605 118.359 222.207 119.354C212.468 120.507 206.35 118.643 204.437 116.781C204.437 116.781 197.961 134.548 194.814 143.385C192.779 149.1 192.416 151.024 192.416 156.266C192.416 159.262 192.995 162.704 193.915 168.549C195.27 177.16 197.648 190.634 197.648 190.634C197.675 190.679 197.7 190.72 197.726 190.764C201.058 192.024 205.726 191.244 207.219 190.942C207.227 190.922 207.232 190.91 207.232 190.91C207.232 190.91 209.184 177.158 209.184 168.827C209.174 165.296 208.886 161.771 208.324 158.285L224.913 128.569L244.268 153.721C244.268 153.721 244.268 156.965 245.317 162.857C248.064 178.285 256.1 191.742 256.1 191.742L265.473 190.23C265.473 190.23 262.115 166.702 260.88 157.401Z" fill="#78B4B7"/>
<path d="M256.1 192.64C255.944 192.64 255.791 192.6 255.656 192.523C255.521 192.446 255.407 192.336 255.328 192.202C255.247 192.066 247.175 178.426 244.433 163.015C243.553 158.074 243.401 154.987 243.375 154.033L225.032 130.198L209.262 158.448C209.797 161.882 210.072 165.352 210.083 168.827C210.083 177.126 208.141 190.898 208.122 191.037C208.111 191.112 208.091 191.185 208.062 191.255L208.044 191.295C207.987 191.429 207.898 191.547 207.785 191.639C207.672 191.731 207.539 191.795 207.396 191.823C205.553 192.196 200.889 192.922 197.407 191.605C197.216 191.533 197.055 191.398 196.951 191.222L196.87 191.088C196.817 190.996 196.78 190.896 196.762 190.791C196.738 190.656 194.366 177.21 193.025 168.689L192.837 167.497C192.013 162.275 191.516 159.124 191.516 156.268C191.516 150.907 191.882 148.935 193.966 143.085C197.078 134.346 203.526 116.653 203.591 116.475C203.642 116.334 203.728 116.208 203.84 116.108C203.953 116.009 204.089 115.939 204.235 115.906C204.382 115.872 204.534 115.876 204.679 115.917C204.823 115.957 204.956 116.034 205.063 116.138C206.44 117.477 211.772 119.686 222.101 118.462C230.693 117.445 238.944 112.316 239.422 108.986C239.448 108.802 239.531 108.631 239.659 108.496C239.787 108.361 239.953 108.269 240.135 108.232C240.318 108.195 240.507 108.216 240.677 108.291C240.847 108.366 240.99 108.492 241.085 108.652C241.197 108.838 252.339 127.475 257.679 142.116C257.841 142.561 258.017 143.024 258.204 143.515C259.331 146.476 260.875 150.531 261.771 157.284C262.991 166.474 266.329 189.869 266.362 190.104C266.396 190.337 266.336 190.574 266.196 190.764C266.057 190.953 265.848 191.081 265.615 191.118L256.243 192.63C256.195 192.637 256.147 192.641 256.1 192.64ZM224.913 127.67C225.05 127.67 225.186 127.702 225.31 127.762C225.433 127.823 225.541 127.912 225.625 128.021L244.981 153.173C245.102 153.33 245.167 153.523 245.167 153.721C245.167 153.752 245.182 156.974 246.202 162.7C248.586 176.091 255.089 188.135 256.57 190.756L264.458 189.484C263.838 185.132 261.075 165.704 259.988 157.519C259.119 150.974 257.68 147.192 256.523 144.153C256.334 143.657 256.155 143.188 255.989 142.73C251.61 130.723 243.259 115.955 240.473 111.158C239.653 112.524 237.985 114.281 234.631 116.177C230.921 118.275 226.431 119.758 222.312 120.246C213.903 121.242 207.792 120.038 204.864 118.231C203.382 122.302 198.31 136.245 195.659 143.687C193.643 149.35 193.314 151.113 193.314 156.267C193.314 158.982 193.803 162.081 194.613 167.216L194.801 168.409C196.008 176.075 198.052 187.743 198.46 190.067C201.169 190.916 204.725 190.472 206.424 190.176C206.796 187.43 208.284 176.011 208.284 168.826C208.271 165.348 207.988 161.876 207.437 158.442C207.401 158.238 207.436 158.028 207.537 157.847L224.127 128.131C224.2 128.001 224.303 127.891 224.429 127.811C224.554 127.731 224.698 127.683 224.846 127.672C224.868 127.671 224.891 127.67 224.913 127.67Z" fill="#78B4B7"/>
<path d="M200.042 128.589C199.808 128.59 199.582 128.499 199.413 128.336C199.245 128.173 199.147 127.951 199.14 127.717C199.133 127.483 199.218 127.255 199.377 127.082C199.536 126.91 199.756 126.806 199.99 126.793C200.062 126.789 207.322 126.262 212.511 119.053C212.58 118.957 212.667 118.876 212.768 118.814C212.868 118.751 212.98 118.71 213.096 118.691C213.213 118.672 213.332 118.676 213.447 118.703C213.562 118.73 213.67 118.779 213.766 118.848C213.862 118.917 213.944 119.004 214.006 119.104C214.068 119.205 214.11 119.316 214.129 119.433C214.148 119.549 214.144 119.668 214.117 119.783C214.09 119.898 214.04 120.007 213.971 120.103C208.261 128.035 200.425 128.569 200.094 128.588C200.077 128.589 200.059 128.589 200.042 128.589Z" fill="black"/>
<path d="M203.993 160.461C203.776 160.461 203.565 160.383 203.401 160.24C203.237 160.097 203.131 159.9 203.101 159.685C203.071 159.47 203.121 159.251 203.24 159.069C203.36 158.888 203.541 158.755 203.75 158.697L205.694 158.15L201.616 156.822C201.39 156.748 201.202 156.587 201.094 156.374C200.986 156.162 200.966 155.915 201.04 155.688C201.114 155.462 201.275 155.274 201.488 155.166C201.701 155.058 201.947 155.039 202.174 155.113L209.068 157.359C209.251 157.419 209.411 157.536 209.522 157.693C209.634 157.851 209.692 158.039 209.688 158.232C209.684 158.425 209.618 158.611 209.5 158.764C209.382 158.916 209.218 159.027 209.033 159.079L204.237 160.427C204.158 160.449 204.076 160.461 203.993 160.461Z" fill="black"/>
<path d="M251.462 154.769H251.443L244.25 154.619C244.052 154.615 243.861 154.546 243.707 154.423C243.553 154.3 243.443 154.129 243.396 153.937C243.348 153.745 243.365 153.543 243.444 153.362C243.523 153.181 243.659 153.031 243.832 152.935L249.227 149.94C249.435 149.824 249.681 149.796 249.911 149.861C250.024 149.893 250.13 149.948 250.223 150.021C250.315 150.095 250.392 150.186 250.45 150.289C250.507 150.392 250.544 150.505 250.557 150.623C250.57 150.74 250.561 150.859 250.528 150.972C250.496 151.086 250.441 151.192 250.368 151.284C250.294 151.376 250.204 151.454 250.1 151.511L247.613 152.892L251.481 152.972C251.719 152.975 251.947 153.072 252.114 153.242C252.281 153.412 252.373 153.642 252.371 153.88C252.368 154.118 252.271 154.346 252.101 154.513C251.93 154.68 251.701 154.772 251.462 154.77V154.769Z" fill="black"/>
<path d="M244.746 120.75C244.731 120.75 244.716 120.75 244.7 120.749C236.813 120.351 233.187 116.379 233.036 116.21C232.879 116.033 232.798 115.8 232.812 115.563C232.826 115.326 232.933 115.104 233.11 114.945C233.287 114.787 233.52 114.705 233.757 114.718C233.994 114.73 234.217 114.836 234.376 115.012C234.385 115.021 235.208 115.919 236.895 116.849C238.451 117.706 241.084 118.767 244.79 118.954C245.024 118.966 245.244 119.069 245.404 119.241C245.563 119.413 245.649 119.64 245.643 119.874C245.637 120.108 245.54 120.331 245.372 120.494C245.205 120.658 244.98 120.75 244.745 120.75L244.746 120.75Z" fill="black"/>
<path d="M225.71 130.553C225.557 130.553 225.407 130.514 225.273 130.44C225.139 130.365 225.027 130.258 224.946 130.128C224.866 129.998 224.82 129.85 224.813 129.697C224.805 129.544 224.837 129.392 224.905 129.255L227.156 124.72C227.208 124.613 227.28 124.518 227.369 124.44C227.458 124.361 227.562 124.301 227.674 124.263C227.786 124.225 227.905 124.209 228.024 124.217C228.142 124.225 228.258 124.256 228.364 124.308C228.47 124.361 228.565 124.434 228.643 124.524C228.721 124.613 228.78 124.717 228.817 124.83C228.855 124.942 228.87 125.061 228.861 125.179C228.852 125.297 228.82 125.413 228.767 125.519L226.516 130.054C226.442 130.204 226.327 130.33 226.185 130.419C226.042 130.507 225.878 130.554 225.71 130.553Z" fill="black"/>
<path d="M254.526 37.5925C254.526 37.5925 260.213 30.246 261.411 29.6469C262.61 29.0478 263.495 29.3024 266.763 30.1087C269.362 30.7499 274.821 32.4114 274.821 32.4114C274.821 32.4114 274.43 33.9978 272.472 33.9978C271.621 33.9978 269.281 33.7431 267.947 33.6351C265.439 33.432 264.51 35.2666 264.51 35.2666C264.51 35.2666 268.631 36.3841 269.368 37.6309C269.867 38.4752 269.503 39.0893 269.503 39.0893C269.503 39.0893 264.465 37.9617 262.994 39.0893C262.008 39.8503 260.927 40.4806 259.779 40.9644" fill="white"/>
<path d="M259.78 41.8633C259.57 41.8635 259.366 41.7901 259.204 41.656C259.043 41.5218 258.933 41.3354 258.895 41.129C258.857 40.9226 258.892 40.7093 258.994 40.5261C259.097 40.3428 259.26 40.2012 259.456 40.1259C260.523 39.6712 261.528 39.0832 262.447 38.3761C263.255 37.7566 264.707 37.5591 266.888 37.7719C267.487 37.8305 268.053 37.9118 268.517 37.9885C268.078 37.5167 266.374 36.7041 264.275 36.1337C264.147 36.0987 264.027 36.0355 263.926 35.9487C263.825 35.8618 263.744 35.7535 263.69 35.6316C263.635 35.5097 263.609 35.3773 263.612 35.2439C263.616 35.1105 263.649 34.9796 263.709 34.8606C263.758 34.7637 264.945 32.4904 268.021 32.7395C268.44 32.7735 268.96 32.8221 269.501 32.8725C270.64 32.9787 271.929 33.0992 272.473 33.0992C272.774 33.1077 273.074 33.0408 273.343 32.9044C271.585 32.3789 268.349 31.4252 266.548 30.9809L266.177 30.8891C263.226 30.16 262.644 30.0354 261.814 30.4504C261.134 30.8343 257.87 34.7427 255.238 38.142C255.166 38.2354 255.076 38.3136 254.974 38.3722C254.871 38.4308 254.758 38.4687 254.641 38.4836C254.524 38.4986 254.405 38.4903 254.291 38.4593C254.177 38.4283 254.07 38.3752 253.977 38.303C253.884 38.2308 253.805 38.1409 253.747 38.0385C253.688 37.9361 253.65 37.8231 253.635 37.706C253.62 37.5889 253.628 37.4701 253.659 37.3562C253.69 37.2423 253.744 37.1357 253.816 37.0423C255.18 35.2809 259.727 29.4837 261.009 28.8427C262.459 28.1188 263.504 28.3773 266.608 29.1443L266.979 29.2358C269.571 29.8754 274.859 31.4826 275.083 31.5513C275.303 31.6183 275.489 31.767 275.602 31.9668C275.716 32.1667 275.749 32.4025 275.694 32.6257C275.501 33.411 274.579 34.8961 272.472 34.8961C271.845 34.8961 270.569 34.7763 269.333 34.6617C268.8 34.6118 268.288 34.564 267.874 34.5306C267.298 34.4686 266.716 34.5784 266.202 34.8462C267.643 35.3405 269.541 36.1568 270.142 37.1734C270.89 38.4393 270.341 39.4379 270.276 39.5476C270.179 39.7104 270.033 39.8386 269.859 39.9137C269.685 39.9888 269.491 40.0071 269.306 39.9659C266.446 39.3275 264.087 39.3838 263.541 39.802C262.487 40.6158 261.331 41.2883 260.102 41.8027C259.999 41.8425 259.89 41.8631 259.78 41.8633Z" fill="black"/>
<path d="M162.934 106.804C162.934 106.804 160.812 105.892 156.876 105.451C155.034 105.244 147.314 102.44 147.314 102.44C147.314 102.44 145.977 104.549 148.094 105.927C150.677 107.61 153.813 108.39 155.455 109.29C156.65 109.945 156.753 110.965 156.753 110.965C156.753 110.965 154.813 113.187 154.188 114.278C153.832 114.898 153.458 116.676 154.658 117.05C155.377 116.823 156.789 114.725 159.708 114.131C161.675 113.73 163.927 112.824 164.58 111.929" fill="white"/>
<path d="M154.658 117.949C154.567 117.949 154.477 117.935 154.391 117.908C154.102 117.82 153.837 117.667 153.616 117.461C153.396 117.255 153.225 117.001 153.118 116.719C152.713 115.689 153.081 114.401 153.408 113.831C153.911 112.954 155.143 111.467 155.742 110.763C155.573 110.471 155.324 110.233 155.024 110.079C154.268 109.702 153.491 109.371 152.696 109.088C151.171 108.5 149.274 107.769 147.603 106.681C145.504 105.314 145.826 103.108 146.554 101.959C146.664 101.786 146.829 101.656 147.023 101.59C147.217 101.524 147.428 101.526 147.62 101.596C149.74 102.365 155.552 104.398 156.975 104.558C160.997 105.009 163.196 105.939 163.288 105.978C163.504 106.074 163.674 106.251 163.761 106.471C163.847 106.692 163.844 106.937 163.75 107.154C163.657 107.372 163.482 107.544 163.263 107.633C163.043 107.722 162.798 107.721 162.579 107.63C162.554 107.62 160.5 106.761 156.775 106.344C155.182 106.165 149.922 104.328 147.816 103.576C147.724 104.051 147.811 104.671 148.584 105.175C150.097 106.16 151.821 106.824 153.342 107.411C154.341 107.796 155.204 108.128 155.887 108.503C157.452 109.36 157.632 110.723 157.647 110.875C157.659 110.998 157.646 111.121 157.609 111.238C157.572 111.355 157.511 111.463 157.43 111.556C156.906 112.155 155.443 113.894 154.967 114.725C154.789 115.09 154.714 115.498 154.75 115.903C154.823 115.841 154.897 115.776 154.966 115.717C155.834 114.965 157.287 113.707 159.527 113.25C161.618 112.824 163.452 111.949 163.853 111.399C163.994 111.207 164.205 111.078 164.44 111.041C164.676 111.004 164.917 111.062 165.109 111.203C165.302 111.343 165.431 111.555 165.468 111.79C165.505 112.026 165.446 112.266 165.306 112.459C164.326 113.801 161.438 114.695 159.887 115.011C158.108 115.374 156.973 116.357 156.144 117.075C155.671 117.485 155.33 117.781 154.928 117.907C154.841 117.935 154.75 117.949 154.658 117.949Z" fill="black"/>
<path d="M254.527 37.5925L251.621 41.1142C251.621 41.1142 243.845 49.4293 240.962 54.0253C226.45 50.8693 220.515 52.2862 220.515 52.2864C218.809 50.7866 216.597 50.2827 216.597 50.2827C216.597 50.2827 211.275 47.8374 204.031 48.0166C195.815 48.2197 193.975 52.1676 193.975 52.1676C193.975 52.1676 189.006 60.3066 193.787 64.9772L193.785 64.9782C193.785 64.9782 188.307 68.0745 186.855 80.8419C185.822 89.9237 185.266 94.7539 185.266 94.7539C180.618 96.2768 176.186 98.392 172.078 101.047C169.857 102.498 167.173 104.184 167.173 104.184L162.934 106.804L164.58 111.929C164.58 111.929 168.157 111.218 169.855 110.728C169.855 110.728 187.234 107.153 190.654 105.262C192.895 104.022 195.6 102.116 197.099 97.3232C197.308 96.6502 197.688 95.3389 198.111 93.8457C198.111 93.8457 200.663 97.1613 200.663 103.033C200.663 109.414 203.171 111.508 203.611 111.948C205.5 113.836 209.123 115.043 213.847 115.227C222.487 115.563 238.275 112.081 239.474 103.544C239.849 100.87 239.558 96.3799 237.839 91.6138C236.572 88.1661 235.692 84.5882 235.217 80.9461C234.421 75.1454 232.976 70.8699 231.802 68.1278C231.802 68.1278 241.952 66.9211 245.633 65.8573C250.471 64.4589 257.607 45.0085 257.607 45.0085L259.782 40.9644L254.527 37.5925Z" fill="white"/>
<path d="M215.026 116.148C214.612 116.148 214.207 116.14 213.81 116.125C208.916 115.934 205.068 114.677 202.974 112.584C202.956 112.566 202.934 112.545 202.909 112.521C200.821 110.51 199.762 107.318 199.762 103.033C199.776 100.672 199.306 98.3336 198.381 96.161C198.198 96.7925 198.055 97.2708 197.955 97.5913C196.403 102.555 193.613 104.652 191.088 106.048C187.632 107.959 171.167 111.374 170.069 111.601C168.343 112.095 164.901 112.781 164.754 112.81C164.538 112.853 164.313 112.815 164.123 112.703C163.933 112.592 163.79 112.414 163.723 112.204L162.076 107.079C162.015 106.887 162.019 106.681 162.089 106.493C162.158 106.305 162.289 106.145 162.46 106.04L166.699 103.42C166.72 103.406 169.397 101.725 171.585 100.295C175.598 97.7027 179.915 95.6136 184.438 94.0744C184.613 92.5455 185.134 88.002 185.96 80.7403C187.447 67.6681 193.101 64.3308 193.341 64.1953C193.444 64.1362 193.557 64.0981 193.675 64.083C193.793 64.068 193.912 64.0763 194.026 64.1076C194.141 64.1389 194.248 64.1925 194.341 64.2653C194.435 64.3381 194.513 64.4287 194.572 64.5319C194.63 64.6351 194.667 64.7488 194.682 64.8664C194.696 64.9841 194.687 65.1034 194.655 65.2175C194.623 65.3316 194.568 65.4383 194.495 65.5313C194.421 65.6243 194.33 65.7019 194.227 65.7596C194.22 65.7633 192.951 66.5256 191.527 68.7513C189.121 72.5108 188.144 77.4565 187.747 80.9435C186.714 90.0263 186.158 94.8569 186.158 94.8569C186.138 95.0314 186.067 95.1962 185.955 95.331C185.842 95.4657 185.692 95.5645 185.523 95.6151C180.96 97.1183 176.606 99.1966 172.569 101.8C170.366 103.238 167.677 104.928 167.65 104.945L164.003 107.199L165.188 110.888C166.331 110.651 168.441 110.201 169.603 109.864C169.626 109.858 169.648 109.852 169.672 109.848C175.636 108.621 187.607 105.919 190.217 104.476C192.541 103.19 194.879 101.402 196.238 97.0554C196.424 96.4621 196.763 95.2999 197.244 93.601C197.289 93.4407 197.378 93.2962 197.501 93.1836C197.624 93.0711 197.776 92.9948 197.939 92.9634C198.103 92.932 198.272 92.9466 198.428 93.0057C198.584 93.0648 198.72 93.1661 198.822 93.2981C198.933 93.4434 201.56 96.9263 201.56 103.034C201.56 105.631 202.009 109.161 204.156 111.227C204.191 111.26 204.22 111.289 204.245 111.314C205.992 113.06 209.504 114.159 213.879 114.33C222.151 114.651 237.476 111.281 238.581 103.42C238.927 100.952 238.691 96.6348 236.99 91.9194C235.703 88.4123 234.808 84.7733 234.323 81.069C233.528 75.2809 232.063 71.0295 230.973 68.482C230.918 68.3536 230.893 68.2142 230.902 68.0748C230.91 67.9354 230.951 67.7998 231.021 67.6789C231.091 67.558 231.188 67.455 231.305 67.3782C231.421 67.3014 231.554 67.2528 231.693 67.2363C231.794 67.2243 241.812 66.0259 245.38 64.995C248.584 64.0686 254.06 52.0549 256.759 44.6996C256.774 44.6597 256.791 44.6209 256.811 44.5835L258.592 41.2717L254.712 38.7802L252.314 41.686C252.302 41.7002 252.29 41.7143 252.277 41.7279C252.2 41.8103 244.527 50.0329 241.724 54.5019C241.625 54.6586 241.481 54.7811 241.31 54.8529C241.14 54.9246 240.951 54.942 240.771 54.9027C229.523 52.4568 222.738 52.6936 220.72 53.1607C220.489 53.2144 220.245 53.1742 220.043 53.049C219.841 52.9238 219.697 52.7238 219.642 52.4926C219.588 52.2615 219.627 52.018 219.751 51.8155C219.875 51.613 220.074 51.4679 220.305 51.4119C220.553 51.3529 226.439 50.0221 240.543 53.0159C243.601 48.4109 250.439 41.0633 250.944 40.5214L253.833 37.021C253.973 36.8514 254.17 36.7389 254.388 36.7049C254.605 36.6709 254.827 36.7178 255.012 36.8367L260.265 40.2087C260.455 40.331 260.593 40.5206 260.649 40.7396C260.706 40.9587 260.678 41.191 260.571 41.3903L258.426 45.3788C258.211 45.96 256.48 50.5799 254.245 55.2933C250.914 62.319 248.178 66.0568 245.881 66.7206C242.884 67.5868 235.878 68.5223 233.079 68.8756C234.14 71.577 235.39 75.6023 236.107 80.824C236.576 84.4034 237.44 87.9198 238.684 91.3087C240.496 96.3328 240.74 100.988 240.363 103.668C239.781 107.81 236.115 111.229 229.759 113.556C225.363 115.166 219.719 116.148 215.026 116.148Z" fill="black"/>
<path d="M202.969 68.9222C202.952 68.9222 202.934 68.9222 202.916 68.9206C202.779 68.9128 199.52 68.7181 197.479 68.0679C194.325 67.0633 192.26 65.3049 191.34 62.8412C189.489 57.8809 193.055 51.9487 193.208 51.6986C193.333 51.4973 193.533 51.3536 193.764 51.2988C193.994 51.244 194.237 51.2825 194.44 51.4059C194.642 51.5293 194.788 51.7277 194.845 51.9578C194.901 52.1879 194.865 52.4312 194.743 52.6346C194.701 52.7041 191.48 58.0866 193.027 62.2182C193.745 64.1354 195.427 65.5283 198.025 66.3553C199.853 66.9376 202.989 67.1245 203.02 67.1263C203.254 67.1398 203.473 67.2437 203.631 67.416C203.789 67.5883 203.874 67.8153 203.867 68.049C203.861 68.2827 203.763 68.5046 203.595 68.6676C203.428 68.8306 203.203 68.922 202.969 68.9222Z" fill="black"/>
<path d="M240.302 108.237L239.472 103.544C238.273 112.081 222.485 115.563 213.845 115.227C209.122 115.043 205.499 113.836 203.609 111.948L203.789 115.615C203.892 117.705 210.379 120.755 222.206 119.354C231.216 118.287 241.059 112.432 240.302 108.237Z" fill="white"/>
<path d="M216.43 120.611C209.995 120.611 205.844 119.162 204.064 117.658C203.138 116.875 202.915 116.139 202.892 115.659L202.712 111.992C202.703 111.811 202.749 111.631 202.845 111.477C202.94 111.322 203.08 111.2 203.246 111.127C203.412 111.053 203.596 111.032 203.775 111.065C203.953 111.098 204.117 111.184 204.246 111.313C205.993 113.059 209.505 114.159 213.88 114.329C222.153 114.65 237.477 111.281 238.582 103.419C238.611 103.207 238.716 103.013 238.876 102.871C239.036 102.729 239.242 102.649 239.456 102.646H239.472C239.683 102.646 239.888 102.72 240.05 102.856C240.212 102.991 240.321 103.18 240.357 103.388L241.188 108.081C241.396 109.242 241.019 110.483 240.067 111.768C237.164 115.687 229.366 119.411 222.312 120.247C220.361 120.484 218.396 120.605 216.43 120.611ZM204.603 113.841L204.688 115.571C204.693 115.672 204.812 115.936 205.225 116.285C206.835 117.646 212.2 119.635 222.101 118.462C229.394 117.598 236.355 113.76 238.622 110.699C239.066 110.099 239.565 109.213 239.418 108.397V108.394L239.164 106.96C237.525 109.634 234.341 111.879 229.759 113.557C224.977 115.308 218.718 116.316 213.811 116.125C209.993 115.976 206.812 115.178 204.603 113.841V113.841Z" fill="black"/>
<path d="M207.524 83.0728C207.395 83.073 207.268 83.0454 207.15 82.9919C207.033 82.9384 206.928 82.8603 206.844 82.7629C206.759 82.6654 206.697 82.5509 206.66 82.4272C206.624 82.3034 206.615 82.1733 206.633 82.0456C206.638 82.0109 207.133 78.5292 206.948 75.1314C206.761 71.6865 205.937 66.479 205.929 66.4267C205.91 66.3099 205.914 66.1904 205.941 66.0751C205.968 65.9598 206.018 65.851 206.087 65.7549C206.156 65.6589 206.244 65.5775 206.345 65.5154C206.446 65.4533 206.558 65.4118 206.675 65.3932C206.792 65.3746 206.912 65.3793 207.027 65.4071C207.142 65.4348 207.251 65.485 207.346 65.5549C207.442 65.6247 207.523 65.7127 207.585 65.8139C207.646 65.9151 207.687 66.0275 207.705 66.1445C207.739 66.3613 208.552 71.495 208.744 75.0341C208.846 77.4621 208.735 79.8943 208.413 82.303C208.382 82.5166 208.275 82.7119 208.112 82.8532C207.949 82.9946 207.74 83.0726 207.524 83.0728Z" fill="black"/>
<path d="M208.323 86.7347C208.118 86.7345 207.92 86.6643 207.76 86.5357C207.601 86.4072 207.49 86.228 207.446 86.0279L207.366 85.6632C207.234 85.8217 207.051 85.9298 206.848 85.9694C206.645 86.0091 206.435 85.9777 206.253 85.8807C206.071 85.7837 205.927 85.6269 205.847 85.4367C205.767 85.2464 205.754 85.0344 205.812 84.8362L206.659 81.9237C206.713 81.7369 206.826 81.5727 206.982 81.4558C207.138 81.3389 207.327 81.2757 207.522 81.2756C207.532 81.2756 207.542 81.2756 207.552 81.2756C207.752 81.2823 207.943 81.3554 208.097 81.4832C208.251 81.611 208.357 81.7864 208.4 81.9815L209.202 85.6429C209.231 85.7742 209.229 85.9102 209.199 86.041C209.168 86.1718 209.108 86.2939 209.024 86.3986C208.939 86.5032 208.833 86.5877 208.711 86.6457C208.59 86.7038 208.457 86.734 208.323 86.7341L208.323 86.7347Z" fill="black"/>
<path d="M226.407 81.3568C226.189 81.3565 225.978 81.277 225.814 81.133C225.651 80.9891 225.545 80.7906 225.516 80.5745L225.105 77.4291C225.074 77.1927 225.139 76.9537 225.284 76.7648C225.429 76.5758 225.644 76.4523 225.88 76.4214C226.117 76.3905 226.356 76.4548 226.545 76.6001C226.734 76.7454 226.858 76.9598 226.889 77.1961L227.3 80.3416C227.316 80.4684 227.306 80.5974 227.268 80.7198C227.231 80.8422 227.168 80.9552 227.084 81.0514C226.999 81.1475 226.895 81.2244 226.778 81.2771C226.662 81.3298 226.535 81.3569 226.407 81.3568H226.407Z" fill="black"/>
<path d="M225.471 78.0415C225.271 77.8977 223.528 76.5052 223.813 71.921C224.049 68.1433 221.359 65.0897 221.331 65.0593C221.252 64.9716 221.191 64.8692 221.152 64.7579C221.113 64.6466 221.096 64.5287 221.102 64.4109C221.108 64.293 221.137 64.1775 221.188 64.071C221.239 63.9645 221.311 63.8691 221.398 63.7902C221.486 63.7112 221.589 63.6503 221.7 63.611C221.811 63.5716 221.929 63.5546 222.047 63.5608C222.165 63.567 222.281 63.5964 222.387 63.6473C222.494 63.6981 222.589 63.7695 222.668 63.8572C222.8 64.0032 225.892 67.4865 225.608 72.0326C225.388 75.5782 226.537 76.5934 226.549 76.6033C226.54 76.5959 226.531 76.5891 226.522 76.5829L225.471 78.0415Z" fill="black"/>
<path d="M228.213 80.5123C228.092 80.5125 227.973 80.4882 227.861 80.4408C227.75 80.3935 227.649 80.3241 227.565 80.2369L225.349 77.9353C225.186 77.7632 225.097 77.5336 225.103 77.2964C225.108 77.0593 225.207 76.8339 225.378 76.6694C225.549 76.5049 225.778 76.4146 226.016 76.4183C226.253 76.422 226.479 76.5193 226.645 76.689L228.861 78.9905C228.983 79.1175 229.066 79.2777 229.097 79.451C229.129 79.6243 229.11 79.8032 229.041 79.9654C228.972 80.1276 228.856 80.2659 228.709 80.3631C228.562 80.4604 228.39 80.5123 228.213 80.5123Z" fill="black"/>
<path d="M187.51 97.3497C187.314 97.3498 187.124 97.2858 186.968 97.1674L184.724 95.4706C184.63 95.3994 184.55 95.3103 184.491 95.2085C184.431 95.1067 184.392 94.9941 184.376 94.8772C184.359 94.7603 184.366 94.6413 184.396 94.5271C184.426 94.4129 184.478 94.3057 184.549 94.2116C184.621 94.1175 184.71 94.0383 184.812 93.9786C184.914 93.9189 185.026 93.8799 185.143 93.8637C185.26 93.8475 185.379 93.8545 185.493 93.8843C185.608 93.9141 185.715 93.9661 185.809 94.0373L188.052 95.7343C188.203 95.848 188.314 96.006 188.369 96.186C188.425 96.366 188.422 96.5589 188.362 96.7374C188.302 96.916 188.187 97.0712 188.034 97.181C187.881 97.2909 187.698 97.3499 187.509 97.3497H187.51Z" fill="black"/>
<path d="M231.801 69.0267C231.625 69.0267 231.453 68.9751 231.306 68.8781C231.159 68.7812 231.044 68.6432 230.974 68.4813C230.488 67.3297 229.93 66.2098 229.304 65.1283C229.149 64.861 229.071 64.7268 229.063 64.4885C229.056 64.2791 229.122 64.0738 229.25 63.908C229.378 63.7422 229.56 63.6264 229.765 63.5806C229.969 63.5348 230.184 63.5618 230.37 63.657C230.557 63.7522 230.705 63.9096 230.788 64.102C230.804 64.132 230.829 64.1739 230.86 64.2277C231.523 65.3715 232.114 66.556 232.628 67.774C232.687 67.9107 232.71 68.0597 232.697 68.2078C232.684 68.3558 232.634 68.4983 232.552 68.6223C232.47 68.7464 232.359 68.8483 232.228 68.9188C232.097 68.9892 231.951 69.0262 231.802 69.0262L231.801 69.0267Z" fill="black"/>
<path d="M198.11 94.7447C197.971 94.7446 197.834 94.7123 197.71 94.6503C197.585 94.5884 197.477 94.4985 197.393 94.3877C197.309 94.2768 197.252 94.1481 197.226 94.0115C197.201 93.875 197.207 93.7343 197.245 93.6006C198.186 90.2827 199.363 86.0102 199.375 85.9673C199.406 85.8535 199.46 85.747 199.532 85.6539C199.605 85.5607 199.695 85.4828 199.798 85.4245C199.9 85.3662 200.014 85.3286 200.131 85.314C200.248 85.2994 200.367 85.308 200.481 85.3394C200.595 85.3707 200.701 85.4242 200.794 85.4967C200.888 85.5691 200.966 85.6593 201.024 85.7619C201.082 85.8645 201.12 85.9776 201.134 86.0948C201.149 86.2119 201.14 86.3307 201.109 86.4445C201.097 86.4874 199.918 90.7663 198.975 94.0907C198.922 94.2789 198.808 94.4445 198.652 94.5626C198.496 94.6806 198.306 94.7445 198.11 94.7447Z" fill="black"/>
<path d="M167.173 104.184C167.173 104.184 168.971 108.77 169.854 110.728L167.173 104.184Z" fill="white"/>
<path d="M169.855 111.626C169.682 111.627 169.512 111.577 169.366 111.483C169.221 111.389 169.106 111.255 169.034 111.097C168.152 109.142 166.409 104.7 166.335 104.512C166.291 104.402 166.268 104.284 166.27 104.165C166.271 104.046 166.296 103.929 166.343 103.819C166.39 103.71 166.458 103.611 166.543 103.529C166.629 103.446 166.73 103.381 166.841 103.338C166.951 103.294 167.07 103.273 167.189 103.276C167.308 103.278 167.425 103.305 167.534 103.353C167.642 103.401 167.74 103.47 167.822 103.557C167.904 103.643 167.968 103.745 168.01 103.856C168.028 103.901 169.81 108.444 170.674 110.358C170.736 110.495 170.762 110.645 170.751 110.795C170.74 110.945 170.691 111.089 170.61 111.215C170.528 111.341 170.417 111.445 170.285 111.517C170.153 111.589 170.005 111.626 169.855 111.626Z" fill="black"/>
<path d="M257.604 45.9073C257.43 45.9073 257.26 45.8566 257.114 45.7615L251.131 41.8672C251.031 41.8032 250.945 41.7201 250.877 41.6227C250.809 41.5252 250.762 41.4154 250.737 41.2995C250.712 41.1835 250.71 41.0638 250.732 40.9472C250.753 40.8307 250.798 40.7195 250.863 40.6201C250.927 40.5208 251.011 40.4352 251.109 40.3684C251.207 40.3015 251.317 40.2547 251.433 40.2306C251.55 40.2066 251.669 40.2057 251.786 40.2281C251.902 40.2505 252.013 40.2957 252.112 40.3611L258.096 44.2555C258.258 44.3612 258.382 44.5166 258.449 44.6985C258.516 44.8804 258.522 45.0791 258.467 45.2648C258.412 45.4506 258.298 45.6135 258.142 45.7293C257.987 45.8451 257.798 45.9075 257.604 45.9073Z" fill="black"/>
<path d="M215.802 69.0266C215.78 69.0266 215.758 69.0266 215.736 69.0242C212.805 68.8096 211.035 68.853 208.103 68.9251L207.1 68.9493C206.862 68.9549 206.631 68.8656 206.458 68.701C206.286 68.5364 206.186 68.31 206.18 68.0717C206.174 67.8334 206.264 67.6026 206.429 67.4301C206.593 67.2576 206.82 67.1575 207.058 67.152L208.059 67.1277C210.594 67.0655 212.276 67.0242 214.573 67.1482C213.753 64.9836 211.211 60.6148 204.197 61.451C202.124 61.6984 195.298 61.3911 192.821 58.2493C192.11 57.3479 191.438 55.799 192.275 53.5395C192.358 53.316 192.526 53.1345 192.743 53.035C192.96 52.9355 193.207 52.926 193.431 53.0088C193.655 53.0916 193.836 53.2597 193.936 53.4763C194.035 53.6929 194.045 53.9402 193.962 54.1637C193.516 55.3672 193.605 56.3397 194.233 57.1367C195.041 58.1613 196.72 58.9356 199.088 59.3755C201.193 59.7663 203.168 59.7634 203.984 59.6663C209.575 58.9991 212.738 61.2873 214.407 63.3245C215.51 64.6754 216.29 66.2608 216.685 67.9593C216.71 68.0892 216.706 68.223 216.673 68.3511C216.64 68.4792 216.579 68.5985 216.495 68.7004C216.41 68.8023 216.304 68.8843 216.185 68.9406C216.065 68.9969 215.934 69.0262 215.802 69.0262L215.802 69.0266Z" fill="black"/>
<path d="M215.801 69.0263C215.602 69.0264 215.409 68.9603 215.251 68.8385C215.094 68.7168 214.981 68.5462 214.931 68.3535C214.893 68.2084 214.038 64.7327 216.758 58.9228C218.507 55.1864 215.859 50.797 215.832 50.7532C215.739 50.6024 215.692 50.4275 215.698 50.2505C215.704 50.0735 215.763 49.9022 215.866 49.7582C215.969 49.6142 216.112 49.5038 216.278 49.441C216.444 49.3782 216.624 49.3657 216.797 49.4051C218.109 49.742 219.349 50.3135 220.457 51.092C222.845 52.8109 223.786 55.2041 223.178 58.0119C222.026 63.3375 216.653 68.5544 216.425 68.774C216.257 68.9356 216.034 69.026 215.801 69.0263ZM218.354 51.9102C219.076 53.8487 219.717 56.8445 218.387 59.6839C217.111 62.4099 216.703 64.5425 216.603 65.9522C218.223 64.0949 220.732 60.8147 221.42 57.6325C221.872 55.5472 221.194 53.8373 219.406 52.5504C219.071 52.3115 218.72 52.0976 218.354 51.9102Z" fill="black"/>
<path d="M215.917 110.526C213.75 110.526 212.48 110.249 212.376 110.226C212.21 110.188 212.057 110.104 211.937 109.983C211.816 109.862 211.733 109.709 211.697 109.542L210.872 105.778C210.828 105.575 210.855 105.362 210.95 105.177L215.569 96.12C215.638 95.9858 215.739 95.8709 215.864 95.786C215.988 95.701 216.132 95.6488 216.282 95.6339C222.99 94.9689 227.89 92.3155 227.939 92.2888C228.106 92.197 228.298 92.1609 228.488 92.1855C228.677 92.2102 228.854 92.2944 228.992 92.426L235.091 98.235C235.228 98.3653 235.32 98.5355 235.355 98.7212C235.371 98.8078 235.748 100.858 235.669 102.369C235.663 102.495 235.63 102.618 235.572 102.73C235.494 102.883 233.567 106.501 225.272 109.039C221.386 110.228 218.168 110.526 215.917 110.526ZM213.323 108.562C214.776 108.759 219.001 109.078 224.745 107.32C231.275 105.322 233.434 102.693 233.881 102.05C233.87 101.138 233.788 100.229 233.634 99.3302L228.212 94.1658C224.658 95.8407 220.854 96.923 216.95 97.3697L212.698 105.707L213.323 108.562Z" fill="black"/>
<path d="M281.523 203.481C281.232 201.88 280.579 200.662 276.478 199.769C267.717 197.862 265.682 190.198 265.682 190.198L255.782 191.742C255.782 191.742 256.147 201.049 256.64 203.757L256.638 207.024H281.477C281.477 207.024 281.815 205.083 281.523 203.481Z" fill="white"/>
<path d="M281.477 207.923H256.639C256.4 207.923 256.171 207.828 256.003 207.66C255.834 207.491 255.739 207.263 255.739 207.024L255.741 203.836C255.25 201.004 254.899 192.156 254.884 191.777C254.876 191.557 254.948 191.342 255.089 191.171C255.229 191.001 255.426 190.888 255.644 190.854L265.544 189.31C265.764 189.276 265.988 189.324 266.174 189.446C266.36 189.567 266.495 189.753 266.552 189.968C266.556 189.984 267.058 191.795 268.561 193.791C270.553 196.438 273.282 198.154 276.67 198.892C280.966 199.827 282.027 201.224 282.409 203.321C282.725 205.06 282.379 207.093 282.364 207.179C282.327 207.387 282.218 207.576 282.056 207.712C281.894 207.849 281.689 207.923 281.477 207.923ZM257.538 206.126H280.685C280.777 205.299 280.762 204.465 280.64 203.642C280.449 202.594 280.252 201.511 276.288 200.647C268.677 198.99 265.865 193.3 265.072 191.202L256.716 192.505C256.817 194.81 257.133 201.438 257.525 203.595C257.535 203.649 257.54 203.703 257.54 203.757L257.538 206.126Z" fill="black"/>
<path d="M281.564 204.656H256.641C256.403 204.656 256.174 204.561 256.006 204.393C255.837 204.224 255.742 203.995 255.742 203.757C255.742 203.519 255.837 203.29 256.006 203.122C256.174 202.953 256.403 202.858 256.641 202.858H281.564C281.802 202.858 282.031 202.953 282.2 203.122C282.368 203.29 282.463 203.519 282.463 203.757C282.463 203.995 282.368 204.224 282.2 204.393C282.031 204.561 281.802 204.656 281.564 204.656Z" fill="black"/>
<path d="M262.948 204.656C262.766 204.656 262.587 204.6 262.437 204.496C262.287 204.392 262.171 204.245 262.107 204.074C260.077 198.695 256.181 198.809 256.141 198.811C256.023 198.816 255.905 198.798 255.794 198.758C255.683 198.718 255.581 198.656 255.493 198.577C255.317 198.416 255.212 198.192 255.201 197.954C255.19 197.716 255.274 197.483 255.435 197.307C255.596 197.131 255.82 197.026 256.058 197.015C256.271 197.005 261.303 196.851 263.79 203.44C263.841 203.576 263.858 203.722 263.841 203.866C263.823 204.011 263.77 204.148 263.688 204.268C263.605 204.387 263.495 204.485 263.366 204.553C263.237 204.62 263.094 204.656 262.948 204.656Z" fill="black"/>
<path d="M276.478 204.656C276.24 204.656 276.011 204.561 275.842 204.393C275.674 204.224 275.579 203.995 275.579 203.757V199.769C275.579 199.531 275.674 199.302 275.842 199.134C276.011 198.965 276.24 198.871 276.478 198.871C276.717 198.871 276.945 198.965 277.114 199.134C277.283 199.302 277.378 199.531 277.378 199.769V203.757C277.378 203.995 277.283 204.224 277.114 204.393C276.945 204.561 276.717 204.656 276.478 204.656Z" fill="black"/>
<path d="M265.23 195.757C265.029 195.758 264.834 195.69 264.675 195.567C264.517 195.443 264.405 195.269 264.356 195.074C264.308 194.879 264.327 194.673 264.409 194.49C264.492 194.307 264.633 194.156 264.811 194.063L266.988 192.92C267.199 192.81 267.445 192.787 267.673 192.858C267.901 192.929 268.091 193.087 268.202 193.298C268.313 193.509 268.335 193.756 268.264 193.983C268.193 194.211 268.035 194.401 267.824 194.512L265.648 195.654C265.519 195.722 265.376 195.757 265.23 195.757Z" fill="black"/>
<path d="M267.926 198.811C267.75 198.811 267.577 198.759 267.43 198.661C267.283 198.564 267.168 198.425 267.099 198.263C267.03 198.101 267.01 197.922 267.042 197.748C267.075 197.575 267.157 197.415 267.28 197.288L268.918 195.591C269 195.506 269.098 195.439 269.207 195.391C269.315 195.344 269.431 195.319 269.549 195.317C269.667 195.315 269.785 195.336 269.895 195.379C270.005 195.423 270.105 195.487 270.19 195.569C270.275 195.651 270.343 195.749 270.39 195.857C270.437 195.965 270.462 196.082 270.464 196.2C270.466 196.318 270.445 196.435 270.402 196.545C270.359 196.655 270.294 196.755 270.212 196.84L268.573 198.536C268.49 198.623 268.389 198.692 268.278 198.739C268.167 198.787 268.047 198.811 267.926 198.811Z" fill="black"/>
<path d="M271.265 200.944C271.11 200.944 270.958 200.904 270.824 200.828C270.689 200.752 270.576 200.643 270.496 200.511C270.416 200.379 270.372 200.228 270.367 200.074C270.362 199.919 270.397 199.766 270.468 199.629L271.439 197.767C271.55 197.556 271.739 197.398 271.967 197.327C272.194 197.255 272.44 197.277 272.651 197.387C272.862 197.497 273.021 197.686 273.093 197.913C273.165 198.14 273.144 198.386 273.034 198.597L272.063 200.46C271.987 200.606 271.872 200.728 271.732 200.813C271.591 200.899 271.429 200.944 271.265 200.944Z" fill="black"/>
<path d="M208.054 201.504L207.939 204.793C207.939 204.793 200.81 209.911 198.519 211.346C197.136 212.212 195.297 213.036 192.16 212.821C187.682 212.514 187.829 210.18 187.829 210.18V207.324" fill="white"/>
<path d="M193.128 213.754C192.799 213.754 192.456 213.742 192.098 213.718C187.114 213.377 186.926 210.625 186.929 210.18V207.324C186.929 207.086 187.023 206.857 187.192 206.689C187.361 206.52 187.589 206.425 187.828 206.425C188.066 206.425 188.295 206.52 188.464 206.689C188.632 206.857 188.727 207.086 188.727 207.324V210.18C188.728 210.193 188.728 210.207 188.727 210.221C188.766 210.482 188.893 210.722 189.087 210.901C189.475 211.297 190.334 211.795 192.22 211.925C195.144 212.125 196.803 211.359 198.04 210.584C199.989 209.364 205.581 205.374 207.054 204.32L207.154 201.473C207.162 201.235 207.265 201.01 207.44 200.847C207.526 200.767 207.627 200.704 207.738 200.663C207.849 200.621 207.966 200.602 208.084 200.606C208.202 200.61 208.318 200.638 208.426 200.687C208.533 200.736 208.63 200.805 208.71 200.892C208.791 200.978 208.854 201.079 208.895 201.19C208.936 201.3 208.956 201.418 208.951 201.536L208.836 204.825C208.831 204.962 208.795 205.096 208.73 205.217C208.665 205.338 208.573 205.443 208.461 205.523C208.169 205.733 201.283 210.674 198.995 212.107C197.746 212.891 195.972 213.754 193.128 213.754Z" fill="black"/>
<path d="M197.147 190.518C197.147 190.518 197.579 195.657 194.63 199.029C193.701 200.092 187.86 204.188 187.828 207.324C187.798 210.319 193.366 210.485 195.944 209.331C197.817 208.492 208.054 201.505 208.054 201.505C208.054 201.505 208.434 198.612 207.772 196.354L207.697 190.839C207.697 190.839 201.138 192.429 197.147 190.518Z" fill="white"/>
<path d="M192.386 210.892C190.896 210.892 189.414 210.599 188.388 209.927C187.423 209.295 186.918 208.392 186.929 207.315C186.958 204.481 190.604 201.356 192.783 199.489C193.298 199.047 193.786 198.63 193.954 198.438C196.62 195.388 196.255 190.641 196.251 190.593C196.238 190.436 196.266 190.277 196.334 190.134C196.402 189.991 196.506 189.869 196.636 189.779C196.766 189.689 196.918 189.635 197.076 189.622C197.234 189.61 197.392 189.639 197.535 189.708C201.187 191.455 207.423 189.98 207.486 189.965C207.617 189.933 207.754 189.931 207.886 189.96C208.018 189.988 208.142 190.046 208.249 190.128C208.356 190.211 208.442 190.317 208.503 190.438C208.563 190.558 208.595 190.691 208.597 190.826L208.671 196.222C209.33 198.612 208.962 201.498 208.946 201.622C208.93 201.747 208.887 201.867 208.821 201.975C208.754 202.083 208.666 202.175 208.562 202.247C208.141 202.534 198.237 209.289 196.312 210.151C195.266 210.619 193.822 210.892 192.386 210.892ZM198.059 191.825C197.988 193.695 197.529 197.081 195.308 199.621C194.881 200.058 194.429 200.47 193.954 200.854C192.264 202.302 188.748 205.315 188.727 207.334C188.724 207.618 188.788 208.041 189.374 208.424C190.812 209.367 193.945 209.242 195.577 208.511C196.997 207.875 204.141 203.081 207.202 200.998C207.273 200.171 207.373 198.189 206.91 196.607C206.887 196.529 206.874 196.448 206.873 196.367L206.813 191.937C204.97 192.266 201.164 192.746 198.059 191.824V191.825Z" fill="black"/>
<path d="M203.682 205.351C203.64 205.351 203.597 205.348 203.555 205.342C203.319 205.308 203.106 205.183 202.963 204.992C202.819 204.802 202.758 204.562 202.791 204.326C203.392 200.076 204.64 198.809 205.976 197.791C206.578 197.331 206.828 197.141 206.875 196.303C206.888 196.065 206.996 195.842 207.174 195.683C207.352 195.525 207.586 195.443 207.824 195.457C208.062 195.47 208.285 195.578 208.443 195.755C208.602 195.933 208.684 196.167 208.67 196.405C208.576 198.068 207.774 198.68 207.067 199.22C206.199 199.882 205.118 200.705 204.572 204.578C204.542 204.792 204.435 204.988 204.272 205.13C204.108 205.272 203.899 205.351 203.682 205.351Z" fill="black"/>
<path d="M201.241 195.944C201.184 195.944 201.126 195.939 201.07 195.928L196.701 195.084C196.467 195.038 196.26 194.902 196.127 194.704C195.993 194.507 195.944 194.265 195.989 194.031C196.034 193.797 196.171 193.59 196.368 193.457C196.566 193.323 196.808 193.274 197.042 193.319L201.411 194.163C201.631 194.205 201.827 194.328 201.961 194.507C202.095 194.686 202.157 194.908 202.136 195.131C202.115 195.353 202.012 195.56 201.846 195.71C201.681 195.861 201.465 195.944 201.241 195.944Z" fill="black"/>
<path d="M199.803 199.651C199.724 199.651 199.646 199.641 199.571 199.621L195.387 198.507C195.273 198.476 195.166 198.424 195.072 198.352C194.978 198.28 194.899 198.191 194.84 198.089C194.781 197.987 194.742 197.874 194.727 197.757C194.711 197.64 194.719 197.521 194.749 197.407C194.779 197.293 194.832 197.186 194.904 197.092C194.976 196.998 195.065 196.919 195.167 196.86C195.27 196.801 195.382 196.762 195.5 196.747C195.617 196.731 195.736 196.739 195.85 196.769L200.034 197.884C200.245 197.939 200.428 198.07 200.55 198.252C200.672 198.433 200.723 198.652 200.695 198.869C200.667 199.085 200.561 199.284 200.396 199.428C200.232 199.572 200.021 199.651 199.803 199.651Z" fill="black"/>
<path d="M197.684 202.823C197.575 202.823 197.468 202.803 197.366 202.765L192.95 201.097C192.727 201.012 192.547 200.843 192.449 200.626C192.351 200.409 192.343 200.161 192.427 199.938C192.512 199.715 192.681 199.535 192.898 199.437C193.116 199.339 193.363 199.331 193.586 199.415L198.002 201.084C198.199 201.158 198.363 201.299 198.467 201.482C198.571 201.665 198.607 201.879 198.569 202.086C198.531 202.293 198.422 202.48 198.26 202.615C198.098 202.75 197.894 202.823 197.683 202.823H197.684Z" fill="black"/>
<path d="M197.282 209.485C197.077 209.485 196.879 209.415 196.72 209.287C196.561 209.16 196.45 208.982 196.405 208.782C195.256 203.653 190.144 204.413 189.927 204.448C189.81 204.469 189.689 204.466 189.573 204.44C189.456 204.414 189.346 204.365 189.249 204.296C189.152 204.227 189.069 204.139 189.006 204.037C188.943 203.936 188.901 203.823 188.882 203.706C188.864 203.588 188.868 203.467 188.896 203.352C188.924 203.236 188.975 203.127 189.046 203.03C189.117 202.934 189.206 202.853 189.308 202.792C189.411 202.731 189.524 202.691 189.642 202.674C190.863 202.519 192.102 202.616 193.284 202.957C195.072 203.486 197.369 204.857 198.161 208.39C198.186 208.505 198.189 208.624 198.169 208.74C198.149 208.857 198.106 208.968 198.042 209.067C197.979 209.167 197.897 209.253 197.8 209.321C197.704 209.389 197.595 209.437 197.479 209.463C197.414 209.478 197.348 209.485 197.282 209.485Z" fill="black"/>
<path d="M203.804 54.1159C203.804 54.1159 209.349 55.3142 212.981 51.0695C215.638 47.965 214.853 44.6077 214.853 44.6077C215.651 44.2183 216.455 43.2799 215.935 42.5468C215.328 41.6919 213.743 41.5303 212.304 39.2449C212.012 37.7988 211.448 34.1579 208.141 33.3816C208.141 33.3816 201.029 34.7525 201.578 42.739C201.578 42.739 200.192 40.7029 198.707 40.69C197.155 40.6765 195.919 42.0497 196.307 43.7442C196.895 46.3064 199.269 47.0777 199.269 47.0777C199.269 47.0777 200.295 52.3536 197.697 53.0943L203.804 54.1159Z" fill="white"/>
<path d="M199.269 47.0779C199.269 47.0779 196.895 46.3065 196.307 43.7444C195.918 42.0499 197.154 40.6767 198.707 40.6902C200.192 40.7031 201.578 42.7392 201.578 42.7392C201.028 34.7527 208.14 33.3818 208.14 33.3818L208.507 33.1217C208.507 33.1217 210.541 31.5191 210.267 28.3788L210.281 28.3738C210.281 28.3738 210.171 24.5951 205.323 22.6953C205.323 22.6953 206.571 26.093 203.565 29.3507C202.63 28.8835 197.83 26.8109 192.505 30.4492C188.298 33.3236 184.344 38.6885 187.455 45.4028C191.025 53.1113 197.697 53.0945 197.697 53.0945C200.294 52.3538 199.269 47.0779 199.269 47.0779Z" fill="#E5D2BD"/>
<path d="M197.695 53.9931C197.347 53.9931 190.392 53.8856 186.638 45.7802C185.11 42.4823 185.034 39.2328 186.413 36.1221C187.479 33.7178 189.462 31.4396 191.997 29.7073C196.942 26.3288 201.507 27.5393 203.315 28.2578C205.394 25.5995 204.489 23.0321 204.479 23.005C204.419 22.8424 204.408 22.666 204.446 22.497C204.484 22.3281 204.57 22.1738 204.694 22.0526C204.818 21.9315 204.974 21.8487 205.144 21.8143C205.314 21.7799 205.49 21.7953 205.652 21.8586C210.991 23.9512 211.175 28.169 211.18 28.3475C211.181 28.387 211.18 28.4266 211.176 28.4659C211.404 31.9408 209.161 33.7511 209.064 33.8281C209.052 33.8373 209.04 33.8465 209.027 33.8553L208.661 34.1153C208.556 34.1897 208.437 34.2408 208.311 34.2651C208.055 34.316 201.989 35.6089 202.475 42.6782C202.489 42.8752 202.437 43.0711 202.328 43.2358C202.219 43.4004 202.059 43.5246 201.872 43.5891C201.686 43.6537 201.483 43.655 201.295 43.5928C201.108 43.5307 200.946 43.4085 200.835 43.2453C200.466 42.7089 199.458 41.596 198.699 41.5894H198.684C198.451 41.5865 198.22 41.6362 198.009 41.7347C197.798 41.8333 197.612 41.9781 197.464 42.1586C197.314 42.3523 197.211 42.578 197.162 42.8183C197.113 43.0585 197.12 43.3067 197.183 43.5436C197.645 45.5556 199.474 46.1986 199.551 46.2247C199.702 46.2758 199.837 46.3657 199.942 46.4853C200.047 46.6048 200.119 46.75 200.151 46.9061C200.272 47.529 201.239 53.0186 197.942 53.9584C197.863 53.981 197.781 53.9926 197.698 53.9928L197.695 53.9931ZM199.028 29.2407C197.307 29.2407 195.211 29.6893 193.012 31.1917C191.025 32.5494 184.811 37.5594 188.27 45.0259C191.29 51.5457 196.653 52.1381 197.562 52.1914C198.678 51.7181 198.673 49.2317 198.461 47.7089C197.6 47.2832 195.947 46.1947 195.431 43.9458C195.308 43.4442 195.301 42.9212 195.411 42.4165C195.52 41.9118 195.743 41.4387 196.063 41.0331C196.379 40.6426 196.778 40.3281 197.232 40.1133C197.686 39.8984 198.182 39.7887 198.684 39.7922H198.715C199.46 39.7988 200.148 40.1367 200.721 40.5607C201.076 37.4044 202.677 35.4741 204.098 34.3598C205.185 33.5136 206.433 32.897 207.765 32.5474L207.962 32.4081C208.117 32.2768 209.589 30.9578 209.372 28.4581C209.367 28.4023 209.367 28.3461 209.373 28.2903C209.315 27.7916 208.933 25.7719 206.479 24.2648C206.52 25.7358 206.148 27.8777 204.226 29.9596C204.094 30.1029 203.919 30.1993 203.727 30.2344C203.536 30.2695 203.338 30.2414 203.163 30.1544C201.87 29.5449 200.457 29.2327 199.028 29.2407Z" fill="#E5D2BD"/>
<path d="M209.119 42.6865C209.863 42.576 210.343 41.6573 210.191 40.6347C210.039 39.612 209.312 38.8726 208.568 38.9832C207.824 39.0937 207.344 40.0124 207.496 41.035C207.648 42.0576 208.375 42.797 209.119 42.6865Z" fill="black"/>
<path d="M217.237 60.9493C217.073 60.9493 216.913 60.9046 216.773 60.8199C211.85 57.8511 211.369 52.141 211.351 51.8993C211.333 51.6616 211.41 51.4265 211.566 51.2457C211.721 51.0649 211.942 50.9532 212.18 50.9352C212.418 50.9172 212.653 50.9943 212.834 51.1496C213.015 51.305 213.126 51.5257 213.144 51.7634C213.149 51.8134 213.589 56.8005 217.702 59.2809C217.87 59.3823 218.001 59.5361 218.074 59.7187C218.146 59.9013 218.157 60.1027 218.104 60.2919C218.051 60.4812 217.938 60.648 217.781 60.7667C217.625 60.8854 217.433 60.9496 217.237 60.9493Z" fill="black"/>
<path d="M205.644 55.1756C204.963 55.1822 204.283 55.1215 203.614 54.9944C203.382 54.9431 203.18 54.8022 203.051 54.6024C202.923 54.4026 202.879 54.1602 202.929 53.928C202.979 53.6959 203.119 53.4929 203.318 53.3634C203.517 53.234 203.759 53.1886 203.992 53.2371C204.198 53.2807 209.071 54.2556 212.298 50.4855C214.631 47.7583 213.984 44.8413 213.977 44.8122C213.931 44.6142 213.953 44.4064 214.04 44.2226C214.127 44.0388 214.274 43.89 214.457 43.8005C214.899 43.5842 215.184 43.2072 215.199 43.0665C215.073 42.895 214.781 42.7144 214.444 42.5057C213.648 42.0142 212.56 41.341 211.542 39.724C211.484 39.6318 211.443 39.5298 211.422 39.4231L211.379 39.205C211.088 37.7267 210.553 35.0068 208.127 34.3072C207.071 34.5768 202.029 36.2094 202.475 42.6775C202.488 42.8743 202.436 43.07 202.327 43.2345C202.218 43.3989 202.058 43.523 201.872 43.5876C201.685 43.6521 201.483 43.6536 201.295 43.5917C201.108 43.5298 200.946 43.4081 200.835 43.2452C200.467 42.7087 199.458 41.5958 198.699 41.5892H198.684C198.451 41.5863 198.221 41.636 198.009 41.7345C197.798 41.8331 197.612 41.978 197.465 42.1584C197.314 42.3521 197.211 42.5779 197.162 42.8181C197.113 43.0583 197.121 43.3065 197.183 43.5434C197.652 45.5854 199.528 46.2169 199.547 46.223C199.699 46.2726 199.836 46.3621 199.942 46.4823C200.048 46.6024 200.12 46.7487 200.151 46.9062C200.324 47.8779 200.393 48.8654 200.355 49.8516C200.216 52.7172 198.967 53.6667 197.943 53.9585C197.714 54.0238 197.468 53.9955 197.259 53.8796C197.051 53.7638 196.897 53.5699 196.832 53.3407C196.766 53.1115 196.795 52.8657 196.91 52.6574C197.026 52.4491 197.22 52.2954 197.45 52.23C198.677 51.88 198.68 49.2804 198.461 47.7079C197.6 47.2823 195.946 46.1938 195.431 43.9448C195.308 43.4432 195.301 42.9202 195.41 42.4156C195.52 41.9109 195.743 41.4378 196.063 41.0322C196.378 40.6416 196.778 40.3272 197.231 40.1123C197.685 39.8975 198.182 39.7877 198.684 39.7913H198.715C199.459 39.7978 200.148 40.1358 200.721 40.5598C201.076 37.4034 202.677 35.4732 204.098 34.3588C205.238 33.465 206.559 32.8305 207.97 32.4996C208.094 32.4757 208.223 32.4783 208.346 32.5071C212.066 33.3802 212.821 37.2191 213.143 38.8578L213.152 38.9028C213.92 40.0682 214.7 40.5503 215.39 40.9769C215.877 41.2783 216.338 41.5627 216.668 42.0272C216.82 42.2412 216.924 42.4862 216.971 42.7448C217.017 43.0034 217.007 43.2691 216.939 43.5231C216.776 44.1628 216.31 44.6931 215.826 45.058C215.928 46.2463 215.789 47.4429 215.418 48.5763C215.047 49.7097 214.45 50.7565 213.664 51.6541C211.118 54.6296 207.763 55.1756 205.644 55.1756Z" fill="black"/>
<path d="M198.111 33.6653C197.9 33.6654 197.697 33.5918 197.535 33.4574C197.373 33.323 197.264 33.1363 197.226 32.9296C197.188 32.723 197.223 32.5095 197.326 32.3263C197.429 32.1431 197.593 32.0018 197.79 31.9269C206.362 28.6569 204.559 23.2292 204.478 22.9999C204.42 22.8375 204.41 22.662 204.45 22.4942C204.489 22.3263 204.575 22.1733 204.699 22.0531C204.823 21.933 204.978 21.8508 205.147 21.8163C205.316 21.7818 205.491 21.7965 205.652 21.8586C210.992 23.9512 211.176 28.169 211.181 28.3476C211.186 28.5844 211.098 28.8137 210.935 28.9858C210.772 29.1579 210.548 29.2588 210.311 29.2665C210.074 29.2743 209.844 29.1883 209.67 29.0272C209.496 28.8662 209.393 28.6431 209.383 28.4064C209.377 28.2793 209.226 25.9482 206.476 24.2615C206.498 25.0572 206.394 25.8514 206.17 26.6151C205.559 28.6906 203.72 31.5878 198.431 33.606C198.329 33.6451 198.22 33.6652 198.111 33.6653Z" fill="black"/>
<path d="M186.784 34.7733C187.444 33.1295 188.473 31.6593 189.793 30.4766C187.722 26.4013 181.294 15.9927 170.734 18.7921C152.883 23.5241 157.987 46.5561 171.645 53.8315C175.894 60.6522 171.341 71.717 171.341 71.717C181.003 66.82 183.027 61.2585 182.268 53.6799C181.628 47.2866 176.243 42.7125 178.474 37.4618C179.981 33.9144 184.269 33.5497 186.784 34.7733Z" fill="#E5D2BD"/>
<path d="M171.341 72.6265C171.191 72.6265 171.044 72.5897 170.912 72.5194C170.78 72.4491 170.668 72.3474 170.584 72.2234C170.501 72.0993 170.45 71.9567 170.435 71.8081C170.42 71.6596 170.442 71.5096 170.499 71.3715C170.542 71.2664 174.733 60.875 170.993 54.5138C167.044 52.3484 163.609 48.7941 161.302 44.4805C158.989 40.1556 157.986 35.433 158.479 31.1807C159.257 24.4744 163.526 19.762 170.501 17.913C175.357 16.6259 179.913 17.7887 184.044 21.3696C187.377 24.2592 189.585 28.0585 190.605 30.0659C190.695 30.2444 190.724 30.4479 190.688 30.6446C190.651 30.8414 190.55 31.0205 190.401 31.1542C189.188 32.2432 188.242 33.5944 187.632 35.1047C187.587 35.2217 187.517 35.3279 187.428 35.4167C187.339 35.5055 187.233 35.5749 187.116 35.6206C186.998 35.6663 186.873 35.6873 186.748 35.6822C186.622 35.6771 186.499 35.6461 186.386 35.5911C184.959 34.9393 183.333 34.8702 181.856 35.3986C181.287 35.6036 180.767 35.9244 180.329 36.3407C179.891 36.7571 179.545 37.2599 179.312 37.8171C178.16 40.5277 179.357 43.1235 180.743 46.1293C181.751 48.3168 182.894 50.7959 183.173 53.5895C183.608 57.9292 183.08 61.2819 181.51 64.1412C179.75 67.3492 176.558 70.0925 171.752 72.5281C171.625 72.5928 171.484 72.6265 171.341 72.6265ZM174.091 19.2688C173.037 19.268 171.987 19.4032 170.968 19.6711C164.767 21.315 160.974 25.4763 160.288 31.3899C159.838 35.2772 160.768 39.6219 162.909 43.6234C165.091 47.7034 168.346 51.0437 172.073 53.0292C172.214 53.1044 172.333 53.2154 172.418 53.3511C175.705 58.6278 174.107 66.0786 172.974 69.7907C176.31 67.8253 178.59 65.6787 179.914 63.2671C181.317 60.7105 181.763 57.7815 181.362 53.7706C181.112 51.2799 180.084 49.0483 179.089 46.8893C177.588 43.6328 176.17 40.5569 177.636 37.1059C177.963 36.3199 178.45 35.6106 179.067 35.0232C179.684 34.4358 180.416 33.9832 181.218 33.6944C182.856 33.1029 184.645 33.0703 186.304 33.6016C186.904 32.3745 187.704 31.255 188.67 30.2884C183.822 21.1398 178.02 19.2688 174.091 19.2688Z" fill="#E5D2BD"/>
<path d="M176.348 65.3511C176.185 65.3511 176.026 65.3078 175.886 65.2257C175.746 65.1436 175.631 65.0256 175.552 64.8841C175.473 64.7426 175.434 64.5825 175.437 64.4206C175.441 64.2586 175.488 64.1006 175.574 63.9628C179.694 57.3142 176.617 51.4057 174.145 46.6582C173.243 44.9272 172.465 43.4324 172.126 42.0779C171.482 39.5046 171.302 37.3914 171.578 35.6171C172.042 32.6286 173.824 30.6557 176.729 29.9116C176.963 29.8516 177.211 29.8869 177.419 30.0098C177.627 30.1326 177.777 30.3329 177.837 30.5666C177.897 30.8003 177.862 31.0482 177.739 31.2559C177.616 31.4636 177.416 31.614 177.182 31.674C173.525 32.6105 172.449 35.8695 173.893 41.6372C174.18 42.7837 174.913 44.1905 175.761 45.8192C178.305 50.7035 181.789 57.3928 177.123 64.9208C177.041 65.0525 176.927 65.1612 176.791 65.2365C176.655 65.3118 176.503 65.3513 176.348 65.3511Z" fill="black"/>
<path d="M170.277 48.6782C170.07 48.6784 169.87 48.6081 169.709 48.479C169.415 48.2439 162.51 42.6121 163.3 33.2929C163.554 30.3083 164.543 27.807 166.241 25.8584C167.806 24.0902 169.88 22.8495 172.179 22.3071C177.69 20.9475 183.78 23.2286 186.662 27.7305C186.728 27.8311 186.774 27.9438 186.796 28.0622C186.818 28.1805 186.817 28.3021 186.792 28.4199C186.767 28.5377 186.718 28.6494 186.65 28.7484C186.581 28.8473 186.493 28.9317 186.392 28.9966C186.29 29.0615 186.177 29.1056 186.058 29.1263C185.939 29.147 185.817 29.144 185.7 29.1173C185.582 29.0907 185.471 29.041 185.373 28.9711C185.275 28.9012 185.191 28.8126 185.128 28.7102C182.653 24.8444 177.391 22.8941 172.616 24.0723C168.263 25.1462 165.529 28.5629 165.115 33.4464C164.408 41.7771 170.783 47.0079 170.848 47.0597C170.995 47.1777 171.102 47.3383 171.153 47.5195C171.205 47.7006 171.199 47.8934 171.137 48.071C171.074 48.2487 170.958 48.4025 170.804 48.5113C170.65 48.62 170.466 48.6784 170.277 48.6782Z" fill="black"/>
<path d="M186.625 36.1168C186.48 36.1168 186.337 36.0823 186.208 36.0162C186.079 35.9501 185.968 35.8543 185.884 35.7367C185.8 35.619 185.745 35.4831 185.724 35.34C185.702 35.1969 185.716 35.0508 185.763 34.9139C186.57 32.6006 188.056 30.5833 190.026 29.1239C190.226 28.9897 190.471 28.9401 190.707 28.9859C190.944 29.0317 191.152 29.1693 191.288 29.3684C191.423 29.5675 191.473 29.8121 191.428 30.0484C191.383 30.2848 191.247 30.4937 191.048 30.6294C189.411 31.8723 188.173 33.5653 187.486 35.5008C187.425 35.6805 187.309 35.8365 187.154 35.9469C187 36.0574 186.815 36.1168 186.625 36.1168Z" fill="black"/>
<path d="M116.317 151.205L96.2757 113.909C96.2185 113.803 96.1519 113.689 96.0861 113.586C95.7413 113.048 95.2938 112.583 94.7694 112.218C94.2449 111.853 93.6538 111.595 93.0296 111.458C92.4054 111.322 91.7604 111.31 91.1315 111.422C90.5026 111.535 89.9021 111.771 89.3643 112.116C88.8264 112.461 88.3617 112.909 87.9968 113.433C87.6318 113.958 87.3738 114.549 87.2373 115.174C87.1008 115.798 87.0886 116.443 87.2014 117.073C87.3142 117.702 87.5497 118.303 87.8946 118.841L110.739 154.487C111.191 155.192 111.898 155.695 112.713 155.89C113.527 156.085 114.386 155.956 115.107 155.532C115.829 155.107 116.358 154.419 116.584 153.612C116.809 152.805 116.714 151.943 116.317 151.205H116.317Z" fill="black"/>
<path d="M121.161 192.401L116.724 152.49C116.63 151.642 116.203 150.866 115.537 150.333C114.871 149.8 114.02 149.553 113.172 149.648C112.325 149.742 111.549 150.169 111.016 150.836C110.483 151.502 110.237 152.353 110.331 153.201L114.768 193.112C114.862 193.96 115.289 194.736 115.955 195.269C116.621 195.803 117.472 196.049 118.32 195.955C119.167 195.86 119.943 195.433 120.476 194.767C121.009 194.1 121.255 193.249 121.161 192.401Z" fill="black"/>
<path d="M92.0846 123.409C95.9676 123.409 99.1154 120.259 99.1154 116.375C99.1154 112.49 95.9676 109.341 92.0846 109.341C88.2015 109.341 85.0537 112.49 85.0537 116.375C85.0537 120.259 88.2015 123.409 92.0846 123.409Z" fill="white"/>
<path d="M92.0846 124.306C90.5166 124.306 88.9837 123.841 87.6799 122.97C86.376 122.098 85.3598 120.859 84.7598 119.41C84.1597 117.961 84.0027 116.366 84.3086 114.827C84.6145 113.288 85.3696 111.875 86.4784 110.766C87.5872 109.657 88.9999 108.901 90.5379 108.595C92.0759 108.289 93.67 108.446 95.1187 109.046C96.5674 109.647 97.8057 110.663 98.6769 111.968C99.5481 113.272 100.013 114.806 100.013 116.375C100.011 118.477 99.1746 120.494 97.6883 121.981C96.2019 123.468 94.1867 124.304 92.0846 124.306ZM92.0846 110.239C90.8716 110.239 89.6858 110.598 88.6772 111.273C87.6686 111.947 86.8824 112.905 86.4182 114.026C85.954 115.148 85.8326 116.381 86.0692 117.572C86.3059 118.762 86.89 119.855 87.7478 120.713C88.6055 121.572 89.6984 122.156 90.8881 122.393C92.0778 122.629 93.311 122.508 94.4318 122.043C95.5525 121.579 96.5104 120.793 97.1843 119.784C97.8582 118.774 98.2179 117.588 98.2179 116.375C98.2161 114.748 97.5694 113.188 96.4195 112.038C95.2697 110.887 93.7107 110.24 92.0846 110.239Z" fill="black"/>
<path d="M113.528 157.934C116.337 157.934 118.614 155.656 118.614 152.846C118.614 150.036 116.337 147.758 113.528 147.758C110.719 147.758 108.441 150.036 108.441 152.846C108.441 155.656 110.719 157.934 113.528 157.934Z" fill="white"/>
<path d="M113.528 158.833C112.344 158.833 111.187 158.482 110.203 157.824C109.219 157.166 108.452 156.231 107.999 155.137C107.547 154.043 107.428 152.84 107.659 151.679C107.89 150.517 108.46 149.451 109.297 148.613C110.133 147.776 111.2 147.206 112.36 146.975C113.521 146.744 114.724 146.863 115.817 147.316C116.911 147.769 117.845 148.536 118.503 149.521C119.16 150.505 119.511 151.662 119.511 152.846C119.51 154.434 118.879 155.955 117.757 157.077C116.635 158.2 115.114 158.831 113.528 158.833ZM113.528 148.656C112.699 148.656 111.889 148.902 111.201 149.362C110.512 149.823 109.975 150.477 109.658 151.243C109.341 152.009 109.258 152.851 109.42 153.664C109.581 154.477 109.98 155.224 110.566 155.81C111.152 156.396 111.898 156.795 112.71 156.956C113.523 157.118 114.365 157.035 115.131 156.718C115.896 156.401 116.55 155.864 117.01 155.175C117.471 154.485 117.716 153.675 117.716 152.846C117.715 151.735 117.273 150.67 116.488 149.885C115.703 149.099 114.638 148.657 113.528 148.656Z" fill="black"/>
<path d="M110.11 201.512V206.9H136.588V201.512" fill="white"/>
<path d="M136.588 207.798H110.11C109.872 207.798 109.644 207.703 109.476 207.535C109.307 207.366 109.213 207.138 109.213 206.9V201.512C109.213 201.274 109.307 201.045 109.476 200.877C109.644 200.709 109.872 200.614 110.11 200.614C110.348 200.614 110.577 200.709 110.745 200.877C110.913 201.045 111.008 201.274 111.008 201.512V206.002H135.691V201.512C135.691 201.274 135.785 201.045 135.954 200.877C136.122 200.709 136.35 200.614 136.588 200.614C136.826 200.614 137.055 200.709 137.223 200.877C137.391 201.045 137.486 201.274 137.486 201.512V206.9C137.486 207.138 137.391 207.366 137.223 207.535C137.055 207.703 136.826 207.798 136.588 207.798Z" fill="black"/>
<path d="M136.588 201.512L116.86 191.83L110.11 201.512H136.588Z" fill="white"/>
<path d="M136.588 202.41H110.11C109.946 202.41 109.785 202.365 109.645 202.28C109.505 202.195 109.391 202.073 109.315 201.927C109.239 201.782 109.204 201.618 109.215 201.454C109.225 201.291 109.28 201.133 109.374 200.998L116.124 191.316C116.247 191.14 116.429 191.014 116.636 190.96C116.844 190.907 117.063 190.929 117.256 191.024L136.984 200.706C137.166 200.795 137.312 200.943 137.399 201.127C137.486 201.31 137.509 201.517 137.463 201.715C137.417 201.913 137.306 202.089 137.147 202.215C136.988 202.341 136.791 202.41 136.588 202.41ZM111.831 200.614H132.721L117.156 192.975L111.831 200.614Z" fill="black"/>
<path d="M117.964 196.952C120.279 196.952 122.157 195.074 122.157 192.757C122.157 190.44 120.279 188.562 117.964 188.562C115.648 188.562 113.771 190.44 113.771 192.757C113.771 195.074 115.648 196.952 117.964 196.952Z" fill="white"/>
<path d="M117.964 197.85C116.957 197.85 115.973 197.551 115.135 196.991C114.298 196.432 113.646 195.636 113.261 194.706C112.875 193.775 112.774 192.751 112.971 191.763C113.167 190.775 113.652 189.868 114.364 189.155C115.076 188.443 115.983 187.958 116.971 187.762C117.958 187.565 118.982 187.666 119.912 188.052C120.842 188.437 121.637 189.09 122.196 189.927C122.756 190.765 123.054 191.75 123.054 192.757C123.053 194.107 122.516 195.402 121.562 196.356C120.607 197.311 119.313 197.848 117.964 197.85ZM117.964 189.46C117.312 189.46 116.675 189.653 116.133 190.016C115.591 190.378 115.168 190.893 114.919 191.495C114.67 192.098 114.604 192.761 114.731 193.4C114.859 194.04 115.173 194.627 115.633 195.088C116.094 195.549 116.681 195.863 117.321 195.99C117.96 196.118 118.623 196.052 119.225 195.803C119.827 195.553 120.342 195.131 120.704 194.589C121.066 194.046 121.259 193.409 121.259 192.757C121.258 191.883 120.911 191.045 120.293 190.427C119.675 189.808 118.837 189.461 117.964 189.46Z" fill="black"/>
<path d="M120.193 34.0439L123.037 24.489L129.463 20.9175L127.797 18.0051L119.999 22.2921L116.059 30.9663L118.403 35.0284L120.193 34.0439Z" fill="white"/>
<path d="M118.404 35.9263C118.246 35.9264 118.091 35.885 117.954 35.8062C117.818 35.7274 117.704 35.614 117.626 35.4774L115.281 31.4153C115.21 31.2916 115.169 31.1526 115.162 31.0099C115.155 30.8672 115.182 30.725 115.242 30.5949L119.182 21.9205C119.262 21.7441 119.397 21.5984 119.567 21.5051L127.365 17.2181C127.571 17.1046 127.814 17.0767 128.04 17.1405C128.267 17.2043 128.46 17.3547 128.576 17.5592L130.242 20.4715C130.301 20.5747 130.339 20.6886 130.353 20.8065C130.368 20.9245 130.359 21.0442 130.327 21.1586C130.295 21.2731 130.241 21.3801 130.167 21.4735C130.094 21.5668 130.003 21.6446 129.899 21.7023L123.793 25.096L121.053 34.3C120.986 34.5262 120.832 34.7168 120.625 34.8305L118.835 35.815C118.703 35.888 118.554 35.9263 118.404 35.9263ZM117.067 30.9173L118.741 33.8178L119.438 33.4344L122.177 24.2326C122.244 24.0077 122.396 23.818 122.601 23.704L128.232 20.574L127.456 19.2171L120.693 22.9352L117.067 30.9173Z" fill="black"/>
<path d="M121.521 29.4572L128.476 25.7144L130.11 28.5902L118.403 35.0282L116.688 32.0575L121.521 29.4572Z" fill="white"/>
<path d="M118.404 35.9264C118.246 35.9265 118.091 35.885 117.955 35.8062C117.818 35.7274 117.705 35.614 117.626 35.4774L115.911 32.5067C115.851 32.4026 115.813 32.2875 115.798 32.1682C115.783 32.0489 115.792 31.9279 115.825 31.8123C115.858 31.6966 115.914 31.5888 115.989 31.4951C116.064 31.4014 116.158 31.3238 116.263 31.2669L128.051 24.9236C128.258 24.8125 128.499 24.7866 128.725 24.8514C128.95 24.9163 129.141 25.0667 129.257 25.2706L130.891 28.1466C130.95 28.2501 130.988 28.3642 131.002 28.4823C131.016 28.6005 131.007 28.7203 130.975 28.8348C130.942 28.9493 130.887 29.0562 130.813 29.1493C130.739 29.2425 130.648 29.32 130.543 29.3773L118.836 35.8153C118.704 35.8884 118.555 35.9266 118.404 35.9264ZM117.928 32.4094L118.741 33.8172L128.88 28.2415L128.129 26.92L121.946 30.2474L117.928 32.4094Z" fill="black"/>
<path d="M113.241 66.6305C113.125 66.6305 113.009 66.6223 112.894 66.6062C112.246 66.515 111.66 66.17 111.266 65.6469C110.873 65.1239 110.702 64.4657 110.794 63.8172L115.011 33.8076C115.102 33.159 115.447 32.5733 115.97 32.1791C116.492 31.785 117.15 31.6148 117.799 31.7059C118.447 31.7971 119.032 32.1421 119.426 32.6652C119.82 33.1882 119.99 33.8464 119.899 34.495L115.682 64.5047C115.599 65.0938 115.307 65.6331 114.858 66.0237C114.41 66.4142 113.835 66.6297 113.241 66.6305Z" fill="black"/>
<path d="M83.5318 65.8744L112.767 61.6651C113.415 61.5722 114.074 61.7331 114.607 62.1142C115.139 62.4954 115.504 63.0674 115.625 63.711C115.746 64.3546 115.614 65.0202 115.257 65.569C114.9 66.1178 114.344 66.5074 113.707 66.6567L84.9438 73.3752C83.9587 73.6028 82.9236 73.4301 82.0655 72.8952C81.2074 72.3603 80.5965 71.5067 80.3666 70.5217C80.1367 69.5367 80.3068 68.5007 80.8394 67.641C81.372 66.7812 82.2237 66.1679 83.2076 65.9355C83.3134 65.9108 83.4264 65.8899 83.5318 65.8744Z" fill="black"/>
<path d="M84.2391 74.4136C86.8829 74.4136 89.0261 72.2695 89.0261 69.6245C89.0261 66.9796 86.8829 64.8354 84.2391 64.8354C81.5953 64.8354 79.4521 66.9796 79.4521 69.6245C79.4521 72.2695 81.5953 74.4136 84.2391 74.4136Z" fill="white"/>
<path d="M84.2477 75.3141C83.7506 75.3136 83.2557 75.2482 82.7756 75.1196C81.3904 74.7463 80.199 73.8601 79.4428 72.6406C78.6866 71.421 78.4222 69.9594 78.7033 68.5521C78.9844 67.1448 79.7899 65.8971 80.9564 65.0619C82.123 64.2267 83.5634 63.8666 84.9855 64.0546C86.4077 64.2425 87.7052 64.9645 88.6149 66.074C89.5247 67.1836 89.9787 68.5978 89.8849 70.0299C89.791 71.4619 89.1564 72.8047 88.1096 73.786C87.0628 74.7672 85.6822 75.3135 84.2477 75.3141ZM84.232 65.7319C83.2414 65.7315 82.2877 66.1082 81.5645 66.7854C80.8413 67.4627 80.4027 68.3898 80.3377 69.3787C80.2727 70.3676 80.5862 71.3443 81.2145 72.1104C81.8428 72.8766 82.739 73.375 83.7211 73.5044C84.7032 73.6338 85.6978 73.3846 86.503 72.8073C87.3082 72.2301 87.8637 71.368 88.0569 70.3959C88.25 69.4239 88.0664 68.4148 87.5431 67.5733C87.0199 66.7318 86.1963 66.1209 85.2394 65.8646C84.9107 65.7767 84.5719 65.7321 84.2317 65.7319H84.232Z" fill="black"/>
<path d="M113.238 67.9021C115.303 67.9021 116.978 66.227 116.978 64.1606C116.978 62.0943 115.303 60.4192 113.238 60.4192C111.172 60.4192 109.498 62.0943 109.498 64.1606C109.498 66.227 111.172 67.9021 113.238 67.9021Z" fill="white"/>
<path d="M113.245 68.8023C112.84 68.802 112.436 68.7488 112.045 68.6441C111.158 68.408 110.362 67.9142 109.756 67.2252C109.15 66.5363 108.762 65.6831 108.641 64.7735C108.52 63.864 108.671 62.9389 109.076 62.1153C109.48 61.2917 110.119 60.6066 110.913 60.1466C111.529 59.7905 112.218 59.5808 112.927 59.5336C113.637 59.4865 114.347 59.6032 115.004 59.8746C115.662 60.1461 116.248 60.5651 116.717 61.0993C117.187 61.6335 117.527 62.2685 117.712 62.9553C117.897 63.6421 117.922 64.3623 117.784 65.0601C117.647 65.758 117.351 66.4149 116.919 66.9801C116.487 67.5452 115.931 68.0035 115.294 68.3194C114.657 68.6354 113.956 68.8006 113.245 68.8023ZM111.813 61.7005C111.327 61.9825 110.935 62.4024 110.687 62.9072C110.439 63.412 110.346 63.9789 110.421 64.5364C110.495 65.0939 110.733 65.6168 111.104 66.039C111.475 66.4613 111.963 66.7639 112.507 66.9086C113.05 67.0533 113.624 67.0336 114.156 66.852C114.688 66.6704 115.154 66.335 115.496 65.8883C115.837 65.4416 116.038 64.9036 116.074 64.3424C116.11 63.7812 115.979 63.2219 115.697 62.7353C115.512 62.4103 115.264 62.1255 114.968 61.8972C114.671 61.669 114.333 61.5018 113.971 61.4056C113.61 61.3093 113.233 61.2858 112.862 61.3364C112.492 61.3871 112.135 61.5108 111.813 61.7005Z" fill="black"/>
<path d="M117.455 37.8921C119.52 37.8921 121.194 36.217 121.194 34.1507C121.194 32.0843 119.52 30.4092 117.455 30.4092C115.389 30.4092 113.715 32.0843 113.715 34.1507C113.715 36.217 115.389 37.8921 117.455 37.8921Z" fill="white"/>
<path d="M117.463 38.792C117.057 38.7917 116.653 38.7385 116.261 38.6338C115.375 38.3977 114.579 37.9039 113.973 37.215C113.367 36.526 112.979 35.6728 112.858 34.7632C112.737 33.8537 112.888 32.9286 113.293 32.105C113.697 31.2815 114.336 30.5964 115.13 30.1363C115.745 29.7803 116.435 29.5706 117.144 29.5234C117.853 29.4762 118.564 29.5929 119.221 29.8644C119.878 30.1358 120.464 30.5548 120.934 31.089C121.403 31.6231 121.744 32.2581 121.929 32.9449C122.114 33.6317 122.139 34.3518 122.001 35.0497C121.864 35.7476 121.568 36.4045 121.136 36.9696C120.704 37.5348 120.149 37.9931 119.512 38.3091C118.875 38.6251 118.174 38.7903 117.463 38.792ZM116.03 31.6903C115.544 31.9722 115.152 32.3921 114.904 32.8969C114.656 33.4017 114.563 33.9687 114.637 34.5261C114.712 35.0836 114.95 35.6065 115.321 36.0288C115.692 36.4511 116.18 36.7537 116.723 36.8984C117.267 37.0431 117.841 37.0234 118.373 36.8418C118.905 36.6602 119.371 36.3248 119.712 35.8781C120.054 35.4314 120.255 34.8934 120.291 34.3322C120.327 33.7709 120.196 33.2116 119.914 32.725C119.536 32.0731 118.914 31.5981 118.186 31.4041C117.458 31.2101 116.682 31.313 116.03 31.6903Z" fill="black"/>
<path d="M73.93 48.2797L67.0723 32.3411L46.3302 36.9805L40.4961 46.858L47.9009 62.9463L73.93 48.2797Z" fill="white"/>
<path d="M47.901 63.8442C47.7295 63.8442 47.5615 63.795 47.417 63.7024C47.2725 63.6099 47.1575 63.4778 47.0858 63.3219L39.6809 47.2336C39.6202 47.1017 39.5924 46.9571 39.5998 46.8121C39.6072 46.6672 39.6496 46.5262 39.7234 46.4012L45.5575 36.5237C45.62 36.4181 45.7034 36.3265 45.8026 36.2544C45.9018 36.1823 46.0147 36.1314 46.1344 36.1046L66.8765 31.4652C67.0807 31.4196 67.2943 31.4467 67.4806 31.5419C67.6669 31.6371 67.8141 31.7944 67.8968 31.9866L74.7545 47.9253C74.8421 48.1289 74.8513 48.3577 74.7805 48.5676C74.7096 48.7776 74.5636 48.9539 74.3705 49.0627L48.3414 63.7293C48.207 63.8048 48.0553 63.8444 47.901 63.8442ZM41.5081 46.9096L48.3088 61.6857L72.7865 47.8934L66.5421 33.3797L46.9054 37.7718L41.5081 46.9096Z" fill="black"/>
<path d="M47.9004 62.9464L53.7345 53.6675L73.9295 48.2798L68.7686 56.5859L47.9004 62.9464Z" fill="black"/>
<path d="M47.9007 63.8442C47.7402 63.8443 47.5827 63.8013 47.4445 63.7197C47.3063 63.6382 47.1925 63.521 47.1149 63.3805C47.0373 63.24 46.9987 63.0812 47.0033 62.9208C47.0078 62.7603 47.0553 62.604 47.1408 62.4681L52.9749 53.1893C53.0956 52.9975 53.2844 52.8585 53.5034 52.8001L73.6984 47.4124C73.8722 47.366 74.056 47.373 74.2258 47.4324C74.3957 47.4918 74.5438 47.6008 74.6509 47.7455C74.758 47.8901 74.8192 48.0636 74.8265 48.2435C74.8338 48.4233 74.7869 48.6012 74.692 48.7541L69.531 57.0602C69.4163 57.245 69.2383 57.3818 69.0303 57.4453L48.1622 63.8058C48.0774 63.8314 47.9893 63.8444 47.9007 63.8442ZM54.3065 54.4441L49.9423 61.3852L68.1845 55.8251L71.9706 49.7314L54.3065 54.4441Z" fill="black"/>
<path d="M61.8649 54.7458C61.0006 54.624 60.1234 54.8507 59.4262 55.3761C58.7289 55.9014 58.2688 56.6823 58.1471 57.547L56.5351 68.9971C56.4748 69.4253 56.4994 69.8611 56.6075 70.2798C56.7156 70.6984 56.905 71.0917 57.165 71.4371C57.425 71.7825 57.7505 72.0732 58.1228 72.2928C58.4951 72.5124 58.9071 72.6564 59.335 72.7167C59.4887 72.7384 59.6436 72.7493 59.7988 72.7493C60.5914 72.7481 61.3569 72.4608 61.9548 71.9402C62.5527 71.4196 62.9428 70.7007 63.0535 69.9155L64.6653 58.4653C64.7256 58.0371 64.701 57.6012 64.5928 57.1826C64.4847 56.7639 64.2952 56.3707 64.0352 56.0253C63.7751 55.6799 63.4496 55.3891 63.0773 55.1696C62.7049 54.9501 62.2929 54.8061 61.8649 54.7458Z" fill="black"/>
<path d="M56.2035 44.9124C57.2775 44.9124 58.1482 44.0413 58.1482 42.9668C58.1482 41.8923 57.2775 41.0212 56.2035 41.0212C55.1295 41.0212 54.2588 41.8923 54.2588 42.9668C54.2588 44.0413 55.1295 44.9124 56.2035 44.9124Z" fill="black"/>
<path d="M64.6791 42.9668C65.7531 42.9668 66.6238 42.0958 66.6238 41.0212C66.6238 39.9467 65.7531 39.0757 64.6791 39.0757C63.605 39.0757 62.7344 39.9467 62.7344 41.0212C62.7344 42.0958 63.605 42.9668 64.6791 42.9668Z" fill="black"/>
<path d="M53.7356 54.5653C53.5619 54.5654 53.3918 54.515 53.2461 54.4202C53.1005 54.3254 52.9854 54.1904 52.9149 54.0315L45.5101 37.3445C45.46 37.2364 45.4319 37.1194 45.4274 37.0003C45.4229 36.8812 45.4422 36.7624 45.4841 36.6509C45.5259 36.5393 45.5896 36.4372 45.6713 36.3505C45.753 36.2638 45.8512 36.1942 45.9601 36.1459C46.0689 36.0975 46.1864 36.0713 46.3055 36.0688C46.4245 36.0663 46.5429 36.0875 46.6538 36.1313C46.7646 36.175 46.8656 36.2404 46.9509 36.3236C47.0362 36.4068 47.104 36.5061 47.1506 36.6158L54.5554 53.3028C54.6161 53.4395 54.6417 53.5892 54.6299 53.7383C54.6181 53.8873 54.5693 54.0311 54.4878 54.1565C54.4064 54.282 54.2949 54.385 54.1636 54.4564C54.0322 54.5278 53.8851 54.5652 53.7356 54.5653Z" fill="black"/>
<path d="M45.6554 71.9204L38.8438 84.6137L50.6059 123.99L61.2887 127.593L56.0614 97.5396L45.6554 71.9204Z" fill="white"/>
<path d="M61.2887 128.491C61.1912 128.491 61.0944 128.475 61.0021 128.444L50.3192 124.841C50.1832 124.795 50.0601 124.717 49.9603 124.613C49.8606 124.51 49.7871 124.384 49.746 124.247L37.9838 84.8715C37.9159 84.644 37.9408 84.3989 38.0531 84.1898L44.8648 71.4964C44.9454 71.3462 45.067 71.2221 45.2155 71.1385C45.3641 71.0549 45.5333 71.0154 45.7034 71.0245C45.8736 71.0336 46.0376 71.0909 46.1764 71.1898C46.3152 71.2888 46.423 71.4252 46.4871 71.5831L56.8929 97.2016C56.917 97.2609 56.9347 97.3226 56.9457 97.3856L62.1731 127.439C62.1955 127.568 62.1895 127.7 62.1554 127.827C62.1213 127.953 62.06 128.07 61.9757 128.171C61.8915 128.271 61.7863 128.351 61.6676 128.407C61.5489 128.462 61.4196 128.491 61.2887 128.491ZM51.3329 123.287L60.1466 126.26L55.195 97.7885L45.5429 74.0285L39.8099 84.7118L51.3329 123.287Z" fill="black"/>
<path d="M94.1428 117.763L61.2886 127.593L45.6553 71.9204L81.4321 63.8079L94.1428 117.763Z" fill="white"/>
<path d="M61.2886 128.491C61.0929 128.491 60.9025 128.427 60.7466 128.308C60.5906 128.19 60.4775 128.024 60.4246 127.835L44.7913 72.1623C44.7583 72.0451 44.7496 71.9224 44.7656 71.8017C44.7815 71.681 44.8219 71.5648 44.8842 71.4602C44.9464 71.3555 45.0293 71.2647 45.1278 71.1931C45.2262 71.1215 45.3382 71.0707 45.4569 71.0438L81.2338 62.9314C81.4646 62.8791 81.7068 62.9201 81.9075 63.0455C82.1083 63.1709 82.2514 63.3706 82.3057 63.6011L95.0163 117.557C95.0688 117.78 95.0342 118.014 94.9197 118.212C94.8051 118.411 94.6191 118.558 94.3998 118.623L61.5456 128.453C61.4622 128.478 61.3756 128.49 61.2886 128.491ZM46.7748 72.5872L61.9058 126.471L93.0751 117.145L80.7627 64.8804L46.7748 72.5872Z" fill="black"/>
<path d="M78.9119 89.9703L75.8991 77.6653L58.6777 81.8625L62.0887 94.4817L78.9119 89.9703Z" fill="#78B4B7"/>
<path d="M62.0881 95.3798C61.891 95.3797 61.6993 95.3146 61.5428 95.1947C61.3863 95.0747 61.2737 94.9065 61.2223 94.7161L57.8116 82.097C57.7802 81.9813 57.7723 81.8605 57.7884 81.7417C57.8044 81.6229 57.8441 81.5085 57.9051 81.4053C57.966 81.302 58.047 81.2121 58.1433 81.1407C58.2396 81.0693 58.3491 81.0179 58.4656 80.9895L75.687 76.7922C75.918 76.7361 76.1618 76.7739 76.3651 76.8973C76.5683 77.0208 76.7143 77.2198 76.7712 77.4507L79.7842 89.7557C79.84 89.9837 79.8043 90.2246 79.6848 90.4266C79.5652 90.6287 79.3713 90.7759 79.1446 90.8366L62.321 95.349C62.2451 95.3695 62.1668 95.3799 62.0881 95.3798ZM59.7844 82.517L62.7213 93.3822L77.8312 89.3303L75.2403 78.7505L59.7844 82.517Z" fill="#78B4B7"/>
<path d="M51.6772 121.757C51.0765 121.539 50.4387 121.442 49.8003 121.471C49.1619 121.499 48.5354 121.654 47.9566 121.924C47.3777 122.195 46.8579 122.578 46.4267 123.049C45.9956 123.521 45.6615 124.073 45.4437 124.674L32.5168 160.338C32.23 161.124 32.2581 161.99 32.5952 162.756C32.9322 163.521 33.5522 164.127 34.3253 164.445C35.0984 164.764 35.9648 164.771 36.743 164.465C37.5212 164.159 38.151 163.564 38.5005 162.804L54.4342 128.38C54.4904 128.257 54.5464 128.123 54.5931 127.994C54.8109 127.393 54.9083 126.755 54.8797 126.116C54.8511 125.477 54.697 124.85 54.4262 124.271C54.1555 123.692 53.7733 123.172 53.3016 122.741C52.83 122.31 52.278 121.975 51.6772 121.757Z" fill="black"/>
<path d="M46.6493 196.561L38.6461 160.867C38.5549 160.454 38.383 160.062 38.1403 159.715C37.8975 159.368 37.5887 159.073 37.2315 158.845C36.8743 158.618 36.4758 158.463 36.0587 158.391C35.6417 158.318 35.2144 158.328 34.8013 158.421C34.3882 158.513 33.9975 158.687 33.6516 158.931C33.3056 159.175 33.0112 159.485 32.7853 159.843C32.5594 160.201 32.4064 160.601 32.335 161.018C32.2637 161.436 32.2755 161.863 32.3696 162.276L40.3728 197.97C40.5621 198.8 41.0725 199.521 41.7922 199.975C42.5118 200.429 43.3821 200.58 44.2125 200.394C45.0428 200.207 45.7655 199.699 46.2222 198.981C46.679 198.263 46.8325 197.392 46.6493 196.561Z" fill="black"/>
<path d="M49.9391 133.561C53.8221 133.561 56.9699 130.412 56.9699 126.527C56.9699 122.642 53.8221 119.493 49.9391 119.493C46.056 119.493 42.9082 122.642 42.9082 126.527C42.9082 130.412 46.056 133.561 49.9391 133.561Z" fill="white"/>
<path d="M49.9391 134.459C48.3711 134.459 46.8382 133.994 45.5344 133.122C44.2305 132.251 43.2143 131.012 42.6143 129.563C42.0142 128.113 41.8572 126.518 42.1631 124.98C42.469 123.441 43.2241 122.028 44.3329 120.918C45.4417 119.809 46.8544 119.054 48.3924 118.748C49.9303 118.442 51.5245 118.599 52.9732 119.199C54.4219 119.799 55.6602 120.816 56.5314 122.12C57.4026 123.425 57.8675 124.958 57.8675 126.527C57.8652 128.63 57.0291 130.646 55.5427 132.133C54.0564 133.62 52.0412 134.457 49.9391 134.459ZM49.9391 120.391C48.7261 120.391 47.5403 120.751 46.5317 121.425C45.5231 122.099 44.7369 123.058 44.2727 124.179C43.8085 125.3 43.687 126.534 43.9237 127.724C44.1604 128.915 44.7445 130.008 45.6023 130.866C46.46 131.724 47.5529 132.309 48.7426 132.545C49.9323 132.782 51.1655 132.661 52.2863 132.196C53.407 131.732 54.3649 130.945 55.0388 129.936C55.7127 128.927 56.0724 127.741 56.0724 126.527C56.0706 124.9 55.4238 123.341 54.274 122.19C53.1242 121.04 51.5652 120.393 49.9391 120.391Z" fill="black"/>
<path d="M35.508 166.66C38.317 166.66 40.5942 164.382 40.5942 161.572C40.5942 158.761 38.317 156.483 35.508 156.483C32.699 156.483 30.4219 158.761 30.4219 161.572C30.4219 164.382 32.699 166.66 35.508 166.66Z" fill="white"/>
<path d="M35.5081 167.558C34.3247 167.558 33.1678 167.207 32.1838 166.549C31.1997 165.891 30.4328 164.956 29.9799 163.862C29.527 162.769 29.4085 161.565 29.6394 160.404C29.8703 159.242 30.4402 158.176 31.277 157.339C32.1138 156.501 33.18 155.931 34.3408 155.7C35.5015 155.469 36.7046 155.588 37.798 156.041C38.8914 156.494 39.8259 157.261 40.4834 158.246C41.1409 159.23 41.4918 160.388 41.4918 161.572C41.49 163.159 40.859 164.68 39.7372 165.803C38.6155 166.925 37.0945 167.556 35.5081 167.558ZM35.5081 157.381C34.6797 157.381 33.8699 157.627 33.1811 158.087C32.4923 158.548 31.9554 159.202 31.6384 159.968C31.3213 160.734 31.2384 161.576 31.4 162.389C31.5616 163.202 31.9606 163.949 32.5463 164.535C33.1321 165.121 33.8785 165.52 34.691 165.681C35.5035 165.843 36.3457 165.76 37.111 165.443C37.8764 165.126 38.5306 164.589 38.9908 163.9C39.4511 163.211 39.6967 162.4 39.6967 161.572C39.6955 160.461 39.2538 159.395 38.4685 158.61C37.6833 157.824 36.6186 157.382 35.5081 157.381Z" fill="black"/>
<path d="M52.2624 200.633V205.615L45.7225 214.85H30.4219V209.462" fill="white"/>
<path d="M45.7224 215.748H30.422C30.1839 215.748 29.9556 215.654 29.7873 215.485C29.619 215.317 29.5244 215.088 29.5244 214.85V209.462C29.5244 209.224 29.619 208.996 29.7873 208.827C29.9556 208.659 30.1839 208.564 30.422 208.564C30.66 208.564 30.8883 208.659 31.0566 208.827C31.225 208.996 31.3195 209.224 31.3195 209.462V213.952H45.2584L51.3649 205.33V200.633C51.3649 200.394 51.4595 200.166 51.6278 199.998C51.7961 199.829 52.0244 199.735 52.2625 199.735C52.5005 199.735 52.7288 199.829 52.8971 199.998C53.0655 200.166 53.16 200.394 53.16 200.633V205.616C53.1602 205.802 53.1027 205.984 52.9955 206.135L46.4554 215.37C46.3724 215.487 46.2624 215.583 46.1349 215.648C46.0074 215.714 45.8659 215.748 45.7224 215.748Z" fill="black"/>
<path d="M44.0105 194.962L30.4229 209.462H45.7233L52.2633 200.633L44.0105 194.962Z" fill="white"/>
<path d="M45.7229 210.36H30.4224C30.2475 210.36 30.0764 210.309 29.9301 210.213C29.7839 210.117 29.669 209.98 29.5994 209.819C29.5298 209.659 29.5087 209.481 29.5386 209.309C29.5685 209.137 29.6481 208.977 29.7676 208.849L43.3554 194.349C43.5022 194.192 43.7002 194.093 43.9135 194.07C44.1269 194.047 44.3414 194.101 44.5183 194.223L52.7711 199.893C52.8705 199.961 52.9551 200.049 53.0199 200.15C53.0847 200.252 53.1283 200.366 53.1482 200.485C53.168 200.604 53.1637 200.726 53.1355 200.843C53.1073 200.96 53.0557 201.071 52.9839 201.168L46.444 209.998C46.3605 210.11 46.2518 210.202 46.1265 210.265C46.0013 210.328 45.863 210.36 45.7229 210.36ZM32.4943 208.564H45.2709L50.9879 200.846L44.1376 196.139L32.4943 208.564Z" fill="black"/>
<path d="M45.7227 215.748C45.4847 215.748 45.2564 215.653 45.0881 215.485C44.9198 215.317 44.8252 215.088 44.8252 214.85V209.462C44.8252 209.224 44.9198 208.996 45.0881 208.827C45.2564 208.659 45.4847 208.564 45.7227 208.564C45.9608 208.564 46.1891 208.659 46.3574 208.827C46.5257 208.996 46.6203 209.224 46.6203 209.462V214.85C46.6203 215.088 46.5257 215.317 46.3574 215.485C46.1891 215.653 45.9608 215.748 45.7227 215.748Z" fill="black"/>
<path d="M43.4235 201.308C45.7393 201.308 47.6166 199.43 47.6166 197.113C47.6166 194.796 45.7393 192.918 43.4235 192.918C41.1078 192.918 39.2305 194.796 39.2305 197.113C39.2305 199.43 41.1078 201.308 43.4235 201.308Z" fill="white"/>
<path d="M43.4238 202.206C42.4169 202.206 41.4327 201.907 40.5955 201.348C39.7584 200.788 39.1059 199.993 38.7206 199.062C38.3352 198.131 38.2344 197.107 38.4308 196.119C38.6272 195.132 39.112 194.224 39.824 193.512C40.5359 192.799 41.443 192.314 42.4305 192.118C43.4179 191.921 44.4415 192.022 45.3717 192.408C46.3019 192.793 47.097 193.446 47.6563 194.283C48.2157 195.121 48.5143 196.106 48.5143 197.113C48.5128 198.463 47.976 199.758 47.0216 200.712C46.0673 201.667 44.7734 202.204 43.4238 202.206ZM43.4238 193.816C42.772 193.816 42.1348 194.009 41.5928 194.372C41.0509 194.734 40.6285 195.249 40.379 195.851C40.1296 196.454 40.0643 197.117 40.1914 197.756C40.3186 198.396 40.6325 198.983 41.0934 199.444C41.5543 199.905 42.1415 200.219 42.7808 200.347C43.42 200.474 44.0827 200.409 44.6848 200.159C45.287 199.909 45.8017 199.487 46.1638 198.945C46.5259 198.402 46.7192 197.765 46.7192 197.113C46.7182 196.239 46.3707 195.401 45.7529 194.783C45.1351 194.165 44.2975 193.817 43.4238 193.816Z" fill="black"/>
<path d="M16.563 139.15C16.4768 139.15 16.3907 139.146 16.3049 139.137C15.9825 139.103 15.6699 139.007 15.3848 138.852C15.0998 138.698 14.8479 138.489 14.6436 138.237C14.4394 137.985 14.2866 137.696 14.1942 137.385C14.1018 137.074 14.0715 136.748 14.105 136.425L17.309 105.577C17.3767 104.926 17.7002 104.328 18.2085 103.915C18.7168 103.502 19.3681 103.308 20.0192 103.376C20.6704 103.444 21.268 103.767 21.6805 104.276C22.0931 104.784 22.2869 105.436 22.2192 106.087L19.0151 136.936C18.9521 137.543 18.6667 138.105 18.2139 138.514C17.7611 138.923 17.173 139.149 16.563 139.15Z" fill="black"/>
<path d="M43.2251 85.6987L21.6422 107.541C21.1813 108.007 20.5581 108.277 19.9028 108.295C19.2476 108.312 18.611 108.075 18.1261 107.634C17.6412 107.193 17.3456 106.581 17.3008 105.927C17.2561 105.273 17.4659 104.627 17.8862 104.123L37.5813 80.563C38.2352 79.8004 39.1631 79.3262 40.1641 79.2433C41.165 79.1603 42.1583 79.4753 42.9287 80.12C43.6991 80.7647 44.1845 81.6871 44.2798 82.6874C44.3751 83.6877 44.0726 84.6852 43.4378 85.4639C43.3717 85.5438 43.2968 85.6257 43.2251 85.6987Z" fill="black"/>
<path d="M40.4022 87.92C43.0459 87.92 45.1891 85.7758 45.1891 83.1309C45.1891 80.4859 43.0459 78.3418 40.4022 78.3418C37.7584 78.3418 35.6152 80.4859 35.6152 83.1309C35.6152 85.7758 37.7584 87.92 40.4022 87.92Z" fill="white"/>
<path d="M40.4041 88.8184C39.2309 88.8188 38.0863 88.456 37.1274 87.7798C36.1684 87.1036 35.4421 86.1471 35.0481 85.0416C34.654 83.9361 34.6115 82.7357 34.9263 81.605C35.2412 80.4744 35.8981 79.4689 36.8067 78.7265C37.7154 77.9841 38.8315 77.5412 40.0018 77.4585C41.172 77.3758 42.3392 77.6574 43.3432 78.2646C44.3472 78.8718 45.1388 79.7749 45.6094 80.8501C46.08 81.9252 46.2066 83.1197 45.9718 84.2697C45.7079 85.5527 45.0102 86.7055 43.9961 87.5341C42.9819 88.3626 41.7134 88.8162 40.4041 88.8184ZM40.4013 79.2392C39.6654 79.2395 38.9448 79.4485 38.323 79.8421C37.7012 80.2357 37.2038 80.7977 36.8885 81.4629C36.5731 82.128 36.4529 82.8689 36.5416 83.5997C36.6304 84.3305 36.9245 85.021 37.3899 85.5912C37.8552 86.1615 38.4727 86.5879 39.1707 86.8211C39.8686 87.0543 40.6183 87.0846 41.3327 86.9086C42.0472 86.7325 42.6971 86.3573 43.207 85.8266C43.7168 85.2958 44.0657 84.6313 44.2132 83.9101C44.3284 83.3446 44.3165 82.7605 44.1783 82.2002C44.0402 81.6399 43.7793 81.1173 43.4145 80.6703C43.0496 80.2233 42.59 79.8629 42.0689 79.6154C41.5478 79.3679 40.9783 79.2394 40.4014 79.2392H40.4013Z" fill="black"/>
<path d="M19.7642 109.574C21.8297 109.574 23.504 107.898 23.504 105.832C23.504 103.766 21.8297 102.091 19.7642 102.091C17.6988 102.091 16.0244 103.766 16.0244 105.832C16.0244 107.898 17.6988 109.574 19.7642 109.574Z" fill="white"/>
<path d="M19.7734 110.473C19.1253 110.473 18.4843 110.338 17.8918 110.075C17.2992 109.812 16.7684 109.428 16.3334 108.947C15.8984 108.467 15.5689 107.9 15.3663 107.284C15.1636 106.668 15.0923 106.017 15.1568 105.371C15.2214 104.726 15.4204 104.102 15.7411 103.538C16.0617 102.975 16.4969 102.485 17.0185 102.1C17.5401 101.715 18.1365 101.444 18.7693 101.304C19.4021 101.164 20.0573 101.158 20.6925 101.287C21.8975 101.533 22.9552 102.248 23.6331 103.275C24.311 104.302 24.5534 105.556 24.3071 106.761C24.093 107.807 23.5252 108.747 22.6994 109.423C21.8736 110.099 20.8403 110.47 19.7733 110.473L19.7734 110.473ZM19.7629 102.988C19.2252 102.988 18.6986 103.141 18.2442 103.429C17.7897 103.716 17.4262 104.127 17.1957 104.613C16.9653 105.099 16.8774 105.641 16.9422 106.175C17.007 106.709 17.222 107.213 17.562 107.63C17.9021 108.047 18.3533 108.358 18.8634 108.529C19.3734 108.699 19.9213 108.721 20.4434 108.593C20.9655 108.464 21.4404 108.19 21.813 107.802C22.1856 107.414 22.4406 106.929 22.5483 106.401C22.6326 105.988 22.6239 105.561 22.523 105.152C22.422 104.742 22.2314 104.361 21.9648 104.034C21.6982 103.707 21.3623 103.444 20.9814 103.263C20.6006 103.082 20.1843 102.988 19.7628 102.988H19.7629Z" fill="black"/>
<path d="M14.0965 137.348L1.04297 147.169L3.02671 149.92L18.3426 139.31L14.0965 137.348Z" fill="white"/>
<path d="M3.02763 150.818C2.88534 150.818 2.74506 150.784 2.61837 150.72C2.49169 150.655 2.38225 150.561 2.29911 150.445L0.315218 147.694C0.177725 147.504 0.120434 147.267 0.155648 147.034C0.190862 146.802 0.315772 146.593 0.503555 146.451L13.5573 136.631C13.6869 136.533 13.8405 136.473 14.0017 136.455C14.163 136.438 14.3259 136.465 14.4731 136.533L18.7191 138.495C18.8628 138.561 18.9863 138.665 19.0773 138.794C19.1682 138.924 19.2233 139.075 19.237 139.233C19.2507 139.39 19.2224 139.549 19.1551 139.692C19.0878 139.835 18.9838 139.958 18.8538 140.049L3.53789 150.658C3.38808 150.762 3.21003 150.818 3.02763 150.818ZM2.2858 147.358L3.23975 148.68L16.5409 139.467L14.2073 138.389L2.2858 147.358Z" fill="black"/>
<path d="M10.8482 148.054L8.43359 146.174L15.2656 137.889L18.9203 139.577L10.8482 148.054Z" fill="white"/>
<path d="M10.8479 148.952C10.6483 148.953 10.4544 148.886 10.297 148.763L7.88241 146.883C7.78771 146.809 7.70876 146.717 7.65021 146.613C7.59167 146.508 7.55472 146.392 7.54155 146.273C7.52839 146.154 7.53927 146.033 7.57356 145.918C7.60785 145.803 7.66485 145.696 7.74119 145.603L14.5732 137.317C14.6994 137.164 14.8727 137.057 15.066 137.013C15.2594 136.969 15.4619 136.99 15.6419 137.073L19.2968 138.762C19.4263 138.822 19.5398 138.912 19.6277 139.024C19.7155 139.137 19.7753 139.269 19.8021 139.409C19.8288 139.549 19.8217 139.694 19.7814 139.831C19.7411 139.968 19.6687 140.093 19.5702 140.197L11.4979 148.674C11.4141 148.762 11.3133 148.832 11.2015 148.88C11.0898 148.928 10.9695 148.953 10.8479 148.952ZM9.71372 146.034L10.7585 146.848L17.4055 139.866L15.5176 138.994L9.71372 146.034Z" fill="black"/>
<path d="M16.5601 140.422C18.6256 140.422 20.2999 138.747 20.2999 136.681C20.2999 134.614 18.6256 132.939 16.5601 132.939C14.4947 132.939 12.8203 134.614 12.8203 136.681C12.8203 138.747 14.4947 140.422 16.5601 140.422Z" fill="white"/>
<path d="M16.5694 141.321C16.2542 141.321 15.9399 141.289 15.6311 141.226C14.7326 141.042 13.9087 140.596 13.2636 139.944C12.6186 139.291 12.1813 138.462 12.0072 137.561C11.8331 136.661 11.9299 135.728 12.2854 134.882C12.6408 134.037 13.2391 133.315 14.0043 132.81C14.7696 132.304 15.6676 132.036 16.5848 132.041C17.5019 132.046 18.397 132.323 19.1569 132.837C19.9168 133.351 20.5074 134.078 20.8539 134.928C21.2004 135.777 21.2873 136.711 21.1037 137.61C20.8895 138.655 20.3218 139.595 19.496 140.271C18.6702 140.947 17.6368 141.318 16.5698 141.321L16.5694 141.321ZM16.5544 133.836C16.0169 133.837 15.4908 133.991 15.037 134.279C14.5832 134.567 14.2204 134.978 13.9907 135.464C13.761 135.95 13.6737 136.492 13.7391 137.025C13.8045 137.559 14.0197 138.063 14.36 138.48C14.7002 138.896 15.1515 139.207 15.6613 139.377C16.1712 139.547 16.7189 139.569 17.2407 139.441C17.7626 139.312 18.2372 139.038 18.6096 138.65C18.9821 138.262 19.237 137.777 19.3448 137.25C19.4957 136.511 19.3471 135.743 18.9317 135.113C18.5162 134.484 17.868 134.046 17.1294 133.895C16.9401 133.856 16.7473 133.836 16.554 133.836H16.5544Z" fill="black"/>
<path d="M50.814 33.2373C50.6866 33.2376 50.5607 33.2104 50.4447 33.1577C50.3287 33.105 50.2254 33.028 50.1418 32.9319C50.0478 32.8246 47.8388 30.2314 47.3794 24.0263C46.7589 15.6472 51.483 10.5184 51.6845 10.3041C51.8478 10.1319 52.0726 10.0314 52.3098 10.0245C52.5469 10.0177 52.7771 10.1051 52.9501 10.2676C53.123 10.4301 53.2246 10.6545 53.2327 10.8917C53.2407 11.1289 53.1545 11.3597 52.993 11.5335C52.9299 11.6017 48.6108 16.3482 49.1694 23.8935C49.3842 26.7935 50.0071 28.7787 50.4923 29.9335C51.0149 31.1782 51.4929 31.7493 51.4977 31.755C51.6089 31.8857 51.6805 32.0455 51.7038 32.2156C51.7272 32.3857 51.7014 32.5589 51.6295 32.7148C51.5576 32.8707 51.4426 33.0027 51.2981 33.0953C51.1536 33.1879 50.9856 33.2372 50.814 33.2373Z" fill="black"/>
<path d="M54.5574 11.8377C56.2924 11.8377 57.6989 10.4306 57.6989 8.69484C57.6989 6.9591 56.2924 5.552 54.5574 5.552C52.8225 5.552 51.416 6.9591 51.416 8.69484C51.416 10.4306 52.8225 11.8377 54.5574 11.8377Z" fill="#E5D2BD"/>
<path d="M54.5576 12.7356C53.7587 12.7356 52.9778 12.4986 52.3136 12.0546C51.6494 11.6106 51.1317 10.9795 50.826 10.2412C50.5203 9.50283 50.4403 8.69036 50.5962 7.90653C50.752 7.12269 51.1367 6.40269 51.7015 5.83757C52.2664 5.27246 52.9861 4.88761 53.7696 4.7317C54.5531 4.57578 55.3652 4.6558 56.1032 4.96164C56.8412 5.26748 57.472 5.7854 57.9159 6.4499C58.3597 7.11441 58.5965 7.89565 58.5965 8.69484C58.5953 9.76615 58.1694 10.7932 57.4122 11.5508C56.655 12.3083 55.6284 12.7344 54.5576 12.7356ZM54.5576 6.44996C54.1138 6.44996 53.6799 6.58162 53.3109 6.82829C52.9419 7.07496 52.6543 7.42557 52.4845 7.83576C52.3146 8.24596 52.2702 8.69733 52.3568 9.1328C52.4434 9.56826 52.6571 9.96826 52.9709 10.2822C53.2847 10.5962 53.6845 10.81 54.1198 10.8966C54.5551 10.9832 55.0062 10.9388 55.4163 10.7688C55.8263 10.5989 56.1767 10.3112 56.4233 9.94203C56.6698 9.57287 56.8014 9.13884 56.8014 8.69484C56.8008 8.09966 56.5642 7.52903 56.1435 7.10817C55.7228 6.68731 55.1525 6.45059 54.5576 6.44996Z" fill="#E5D2BD"/>
</svg>
