<?xml version="1.0" standalone="no"?>
<!DOCTYPE svg PUBLIC "-//W3C//DTD SVG 20010904//EN"
 "http://www.w3.org/TR/2001/REC-SVG-20010904/DTD/svg10.dtd">
<svg version="1.0" xmlns="http://www.w3.org/2000/svg"
 width="300.000000pt" height="300.000000pt" viewBox="0 0 300.000000 300.000000"
 preserveAspectRatio="xMidYMid meet">

<g transform="translate(0.000000,300.000000) scale(0.100000,-0.100000)"
fill="#000000" stroke="none">
<path d="M852 2672 l-73 -67 3 -98 3 -98 56 53 56 53 18 108 c10 59 16 109 14
112 -2 2 -37 -26 -77 -63z"/>
<path d="M1981 2719 c0 -13 8 -67 18 -119 19 -94 19 -95 72 -143 l54 -48 3 92
c1 51 1 98 -2 104 -2 6 -36 39 -75 74 -63 56 -71 60 -70 40z"/>
<path d="M686 2521 l-68 -68 28 -97 c15 -53 31 -96 34 -96 4 0 22 27 40 61 29
54 33 72 38 165 2 57 3 104 1 104 -3 0 -35 -31 -73 -69z"/>
<path d="M2152 2490 c4 -93 8 -112 37 -167 17 -35 35 -63 39 -63 5 0 21 43 36
96 l28 97 -72 71 -72 71 4 -105z"/>
<path d="M827 2417 l-48 -42 24 -80 25 -80 10 40 c20 77 44 196 40 200 -2 2
-25 -15 -51 -38z"/>
<path d="M2030 2447 c0 -16 22 -119 42 -192 l10 -40 18 57 c34 110 35 102 -20
148 -33 28 -50 37 -50 27z"/>
<path d="M544 2330 l-51 -99 64 -93 c35 -51 67 -94 72 -96 4 -1 14 36 21 82
13 82 12 88 -15 183 -15 54 -30 103 -34 110 -3 6 -29 -33 -57 -87z"/>
<path d="M2286 2346 c-15 -46 -29 -98 -32 -115 -8 -37 15 -193 27 -189 4 2 37
45 72 96 l64 92 -50 98 c-27 53 -51 98 -53 100 -1 2 -14 -35 -28 -82z"/>
<path d="M723 2277 l-31 -63 42 -67 c23 -36 44 -69 48 -72 3 -3 10 20 16 52 9
49 7 69 -11 136 -12 42 -24 77 -27 77 -3 0 -20 -28 -37 -63z"/>
<path d="M2123 2263 c-18 -66 -19 -87 -11 -137 11 -59 11 -59 28 -36 9 13 30
47 46 76 l28 53 -29 60 c-16 34 -32 61 -35 61 -4 0 -16 -35 -27 -77z"/>
<path d="M467 2078 c-16 -105 -16 -112 1 -124 9 -7 53 -39 97 -72 44 -33 80
-60 81 -59 1 1 -5 42 -13 91 -13 83 -18 94 -75 175 -33 47 -63 89 -67 94 -4 4
-15 -43 -24 -105z"/>
<path d="M2357 2096 c-63 -90 -68 -100 -81 -183 -8 -48 -13 -89 -12 -90 0 -1
37 26 81 59 44 33 88 65 98 72 16 12 16 18 -1 125 l-18 113 -67 -96z"/>
<path d="M677 2128 c-3 -24 -9 -61 -12 -84 -7 -40 -6 -41 51 -85 93 -71 88
-71 80 2 -6 53 -16 77 -54 136 -26 40 -50 73 -53 73 -4 0 -9 -19 -12 -42z"/>
<path d="M2168 2097 c-38 -58 -48 -84 -54 -136 -6 -53 -5 -63 7 -56 11 7 81
62 122 96 9 7 -13 169 -23 169 -4 0 -27 -33 -52 -73z"/>
<path d="M664 1930 c4 -25 10 -64 13 -87 l6 -43 83 -27 c46 -15 86 -25 89 -22
10 11 -56 117 -88 141 -17 13 -50 37 -71 54 l-39 29 7 -45z"/>
<path d="M2175 1916 c-49 -37 -79 -69 -99 -105 -15 -29 -25 -55 -22 -59 4 -3
44 6 90 21 l83 27 12 81 c7 45 11 83 9 84 -2 2 -35 -20 -73 -49z"/>
<path d="M451 1908 c0 -12 8 -65 18 -117 l17 -95 118 -39 c64 -21 120 -37 122
-34 3 3 -13 40 -34 83 -41 81 -44 84 -189 188 -51 37 -53 37 -52 14z"/>
<path d="M2357 1858 c-93 -67 -100 -75 -138 -150 -22 -44 -38 -82 -35 -85 2
-3 58 13 122 34 l118 39 18 100 c10 54 17 107 15 116 -1 13 -24 1 -100 -54z"/>
<path d="M700 1754 c0 -4 18 -39 40 -80 l41 -72 57 4 c31 3 76 7 100 10 l43 5
-52 47 c-41 37 -68 52 -128 69 -80 24 -101 27 -101 17z"/>
<path d="M2104 1736 c-54 -16 -84 -32 -123 -68 l-52 -47 43 -5 c24 -3 69 -7
100 -10 l57 -4 41 73 c22 41 40 77 40 80 0 9 -33 3 -106 -19z"/>
<path d="M512 1649 c4 -8 29 -54 56 -104 l50 -90 134 -3 133 -3 -68 69 c-64
64 -73 70 -165 99 -148 48 -146 47 -140 32z"/>
<path d="M2268 1622 c-102 -35 -112 -41 -175 -104 l-68 -68 132 0 132 0 55
101 c31 56 56 104 56 105 0 9 -31 0 -132 -34z"/>
<path d="M851 1591 l-54 -6 62 -57 c34 -32 67 -58 74 -58 22 0 188 73 180 80
-4 4 -31 16 -60 28 -52 22 -93 25 -202 13z"/>
<path d="M1853 1577 c-29 -12 -55 -25 -58 -28 -5 -6 162 -79 181 -79 14 0 130
106 124 113 -3 3 -48 8 -100 11 -85 6 -100 4 -147 -17z"/>
<path d="M1364 1537 c-43 -17 -194 -177 -167 -177 11 0 34 -3 51 -6 28 -6 33
-1 101 90 39 53 71 98 71 101 0 8 -23 5 -56 -8z"/>
<path d="M1490 1546 c0 -4 32 -49 71 -102 67 -92 72 -96 101 -90 17 3 40 6 51
6 16 0 3 18 -59 83 -43 45 -83 85 -89 88 -15 10 -75 21 -75 15z"/>
<path d="M1061 1494 c-51 -25 -91 -47 -89 -49 10 -10 152 -65 167 -65 9 0 52
36 96 80 l80 80 -80 -1 c-73 -1 -88 -5 -174 -45z"/>
<path d="M1677 1458 l82 -82 53 17 c29 10 71 25 93 35 l40 18 -99 47 c-91 43
-105 47 -175 47 l-76 0 82 -82z"/>
<path d="M1326 1291 l-125 -191 125 -191 c69 -106 129 -188 134 -183 4 5 62
92 129 193 l120 183 -121 182 c-66 99 -124 185 -129 190 -4 5 -64 -77 -133
-183z"/>
<path d="M684 1421 l-32 -6 86 -75 c47 -41 91 -79 99 -83 14 -8 263 79 263 92
0 4 -39 24 -87 44 -84 36 -93 37 -193 36 -58 -1 -119 -4 -136 -8z"/>
<path d="M1893 1392 c-46 -20 -83 -39 -83 -43 0 -6 238 -99 253 -99 4 0 49 38
101 84 l94 84 -45 6 c-25 3 -89 6 -142 5 -88 0 -103 -3 -178 -37z"/>
<path d="M1007 1283 c-65 -25 -114 -49 -110 -54 17 -16 228 -98 233 -91 26 30
121 175 118 178 -3 2 -31 6 -64 9 -53 5 -71 0 -177 -42z"/>
<path d="M1688 1323 c-16 -2 -28 -6 -28 -9 0 -4 105 -159 120 -176 5 -7 216
75 233 91 12 12 -229 101 -266 100 -18 -1 -44 -4 -59 -6z"/>
<path d="M557 592 c-23 -26 -23 -104 1 -125 9 -8 34 -17 55 -19 47 -4 53 -22
8 -26 -24 -3 -40 3 -57 19 l-24 22 0 -35 c0 -50 24 -68 92 -68 69 0 88 18 88
83 0 55 -24 77 -83 77 -23 0 -36 4 -32 10 10 16 77 12 97 -7 17 -15 18 -14 18
19 0 50 -24 68 -92 68 -40 0 -59 -5 -71 -18z"/>
<path d="M723 592 c13 -14 17 -39 17 -109 0 -112 9 -123 97 -123 84 0 93 12
93 125 0 68 4 93 17 107 15 17 15 18 -14 18 -52 0 -73 -34 -73 -118 0 -70 -1
-72 -25 -72 -24 0 -25 2 -25 73 0 64 -3 76 -23 95 -13 12 -36 22 -52 22 -27 0
-27 -1 -12 -18z"/>
<path d="M967 592 c-14 -15 -17 -40 -17 -125 l0 -107 30 0 c29 0 30 2 30 45 0
44 1 45 33 45 52 0 77 33 77 103 l0 57 -68 0 c-54 0 -72 -4 -85 -18z m83 -62
c0 -5 -9 -10 -20 -10 -11 0 -20 5 -20 10 0 6 9 10 20 10 11 0 20 -4 20 -10z"/>
<path d="M1130 485 l0 -125 35 0 c34 0 35 1 36 43 l0 42 22 -42 c19 -39 24
-43 59 -43 l38 0 -22 45 -22 45 22 23 c30 32 29 86 -1 115 -19 18 -35 22 -95
22 l-72 0 0 -125z m120 45 c0 -5 -11 -10 -25 -10 -14 0 -25 5 -25 10 0 6 11
10 25 10 14 0 25 -4 25 -10z"/>
<path d="M1330 485 l0 -125 95 0 95 0 0 30 0 30 -60 0 c-47 0 -60 3 -60 15 0
10 10 15 30 15 28 0 30 3 30 35 0 32 -2 35 -30 35 -55 0 -31 19 28 22 56 3 57
3 60 36 l3 32 -95 0 -96 0 0 -125z"/>
<path d="M1530 485 l0 -125 35 0 35 0 0 48 1 47 26 -50 25 -49 24 44 23 45 1
-42 c0 -42 1 -43 35 -43 l35 0 0 125 0 125 -33 0 c-30 0 -35 -5 -59 -52 l-25
-53 -27 53 c-24 48 -29 52 -61 52 l-35 0 0 -125z"/>
<path d="M1780 485 l0 -125 35 0 c28 0 35 4 35 20 0 15 7 20 25 20 18 0 25 -5
25 -20 0 -16 7 -20 35 -20 l35 0 0 103 c0 95 -2 105 -23 125 -19 18 -35 22
-95 22 l-72 0 0 -125z m120 20 c0 -41 -2 -45 -25 -45 -23 0 -25 4 -25 45 0 41
2 45 25 45 23 0 25 -4 25 -45z"/>
<path d="M1997 592 c-13 -14 -17 -39 -17 -109 0 -110 9 -123 92 -123 44 0 59
4 76 23 12 13 22 33 22 45 0 18 -6 22 -34 22 -21 0 -36 -6 -40 -15 -3 -8 -15
-15 -26 -15 -18 0 -20 6 -20 60 l0 60 40 0 c45 0 46 0 25 40 -14 26 -21 30
-59 30 -29 0 -48 -6 -59 -18z"/>
<path d="M2145 540 c27 -54 35 -81 35 -125 l0 -55 35 0 35 0 0 60 c0 47 7 74
30 120 17 33 30 62 30 65 0 3 -16 5 -35 5 -27 0 -37 -6 -49 -27 l-14 -28 -13
28 c-10 23 -18 27 -51 27 l-38 0 35 -70z"/>
</g>
</svg>
