<?xml version="1.0" standalone="no"?>
<!DOCTYPE svg PUBLIC "-//W3C//DTD SVG 20010904//EN"
 "http://www.w3.org/TR/2001/REC-SVG-20010904/DTD/svg10.dtd">
<svg version="1.0" xmlns="http://www.w3.org/2000/svg"
 width="125.000000pt" height="27.000000pt" viewBox="0 0 125.000000 27.000000"
 preserveAspectRatio="xMidYMid meet">

<g transform="translate(0.000000,27.000000) scale(0.100000,-0.100000)"
fill="#000000" stroke="none">
<path d="M27 242 c-23 -26 -23 -104 1 -125 9 -8 34 -17 55 -19 47 -4 53 -22 8
-26 -24 -3 -40 3 -57 19 l-24 22 0 -35 c0 -50 24 -68 92 -68 69 0 88 18 88 83
0 55 -24 77 -83 77 -23 0 -36 4 -32 10 10 16 77 12 97 -7 17 -15 18 -14 18 19
0 50 -24 68 -92 68 -40 0 -59 -5 -71 -18z"/>
<path d="M193 242 c13 -14 17 -39 17 -109 0 -112 9 -123 97 -123 84 0 93 12
93 125 0 68 4 93 17 107 15 17 15 18 -14 18 -52 0 -73 -34 -73 -118 0 -70 -1
-72 -25 -72 -24 0 -25 2 -25 73 0 64 -3 76 -23 95 -13 12 -36 22 -52 22 -27 0
-27 -1 -12 -18z"/>
<path d="M437 242 c-14 -15 -17 -40 -17 -125 l0 -107 30 0 c29 0 30 2 30 45 0
44 1 45 33 45 52 0 77 33 77 103 l0 57 -68 0 c-54 0 -72 -4 -85 -18z m83 -62
c0 -5 -9 -10 -20 -10 -11 0 -20 5 -20 10 0 6 9 10 20 10 11 0 20 -4 20 -10z"/>
<path d="M600 135 l0 -125 35 0 c34 0 35 1 36 43 l0 42 22 -42 c19 -39 24 -43
59 -43 l38 0 -22 45 -22 45 22 23 c30 32 29 86 -1 115 -19 18 -35 22 -95 22
l-72 0 0 -125z m120 45 c0 -5 -11 -10 -25 -10 -14 0 -25 5 -25 10 0 6 11 10
25 10 14 0 25 -4 25 -10z"/>
<path d="M800 135 l0 -125 95 0 95 0 0 30 0 30 -60 0 c-47 0 -60 3 -60 15 0
10 10 15 30 15 28 0 30 3 30 35 0 32 -2 35 -30 35 -55 0 -31 19 28 22 56 3 57
3 60 36 l3 32 -95 0 -96 0 0 -125z"/>
<path d="M1000 135 l0 -125 35 0 35 0 0 48 1 47 26 -50 25 -49 24 44 23 45 1
-42 c0 -42 1 -43 35 -43 l35 0 0 125 0 125 -33 0 c-30 0 -35 -5 -59 -52 l-25
-53 -27 53 c-24 48 -29 52 -61 52 l-35 0 0 -125z"/>
</g>
</svg>
